<svg width="49" height="48" viewBox="0 0 49 48" fill="none" xmlns="http://www.w3.org/2000/svg">
<mask id="mask0_6872_275316" style="mask-type:alpha" maskUnits="userSpaceOnUse" x="0" y="0" width="49" height="49">
<rect x="0.3125" y="0.00390625" width="48" height="48" fill="#D9D9D9"/>
</mask>
<g mask="url(#mask0_6872_275316)">
<path d="M10.9279 41.0038C9.91763 41.0038 9.0625 40.6538 8.3625 39.9538C7.6625 39.2538 7.3125 38.3987 7.3125 37.3884V10.6193C7.3125 9.60904 7.6625 8.75391 8.3625 8.05391C9.0625 7.35391 9.91763 7.00391 10.9279 7.00391H19.8279C19.9869 5.88084 20.483 4.93341 21.3164 4.16161C22.1497 3.38981 23.1484 3.00391 24.3125 3.00391C25.4766 3.00391 26.4753 3.38981 27.3086 4.16161C28.1419 4.93341 28.638 5.88084 28.797 7.00391H37.697C38.7073 7.00391 39.5624 7.35391 40.2624 8.05391C40.9624 8.75391 41.3124 9.60904 41.3124 10.6193V37.3884C41.3124 38.3987 40.9624 39.2538 40.2624 39.9538C39.5624 40.6538 38.7073 41.0038 37.697 41.0038H10.9279ZM24.3125 8.69616C24.7458 8.69616 25.1041 8.55449 25.3875 8.27116C25.6708 7.98782 25.8125 7.62949 25.8125 7.19616C25.8125 6.76282 25.6708 6.40449 25.3875 6.12116C25.1041 5.83782 24.7458 5.69616 24.3125 5.69616C23.8791 5.69616 23.5208 5.83782 23.2375 6.12116C22.9541 6.40449 22.8125 6.76282 22.8125 7.19616C22.8125 7.62949 22.9541 7.98782 23.2375 8.27116C23.5208 8.55449 23.8791 8.69616 24.3125 8.69616ZM10.3124 36.0885C12.1125 34.3218 14.2041 32.9302 16.5875 31.9135C18.9708 30.8968 21.5458 30.3885 24.3125 30.3885C27.0791 30.3885 29.6541 30.8968 32.0375 31.9135C34.4208 32.9302 36.5125 34.3218 38.3125 36.0885V10.6193C38.3125 10.4654 38.2484 10.3244 38.1201 10.1962C37.9919 10.068 37.8509 10.0039 37.697 10.0039H10.9279C10.774 10.0039 10.633 10.068 10.5047 10.1962C10.3765 10.3244 10.3124 10.4654 10.3124 10.6193V36.0885ZM24.3125 26.0808C26.1176 26.0808 27.6522 25.4488 28.9163 24.1847C30.1804 22.9206 30.8124 21.3859 30.8124 19.5808C30.8124 17.7757 30.1804 16.2411 28.9163 14.977C27.6522 13.7129 26.1176 13.0809 24.3125 13.0809C22.5073 13.0809 20.9727 13.7129 19.7087 14.977C18.4446 16.2411 17.8125 17.7757 17.8125 19.5808C17.8125 21.3859 18.4446 22.9206 19.7087 24.1847C20.9727 25.4488 22.5073 26.0808 24.3125 26.0808ZM13.197 38.0039H35.4279V37.5808C33.8484 36.1705 32.1157 35.1192 30.2298 34.4269C28.3439 33.7346 26.3715 33.3884 24.3125 33.3884C22.2791 33.3884 20.3163 33.7314 18.424 34.4173C16.5316 35.1032 14.7893 36.1449 13.197 37.5423V38.0039ZM24.3125 23.0809C23.3509 23.0809 22.5272 22.7379 21.8413 22.052C21.1554 21.3661 20.8124 20.5424 20.8124 19.5808C20.8124 18.6193 21.1554 17.7956 21.8413 17.1097C22.5272 16.4238 23.3509 16.0808 24.3125 16.0808C25.274 16.0808 26.0977 16.4238 26.7837 17.1097C27.4696 17.7956 27.8125 18.6193 27.8125 19.5808C27.8125 20.5424 27.4696 21.3661 26.7837 22.052C26.0977 22.7379 25.274 23.0809 24.3125 23.0809Z" fill="#FEFEFE"/>
</g>
</svg>
