<svg width="49" height="48" viewBox="0 0 49 48" fill="none" xmlns="http://www.w3.org/2000/svg">
<mask id="mask0_7049_127510" style="mask-type:alpha" maskUnits="userSpaceOnUse" x="0" y="0" width="49" height="49">
<rect x="0.519531" y="0.00390625" width="48" height="48" fill="#D9D9D9"/>
</mask>
<g mask="url(#mask0_7049_127510)">
<path d="M36.5195 25.7731L39.5194 28.773V39.3884C39.5194 40.3987 39.1694 41.2538 38.4694 41.9538C37.7694 42.6538 36.9143 43.0038 35.904 43.0038H9.13493C8.12466 43.0038 7.26953 42.6538 6.56953 41.9538C5.86953 41.2538 5.51953 40.3987 5.51953 39.3884V12.6193C5.51953 11.609 5.86953 10.7539 6.56953 10.0539C7.26953 9.35391 8.12466 9.00391 9.13493 9.00391H20.0003C19.8105 9.48854 19.6714 9.98278 19.583 10.4866C19.4945 10.9904 19.4234 11.4962 19.3695 12.0039H9.13493C8.98106 12.0039 8.84001 12.068 8.71178 12.1962C8.58358 12.3244 8.51948 12.4654 8.51948 12.6193V39.3884C8.51948 39.5423 8.58358 39.6833 8.71178 39.8116C8.84001 39.9398 8.98106 40.0039 9.13493 40.0039H35.904C36.0579 40.0039 36.1989 39.9398 36.3272 39.8116C36.4554 39.6833 36.5195 39.5423 36.5195 39.3884V25.7731ZM8.51948 40.0039V12.0039V25.2346V24.6538V40.0039Z" fill="#FEFEFE"/>
<mask id="mask1_7049_127510" style="mask-type:alpha" maskUnits="userSpaceOnUse" x="21" y="-2" width="29" height="29">
<rect x="21.5664" y="-1.74902" width="27.7529" height="27.7529" fill="#D9D9D9"/>
</mask>
<g mask="url(#mask1_7049_127510)">
<path d="M44.197 23.1558L36.7975 15.7562C36.2302 16.1752 35.5735 16.5087 34.8273 16.7567C34.0811 17.0047 33.2785 17.1287 32.4196 17.1287C30.2208 17.1287 28.3558 16.3631 26.8244 14.8317C25.293 13.3004 24.5273 11.4353 24.5273 9.23651C24.5273 7.03772 25.293 5.17265 26.8244 3.64128C28.3558 2.10992 30.2208 1.34424 32.4196 1.34424C34.6184 1.34424 36.4835 2.10992 38.0148 3.64128C39.5462 5.17265 40.3119 7.03772 40.3119 9.23651C40.3119 10.1063 40.1879 10.9088 39.9398 11.6442C39.6918 12.3795 39.3583 13.0253 38.9393 13.5817L46.3552 21.0139L44.197 23.1558ZM32.4196 14.0643C33.767 14.0643 34.9085 13.5965 35.8441 12.661C36.7797 11.7254 37.2474 10.5839 37.2474 9.23651C37.2474 7.88908 36.7797 6.74759 35.8441 5.81203C34.9085 4.87646 33.767 4.40868 32.4196 4.40868C31.0722 4.40868 29.9307 4.87646 28.9951 5.81203C28.0596 6.74759 27.5918 7.88908 27.5918 9.23651C27.5918 10.5839 28.0596 11.7254 28.9951 12.661C29.9307 13.5965 31.0722 14.0643 32.4196 14.0643Z" fill="#FEFEFE"/>
</g>
<path d="M35.0011 20.0039L32.0731 31.2359H28.7611L26.9691 23.8439L25.1131 31.2359H21.8011L18.9531 20.0039H21.8811L23.4971 28.1799L25.4971 20.0039H28.5051L30.4251 28.1799L32.0571 20.0039H35.0011Z" fill="#FEFEFE"/>
<path d="M18.1355 20.0039V27.6519C18.1355 28.8359 17.7995 29.7479 17.1275 30.3879C16.4662 31.0279 15.5702 31.3479 14.4395 31.3479C13.2555 31.3479 12.3062 31.0119 11.5915 30.3399C10.8769 29.6679 10.5195 28.7132 10.5195 27.4759H13.2395C13.2395 27.9452 13.3355 28.3026 13.5275 28.5479C13.7195 28.7826 13.9969 28.8999 14.3595 28.8999C14.6902 28.8999 14.9462 28.7932 15.1275 28.5799C15.3089 28.3666 15.3995 28.0572 15.3995 27.6519V20.0039H18.1355Z" fill="#FEFEFE"/>
</g>
</svg>
