<svg width="49" height="49" viewBox="0 0 49 49" fill="none" xmlns="http://www.w3.org/2000/svg">
<mask id="mask0_6872_275246" style="mask-type:alpha" maskUnits="userSpaceOnUse" x="0" y="0" width="49" height="49">
<rect x="0.796875" y="0.5" width="48" height="48" fill="#D9D9D9"/>
</mask>
<g mask="url(#mask0_6872_275246)">
<path d="M24.6349 42.9615L33.0425 20.8077H36.8964L45.304 42.9615H41.4502L39.504 37.323H30.5349L28.5272 42.9615H24.6349ZM31.6579 34.0923H38.281L35.0502 24.9616H34.8887L31.6579 34.0923ZM10.0657 37.423L7.45809 34.8153L16.7888 25.4846C15.6247 24.2 14.6061 22.8654 13.733 21.4808C12.86 20.0962 12.0991 18.6411 11.4504 17.1155H15.3042C15.8657 18.2257 16.4593 19.2225 17.0849 20.1058C17.7106 20.9892 18.4683 21.9257 19.358 22.9154C20.7221 21.4308 21.8522 19.9142 22.7484 18.3654C23.6445 16.8167 24.3939 15.1693 24.9964 13.4232H4.52734V9.73087H17.4503V6.03857H21.1426V9.73087H34.0656V13.4232H28.6887C28.04 15.5975 27.1637 17.7148 26.0599 19.7751C24.9561 21.8353 23.5913 23.7718 21.9657 25.5846L26.381 30.1L24.9964 33.8923L19.2965 28.1923L10.0657 37.423Z" fill="#FEFEFE"/>
</g>
</svg>
