<svg width="262" height="257" viewBox="0 0 262 257" fill="none" xmlns="http://www.w3.org/2000/svg">
<g clip-path="url(#clip0_7525_253022)">
<rect x="0.46875" y="0.923798" width="261.009" height="255.325" rx="10.311" fill="#FEFEFE"/>
<path d="M6.47656 11.4372C6.47656 8.94871 8.49385 6.93143 10.9823 6.93143L250.964 6.93143C253.453 6.93143 255.47 8.94871 255.47 11.4372V45.4562C255.47 47.9447 253.453 49.962 250.964 49.962H10.9823C8.49385 49.962 6.47656 47.9447 6.47656 45.4562L6.47656 11.4372Z" fill="#D5DFFD"/>
<path d="M102.734 22.0237H104.948L108.308 30.2266H108.436L111.796 22.0237H114.009V32.9467H112.271V25.2451H112.169L109.055 32.92H107.689L104.574 25.2291H104.473L104.473 32.9467H102.734V22.0237ZM116.18 32.9467V24.7545H117.946V32.9467H116.18ZM117.071 23.5438C116.779 23.5438 116.529 23.446 116.319 23.2504C116.113 23.0549 116.009 22.8184 116.009 22.5411C116.009 22.2673 116.113 22.0326 116.319 21.837C116.529 21.6415 116.779 21.5437 117.071 21.5437C117.362 21.5437 117.611 21.6415 117.818 21.837C118.027 22.0326 118.132 22.2673 118.132 22.5411C118.132 22.8184 118.027 23.0549 117.818 23.2504C117.611 23.446 117.362 23.5438 117.071 23.5438ZM121.774 28.1145V32.9467H120.008V24.7545H121.699V26.1198H121.8C121.989 25.6718 122.287 25.3145 122.696 25.0478C123.105 24.7811 123.615 24.6478 124.227 24.6478C124.789 24.6478 125.28 24.7669 125.699 25.0051C126.119 25.2434 126.444 25.5918 126.675 26.0505C126.91 26.5092 127.027 27.071 127.027 27.7359V32.9467H125.262V27.9812C125.262 27.4088 125.114 26.9625 124.819 26.6425C124.524 26.3189 124.117 26.1572 123.598 26.1572C123.242 26.1572 122.927 26.2336 122.654 26.3865C122.38 26.5394 122.165 26.7616 122.008 27.0532C121.852 27.3447 121.774 27.6985 121.774 28.1145ZM129.073 32.9467V24.7545H130.838V32.9467H129.073ZM129.963 23.5438C129.672 23.5438 129.421 23.446 129.211 23.2504C129.005 23.0549 128.902 22.8184 128.902 22.5411C128.902 22.2673 129.005 22.0326 129.211 21.837C129.421 21.6415 129.672 21.5437 129.963 21.5437C130.255 21.5437 130.504 21.6415 130.71 21.837C130.92 22.0326 131.025 22.2673 131.025 22.5411C131.025 22.8184 130.92 23.0549 130.71 23.2504C130.504 23.446 130.255 23.5438 129.963 23.5438ZM139.21 26.8398L137.605 27.0639C137.551 26.8825 137.461 26.7118 137.333 26.5518C137.208 26.3883 137.039 26.2549 136.826 26.1518C136.613 26.0487 136.348 25.9972 136.031 25.9972C135.605 25.9972 135.247 26.0914 134.959 26.2798C134.675 26.4683 134.533 26.7118 134.533 27.0105C134.533 27.2665 134.629 27.4728 134.821 27.6292C135.013 27.7857 135.324 27.9154 135.754 28.0185L137.109 28.3172C137.873 28.4879 138.442 28.7546 138.815 29.1172C139.189 29.4799 139.377 29.9528 139.381 30.536C139.377 31.0409 139.23 31.4871 138.938 31.8747C138.65 32.2587 138.248 32.5609 137.733 32.7813C137.221 33.0018 136.629 33.112 135.957 33.112C134.993 33.112 134.214 32.9094 133.621 32.504C133.027 32.0951 132.666 31.5209 132.538 30.7813L134.25 30.568C134.342 30.9555 134.533 31.2489 134.821 31.448C135.109 31.6435 135.484 31.7413 135.946 31.7413C136.437 31.7413 136.83 31.64 137.125 31.4373C137.42 31.2311 137.569 30.9804 137.573 30.6853C137.569 30.4364 137.475 30.2319 137.29 30.0719C137.109 29.9084 136.824 29.7839 136.437 29.6986L135.05 29.3946C134.271 29.2275 133.697 28.9519 133.327 28.5679C132.958 28.1803 132.774 27.6932 132.778 27.1065C132.774 26.6123 132.91 26.1821 133.183 25.8158C133.457 25.446 133.838 25.1598 134.325 24.9571C134.815 24.7509 135.379 24.6478 136.015 24.6478C136.936 24.6478 137.662 24.8469 138.191 25.2451C138.725 25.6398 139.064 26.1714 139.21 26.8398ZM145.004 24.7545V26.1412H140.411V24.7545H145.004ZM141.59 22.7917H143.356V30.5146C143.356 30.7955 143.398 31.0106 143.484 31.16C143.569 31.3057 143.681 31.4053 143.82 31.4586C143.962 31.5084 144.116 31.5333 144.284 31.5333C144.408 31.5333 144.518 31.5244 144.614 31.5066C144.714 31.4889 144.79 31.4746 144.844 31.464L145.153 32.8773C145.053 32.9094 144.913 32.9449 144.732 32.984C144.55 33.0267 144.328 33.0516 144.065 33.0587C143.613 33.0694 143.199 32.9947 142.822 32.8347C142.449 32.6747 142.148 32.4276 141.921 32.0933C141.697 31.7591 141.587 31.3395 141.59 30.8346V22.7917ZM146.688 32.9467V24.7545H148.4V26.0878H148.485C148.634 25.6327 148.894 25.2771 149.264 25.0211C149.637 24.7616 150.06 24.6318 150.533 24.6318C150.636 24.6318 150.755 24.6371 150.89 24.6478C151.026 24.6549 151.136 24.6656 151.221 24.6798V26.3332C151.146 26.3083 151.024 26.2852 150.853 26.2638C150.686 26.2389 150.521 26.2265 150.357 26.2265C149.991 26.2265 149.664 26.3047 149.376 26.4612C149.091 26.6141 148.866 26.8274 148.698 27.1012C148.535 27.3714 148.453 27.6843 148.453 28.0399V32.9467H146.688ZM153.908 36.0188C153.659 36.0188 153.43 35.9992 153.22 35.9601C153.01 35.921 152.848 35.8765 152.735 35.8268L153.151 34.4241C153.439 34.5058 153.695 34.5414 153.919 34.5307C154.143 34.5236 154.34 34.4472 154.511 34.3014C154.685 34.1556 154.834 33.9138 154.959 33.576L155.145 33.0854L152.158 24.7545H154.036L156.015 31.0266H156.1L158.089 24.7545H159.972L156.639 33.9867C156.486 34.4205 156.285 34.7885 156.036 35.0907C155.791 35.393 155.492 35.6223 155.14 35.7788C154.791 35.9388 154.381 36.0188 153.908 36.0188Z" fill="#3B4CA3"/>
<path d="M12.4844 64.9811C12.4844 61.6631 15.1741 58.9734 18.492 58.9734H91.9238C95.2417 58.9734 97.9314 61.6631 97.9314 64.9811V89.0116C97.9314 92.3295 95.2417 95.0192 91.9238 95.0192H18.492C15.1741 95.0192 12.4844 92.3295 12.4844 89.0116L12.4844 64.9811Z" fill="#F2F5FF"/>
<mask id="mask0_7525_253022" style="mask-type:alpha" maskUnits="userSpaceOnUse" x="30" y="67" width="19" height="20">
<rect x="30.1953" y="67.9845" width="18.0229" height="18.0229" fill="#D9D9D9"/>
</mask>
<g mask="url(#mask0_7525_253022)">
<path d="M38.6412 80.5631H39.7676V77.5593H42.7714V76.4329H39.7676V73.4291H38.6412V76.4329H35.6373V77.5593H38.6412V80.5631ZM39.2056 84.1301C38.2189 84.1301 37.2915 83.9429 36.4233 83.5684C35.555 83.1939 34.7998 82.6857 34.1576 82.0438C33.5153 81.4018 33.0069 80.6469 32.6323 79.7791C32.2576 78.9113 32.0703 77.984 32.0703 76.9973C32.0703 76.0106 32.2576 75.0832 32.632 74.215C33.0065 73.3468 33.5147 72.5915 34.1567 71.9493C34.7986 71.3071 35.5535 70.7986 36.4213 70.424C37.2891 70.0494 38.2164 69.862 39.2031 69.862C40.1898 69.862 41.1173 70.0493 41.9855 70.4237C42.8537 70.7982 43.6089 71.3064 44.2511 71.9484C44.8934 72.5903 45.4018 73.3452 45.7765 74.213C46.1511 75.0809 46.3384 76.0081 46.3384 76.9948C46.3384 77.9815 46.1512 78.909 45.7767 79.7772C45.4022 80.6454 44.894 81.4006 44.2521 82.0428C43.6101 82.6851 42.8552 83.1935 41.9874 83.5682C41.1196 83.9428 40.1923 84.1301 39.2056 84.1301ZM39.2044 83.0037C40.8815 83.0037 42.302 82.4217 43.466 81.2577C44.63 80.0938 45.212 78.6732 45.212 76.9961C45.212 75.3189 44.63 73.8984 43.466 72.7344C42.302 71.5704 40.8815 70.9884 39.2044 70.9884C37.5272 70.9884 36.1067 71.5704 34.9427 72.7344C33.7787 73.8984 33.1967 75.3189 33.1967 76.9961C33.1967 78.6732 33.7787 80.0938 34.9427 81.2577C36.1067 82.4217 37.5272 83.0037 39.2044 83.0037Z" fill="#3B4CA3"/>
</g>
<path d="M51.7222 73.4868V72.258H58.5875V73.4868H55.8781V80.9963H54.4359V73.4868H51.7222ZM59.9155 80.9963V74.4426H61.3278V80.9963H59.9155ZM60.6281 73.474C60.3948 73.474 60.1943 73.3958 60.0265 73.2393C59.8615 73.0829 59.779 72.8937 59.779 72.6718C59.779 72.4528 59.8615 72.2651 60.0265 72.1086C60.1943 71.9522 60.3948 71.8739 60.6281 71.8739C60.8613 71.8739 61.0604 71.9522 61.2254 72.1086C61.3933 72.2651 61.4772 72.4528 61.4772 72.6718C61.4772 72.8937 61.3933 73.0829 61.2254 73.2393C61.0604 73.3958 60.8613 73.474 60.6281 73.474ZM62.978 80.9963V74.4426H64.3306V75.5349H64.4117C64.5482 75.1651 64.7715 74.8763 65.0815 74.6687C65.3944 74.461 65.7685 74.3572 66.2037 74.3572C66.6446 74.3572 67.0158 74.4625 67.3173 74.673C67.6217 74.8806 67.8407 75.1679 67.9744 75.5349H68.0427C68.1934 75.1764 68.4395 74.8906 68.7808 74.6772C69.125 74.4639 69.5346 74.3572 70.0097 74.3572C70.607 74.3572 71.0949 74.5464 71.4732 74.9247C71.8515 75.3002 72.0407 75.8591 72.0407 76.6015V80.9963H70.6284V76.7808C70.6284 76.3541 70.5146 76.044 70.287 75.8506C70.0595 75.6572 69.7835 75.5605 69.4593 75.5605C69.0639 75.5605 68.7552 75.6828 68.5334 75.9274C68.3143 76.1692 68.2048 76.4807 68.2048 76.8618V80.9963H66.8139V76.7082C66.8139 76.3612 66.7072 76.0838 66.4938 75.8762C66.2805 75.6657 66.0046 75.5605 65.6661 75.5605C65.4328 75.5605 65.2195 75.6202 65.0261 75.7397C64.8326 75.8591 64.6776 76.0255 64.561 76.2389C64.4472 76.4522 64.3903 76.6997 64.3903 76.9813V80.9963H62.978ZM76.5464 81.1286C75.895 81.1286 75.3332 80.9906 74.861 80.7147C74.3888 80.436 74.0261 80.0448 73.773 79.5414C73.5198 79.035 73.3932 78.442 73.3932 77.7621C73.3932 77.088 73.5198 76.4949 73.773 75.9829C74.029 75.4708 74.386 75.0726 74.8439 74.7882C75.3019 74.5009 75.8395 74.3572 76.4568 74.3572C76.8465 74.3572 77.2177 74.4198 77.5704 74.545C77.9231 74.6701 78.2375 74.8664 78.5134 75.1338C78.7893 75.3983 79.0069 75.7397 79.1662 76.1578C79.3283 76.5759 79.4094 77.0766 79.4094 77.6597V78.1205H74.1143V77.1221H78.0398C78.0398 76.8092 77.9743 76.5304 77.8435 76.2858C77.7126 76.0383 77.5292 75.8435 77.2931 75.7013C77.0598 75.559 76.7868 75.4879 76.4739 75.4879C76.1354 75.4879 75.8395 75.569 75.5864 75.7311C75.336 75.8933 75.1412 76.1066 75.0018 76.3711C74.8653 76.6357 74.7956 76.923 74.7927 77.233V78.0565C74.7927 78.4661 74.8667 78.816 75.0146 79.1062C75.1625 79.3963 75.3688 79.6182 75.6333 79.7718C75.8978 79.9225 76.2065 79.9979 76.5592 79.9979C76.7953 79.9979 77.0086 79.9652 77.1992 79.8998C77.3898 79.8315 77.5534 79.7319 77.6899 79.6011C77.8293 79.4674 77.9359 79.3024 78.0099 79.1062L79.3369 79.2982C79.243 79.6651 79.0695 79.9865 78.8163 80.2624C78.566 80.5355 78.2474 80.7489 77.8606 80.9025C77.4766 81.0532 77.0385 81.1286 76.5464 81.1286Z" fill="#3B4CA3"/>
<a href="https://www.figma.com/file/CILvIaAZ4oDlrLsKxZzY5K/Organized-App?type=design&#38;node-id=2625-64739&#38;mode=design">
<rect fill="black" fill-opacity="0" y="0.238939" width="28.7283" height="14.5412"/>
</a>
<path d="M118.971 81.6883C118.114 81.6883 117.378 81.4661 116.763 81.0217C116.151 80.5772 115.682 79.9336 115.355 79.0909C115.028 78.2482 114.866 77.2313 114.869 76.0402C114.869 74.8526 115.033 73.841 115.36 73.0054C115.687 72.1663 116.157 71.5263 116.768 71.0854C117.383 70.6445 118.117 70.424 118.971 70.424C119.828 70.424 120.562 70.6445 121.174 71.0854C121.789 71.5263 122.26 72.1663 122.587 73.0054C122.914 73.8446 123.078 74.8562 123.078 76.0402C123.078 77.2349 122.914 78.2536 122.587 79.0963C122.26 79.939 121.79 80.5825 121.179 81.027C120.567 81.4679 119.831 81.6883 118.971 81.6883ZM118.971 80.147C119.682 80.147 120.242 79.7985 120.651 79.1016C121.06 78.4011 121.262 77.3807 121.259 76.0402C121.259 75.1548 121.166 74.4081 120.982 73.8001C120.797 73.1921 120.534 72.7316 120.192 72.4187C119.851 72.1059 119.444 71.9494 118.971 71.9494C118.267 71.9494 117.71 72.2996 117.301 73.0001C116.893 73.697 116.688 74.7104 116.688 76.0402C116.685 76.9327 116.775 77.6847 116.96 78.2962C117.145 78.9043 117.408 79.3647 117.749 79.6776C118.091 79.9905 118.498 80.147 118.971 80.147ZM126.054 80.163C125.744 80.163 125.479 80.0545 125.259 79.8376C125.039 79.6172 124.93 79.3523 124.934 79.0429C124.93 78.7371 125.039 78.4758 125.259 78.2589C125.479 78.0385 125.744 77.9282 126.054 77.9282C126.352 77.9282 126.612 78.0385 126.832 78.2589C127.056 78.4758 127.17 78.7371 127.174 79.0429C127.17 79.2492 127.117 79.4376 127.014 79.6083C126.911 79.7754 126.776 79.9105 126.608 80.0136C126.441 80.1132 126.256 80.163 126.054 80.163ZM126.054 74.7228C125.744 74.7228 125.479 74.6144 125.259 74.3975C125.039 74.177 124.93 73.9121 124.934 73.6028C124.93 73.297 125.039 73.0357 125.259 72.8188C125.479 72.5983 125.744 72.4881 126.054 72.4881C126.352 72.4881 126.612 72.5983 126.832 72.8188C127.056 73.0357 127.17 73.297 127.174 73.6028C127.17 73.8055 127.117 73.9921 127.014 74.1628C126.911 74.3335 126.776 74.4704 126.608 74.5735C126.441 74.673 126.256 74.7228 126.054 74.7228ZM133.125 81.6883C132.268 81.6883 131.532 81.4661 130.917 81.0217C130.305 80.5772 129.836 79.9336 129.508 79.0909C129.181 78.2482 129.02 77.2313 129.023 76.0402C129.023 74.8526 129.187 73.841 129.514 73.0054C129.841 72.1663 130.31 71.5263 130.922 71.0854C131.537 70.6445 132.271 70.424 133.125 70.424C133.981 70.424 134.716 70.6445 135.327 71.0854C135.942 71.5263 136.414 72.1663 136.741 73.0054C137.068 73.8446 137.231 74.8562 137.231 76.0402C137.231 77.2349 137.068 78.2536 136.741 79.0963C136.414 79.939 135.944 80.5825 135.333 81.027C134.721 81.4679 133.985 81.6883 133.125 81.6883ZM133.125 80.147C133.836 80.147 134.396 79.7985 134.805 79.1016C135.214 78.4011 135.416 77.3807 135.413 76.0402C135.413 75.1548 135.32 74.4081 135.135 73.8001C134.95 73.1921 134.687 72.7316 134.346 72.4187C134.005 72.1059 133.597 71.9494 133.125 71.9494C132.421 71.9494 131.864 72.2996 131.455 73.0001C131.046 73.697 130.842 74.7104 130.842 76.0402C130.838 76.9327 130.929 77.6847 131.114 78.2962C131.299 78.9043 131.562 79.3647 131.903 79.6776C132.245 79.9905 132.652 80.147 133.125 80.147ZM142.981 81.6883C142.124 81.6883 141.388 81.4661 140.773 81.0217C140.161 80.5772 139.692 79.9336 139.365 79.0909C139.038 78.2482 138.876 77.2313 138.879 76.0402C138.879 74.8526 139.043 73.841 139.37 73.0054C139.697 72.1663 140.167 71.5263 140.778 71.0854C141.393 70.6445 142.128 70.424 142.981 70.424C143.838 70.424 144.572 70.6445 145.184 71.0854C145.799 71.5263 146.27 72.1663 146.597 73.0054C146.924 73.8446 147.088 74.8562 147.088 76.0402C147.088 77.2349 146.924 78.2536 146.597 79.0963C146.27 79.939 145.8 80.5825 145.189 81.027C144.577 81.4679 143.841 81.6883 142.981 81.6883ZM142.981 80.147C143.692 80.147 144.252 79.7985 144.661 79.1016C145.07 78.4011 145.272 77.3807 145.269 76.0402C145.269 75.1548 145.176 74.4081 144.992 73.8001C144.807 73.1921 144.544 72.7316 144.202 72.4187C143.861 72.1059 143.454 71.9494 142.981 71.9494C142.277 71.9494 141.72 72.2996 141.311 73.0001C140.903 73.697 140.698 74.7104 140.698 76.0402C140.695 76.9327 140.785 77.6847 140.97 78.2962C141.155 78.9043 141.418 79.3647 141.759 79.6776C142.101 79.9905 142.508 80.147 142.981 80.147Z" fill="#A5B3DD"/>
<path d="M164.016 64.9811C164.016 61.6631 166.705 58.9734 170.023 58.9734H243.455C246.773 58.9734 249.463 61.6631 249.463 64.9811V89.0116C249.463 92.3295 246.773 95.0192 243.455 95.0192H170.023C166.705 95.0192 164.016 92.3295 164.016 89.0116V64.9811Z" fill="#F2F5FF"/>
<mask id="mask1_7525_253022" style="mask-type:alpha" maskUnits="userSpaceOnUse" x="181" y="67" width="19" height="20">
<rect x="181.727" y="67.9852" width="18.0229" height="18.0229" fill="#D9D9D9"/>
</mask>
<g mask="url(#mask1_7525_253022)">
<path d="M189.054 80.0294L193.776 76.9967L189.054 73.964V80.0294ZM190.745 84.1308C189.758 84.1308 188.831 83.9435 187.962 83.5691C187.094 83.1946 186.339 82.6864 185.697 82.0444C185.054 81.4025 184.546 80.6476 184.171 79.7798C183.797 78.9119 183.609 77.9847 183.609 76.998C183.609 76.0113 183.797 75.0838 184.171 74.2156C184.546 73.3474 185.054 72.5922 185.696 71.9499C186.338 71.3077 187.093 70.7993 187.96 70.4246C188.828 70.05 189.755 69.8627 190.742 69.8627C191.729 69.8627 192.656 70.0499 193.525 70.4244C194.393 70.7989 195.148 71.3071 195.79 71.949C196.432 72.591 196.941 73.3459 197.316 74.2137C197.69 75.0815 197.877 76.0088 197.877 76.9955C197.877 77.9822 197.69 78.9096 197.316 79.7778C196.941 80.646 196.433 81.4013 195.791 82.0435C195.149 82.6857 194.394 83.1942 193.526 83.5688C192.659 83.9434 191.731 84.1308 190.745 84.1308ZM190.743 83.0044C192.421 83.0044 193.841 82.4224 195.005 81.2584C196.169 80.0944 196.751 78.6739 196.751 76.9967C196.751 75.3196 196.169 73.899 195.005 72.7351C193.841 71.5711 192.421 70.9891 190.743 70.9891C189.066 70.9891 187.646 71.5711 186.482 72.7351C185.318 73.899 184.736 75.3196 184.736 76.9967C184.736 78.6739 185.318 80.0944 186.482 81.2584C187.646 82.4224 189.066 83.0044 190.743 83.0044Z" fill="#3B4CA3"/>
</g>
<path d="M208.416 74.6047C208.374 74.2178 208.196 73.9177 207.883 73.7044C207.573 73.4882 207.176 73.3801 206.693 73.3801C206.348 73.3801 206.051 73.4327 205.801 73.538C205.553 73.6432 205.361 73.7883 205.225 73.9732C205.091 74.1553 205.024 74.3629 205.024 74.5962C205.021 74.7896 205.065 74.9574 205.156 75.0996C205.25 75.2419 205.373 75.3613 205.523 75.458C205.677 75.5548 205.843 75.6358 206.023 75.7013C206.205 75.7638 206.384 75.8165 206.56 75.8591L207.397 76.0725C207.701 76.1464 208.002 76.246 208.301 76.3711C208.6 76.4935 208.871 76.6527 209.116 76.849C209.364 77.0424 209.561 77.28 209.709 77.5616C209.86 77.8432 209.935 78.1774 209.935 78.5643C209.935 79.0649 209.806 79.5087 209.547 79.8955C209.291 80.2824 208.918 80.5853 208.429 80.8043C207.943 81.0234 207.352 81.1329 206.658 81.1329C205.993 81.1329 205.415 81.029 204.926 80.8214C204.437 80.6137 204.054 80.3137 203.778 79.9211C203.505 79.5257 203.356 79.0507 203.33 78.496H204.772C204.795 78.8089 204.892 79.0677 205.063 79.2726C205.236 79.4774 205.461 79.631 205.737 79.7334C206.013 79.8329 206.317 79.8827 206.65 79.8827C207.008 79.8827 207.325 79.8272 207.601 79.7163C207.877 79.6025 208.093 79.4461 208.25 79.247C208.409 79.0478 208.49 78.816 208.493 78.5515C208.49 78.3068 208.419 78.1063 208.28 77.9499C208.143 77.7906 207.953 77.6597 207.708 77.5573C207.466 77.4521 207.19 77.3596 206.88 77.28L205.865 77.0069C205.154 76.8192 204.592 76.539 204.179 76.1663C203.767 75.7937 203.562 75.2988 203.565 74.6815C203.562 74.1723 203.699 73.7272 203.975 73.346C204.253 72.9648 204.63 72.669 205.105 72.4585C205.58 72.2452 206.116 72.1385 206.714 72.1385C207.32 72.1385 207.853 72.2452 208.314 72.4585C208.775 72.669 209.137 72.9606 209.402 73.3332C209.666 73.703 209.804 74.1268 209.816 74.6047H208.416ZM214.511 74.4426V75.5519H210.838V74.4426H214.511ZM211.781 72.8724H213.193V79.0507C213.193 79.2754 213.227 79.4475 213.295 79.567C213.364 79.6836 213.453 79.7632 213.564 79.8059C213.678 79.8457 213.802 79.8656 213.935 79.8656C214.035 79.8656 214.123 79.8585 214.2 79.8443C214.28 79.8301 214.341 79.8187 214.383 79.8102L214.631 80.9409C214.551 80.9665 214.439 80.9949 214.294 81.0262C214.149 81.0603 213.971 81.0803 213.76 81.0859C213.399 81.0945 213.068 81.0347 212.766 80.9067C212.468 80.7787 212.227 80.581 212.045 80.3137C211.866 80.0463 211.778 79.7106 211.781 79.3067V72.8724ZM217.757 81.1329C217.342 81.1329 216.968 81.0575 216.635 80.9067C216.302 80.756 216.038 80.5341 215.842 80.2411C215.648 79.9453 215.551 79.5826 215.551 79.1531C215.551 78.7805 215.621 78.4747 215.76 78.2357C215.903 77.9939 216.093 77.8019 216.332 77.6597C216.571 77.5175 216.839 77.4108 217.134 77.3397C217.433 77.2657 217.74 77.2117 218.056 77.1776C218.443 77.1321 218.757 77.0936 218.999 77.0624C219.241 77.0311 219.417 76.9813 219.528 76.913C219.639 76.8448 219.694 76.7352 219.694 76.5845V76.5546C219.694 76.2104 219.593 75.943 219.392 75.7525C219.192 75.5619 218.901 75.4666 218.517 75.4666C218.113 75.4666 217.794 75.5548 217.561 75.7311C217.328 75.9075 217.167 76.1094 217.079 76.337L215.76 76.0981C215.889 75.6998 216.086 75.3727 216.354 75.1167C216.621 74.8579 216.938 74.6673 217.305 74.545C217.675 74.4198 218.073 74.3572 218.5 74.3572C218.79 74.3572 219.086 74.3914 219.387 74.4596C219.692 74.5279 219.973 74.6445 220.232 74.8095C220.491 74.9745 220.7 75.2049 220.859 75.5007C221.021 75.7965 221.103 76.172 221.103 76.6271V80.9963H219.737V80.1003H219.686C219.601 80.271 219.474 80.436 219.306 80.5953C219.138 80.7546 218.926 80.884 218.67 80.9835C218.414 81.0831 218.11 81.1329 217.757 81.1329ZM218.094 80.0576C218.427 80.0576 218.713 79.9922 218.952 79.8614C219.191 79.7277 219.374 79.5542 219.502 79.3408C219.633 79.1246 219.699 78.8914 219.699 78.6411V77.8304C219.65 77.873 219.565 77.9129 219.443 77.9499C219.32 77.984 219.182 78.0153 219.029 78.0437C218.875 78.0693 218.724 78.0921 218.577 78.112C218.429 78.1319 218.302 78.149 218.197 78.1632C217.961 78.1973 217.746 78.2499 217.553 78.3211C217.359 78.3922 217.206 78.4946 217.092 78.6283C216.978 78.7591 216.921 78.9312 216.921 79.1446C216.921 79.4461 217.032 79.6736 217.254 79.8272C217.476 79.9808 217.756 80.0576 218.094 80.0576ZM222.735 80.9963V74.4426H224.104V75.5092H224.172C224.292 75.1452 224.5 74.8607 224.795 74.6559C225.094 74.4482 225.433 74.3444 225.811 74.3444C225.893 74.3444 225.989 74.3487 226.097 74.3572C226.205 74.3629 226.293 74.3714 226.361 74.3828V75.7055C226.302 75.6856 226.203 75.6671 226.067 75.6501C225.933 75.6301 225.801 75.6202 225.67 75.6202C225.377 75.6202 225.115 75.6828 224.885 75.8079C224.657 75.9302 224.477 76.1009 224.343 76.3199C224.212 76.5361 224.147 76.7864 224.147 77.0709V80.9963H222.735ZM230.974 74.4426V75.5519H227.3V74.4426H230.974ZM228.243 72.8724H229.655V79.0507C229.655 79.2754 229.689 79.4475 229.758 79.567C229.826 79.6836 229.916 79.7632 230.026 79.8059C230.14 79.8457 230.264 79.8656 230.398 79.8656C230.497 79.8656 230.585 79.8585 230.662 79.8443C230.742 79.8301 230.803 79.8187 230.846 79.8102L231.093 80.9409C231.014 80.9665 230.901 80.9949 230.756 81.0262C230.611 81.0603 230.433 81.0803 230.223 81.0859C229.862 81.0945 229.53 81.0347 229.229 80.9067C228.93 80.7787 228.69 80.581 228.508 80.3137C228.328 80.0463 228.24 79.7106 228.243 79.3067V72.8724Z" fill="#3B4CA3"/>
<line x1="6.47656" y1="103.655" x2="255.47" y2="103.655" stroke="#D5DFFD" stroke-width="0.750954"/>
<path d="M6.47656 107.035C6.47656 105.376 7.82142 104.031 9.48038 104.031H252.466C254.125 104.031 255.47 105.376 255.47 107.035V136.054C255.47 137.713 254.125 139.057 252.466 139.057H9.48038C7.82142 139.057 6.47656 137.713 6.47656 136.054L6.47656 107.035Z" fill="#FEFEFE"/>
<mask id="mask2_7525_253022" style="mask-type:alpha" maskUnits="userSpaceOnUse" x="18" y="112" width="19" height="19">
<rect x="18.4922" y="112.533" width="18.0229" height="18.0229" fill="#D9D9D9"/>
</mask>
<g mask="url(#mask2_7525_253022)">
<path d="M22.4747 126.801H29.0022V123.046H32.757V116.519C32.757 116.451 32.7353 116.396 32.692 116.352C32.6486 116.309 32.5933 116.287 32.5259 116.287L22.4747 116.287C22.4073 116.287 22.3519 116.309 22.3086 116.352C22.2653 116.396 22.2436 116.451 22.2436 116.519V126.57C22.2436 126.637 22.2653 126.692 22.3086 126.736C22.3519 126.779 22.4073 126.801 22.4747 126.801ZM22.4747 127.927C22.1002 127.927 21.7803 127.795 21.5151 127.529C21.2498 127.264 21.1172 126.944 21.1172 126.57V116.519C21.1172 116.144 21.2498 115.824 21.5151 115.559C21.7803 115.294 22.1002 115.161 22.4747 115.161H32.5259C32.9004 115.161 33.2203 115.294 33.4855 115.559C33.7508 115.824 33.8834 116.144 33.8834 116.519V123.53L29.486 127.927H22.4747ZM24.0777 122.844V121.717H27.5003V122.844H24.0777ZM24.0777 119.854V118.728H30.9229V119.854H24.0777Z" fill="#222222"/>
</g>
<path d="M49.5681 125.544V116.806H52.5548C53.2375 116.806 53.7979 116.922 54.2359 117.156C54.6768 117.386 55.004 117.705 55.2173 118.111C55.4306 118.515 55.5373 118.977 55.5373 119.498C55.5373 120.016 55.4306 120.475 55.2173 120.876C55.004 121.274 54.6783 121.587 54.2402 121.815C53.8022 122.04 53.2446 122.152 52.5676 122.152H50.1825V121.162H52.5164C52.9744 121.162 53.3442 121.095 53.6258 120.962C53.9102 120.828 54.1165 120.637 54.2445 120.39C54.3725 120.139 54.4365 119.842 54.4365 119.498C54.4365 119.151 54.3711 118.849 54.2402 118.593C54.1122 118.335 53.906 118.136 53.6215 117.996C53.3371 117.854 52.963 117.783 52.4994 117.783H50.6817V125.544H49.5681ZM53.7239 121.614L55.8744 125.544H54.5901L52.4738 121.614H53.7239ZM59.8318 125.681C59.1975 125.681 58.6499 125.541 58.1891 125.262C57.7312 124.981 57.3784 124.588 57.131 124.085C56.8863 123.579 56.764 122.99 56.764 122.318C56.764 121.647 56.8863 121.055 57.131 120.543C57.3784 120.029 57.724 119.627 58.1678 119.34C58.6144 119.05 59.1349 118.905 59.7294 118.905C60.0765 118.905 60.4178 118.963 60.7535 119.08C61.0891 119.194 61.3935 119.379 61.6666 119.635C61.9425 119.891 62.1601 120.228 62.3194 120.646C62.4815 121.064 62.5626 121.577 62.5626 122.186V122.617H57.4808V121.73H61.4959C61.4959 121.365 61.4233 121.043 61.2783 120.761C61.1332 120.477 60.9284 120.252 60.6639 120.087C60.3993 119.922 60.0893 119.839 59.7337 119.839C59.3412 119.839 59.0012 119.936 58.7139 120.13C58.4266 120.323 58.2062 120.575 58.0526 120.885C57.899 121.192 57.8222 121.522 57.8222 121.875V122.489C57.8222 122.973 57.9061 123.382 58.0739 123.718C58.2446 124.054 58.4807 124.31 58.7822 124.486C59.0837 124.659 59.4336 124.746 59.8318 124.746C60.0935 124.746 60.3296 124.709 60.5401 124.635C60.7506 124.561 60.9327 124.449 61.0863 124.298C61.2427 124.147 61.3622 123.961 61.4447 123.739L62.4644 123.999C62.3649 124.335 62.1928 124.63 61.9482 124.883C61.7064 125.136 61.4049 125.332 61.0436 125.472C60.6852 125.611 60.2813 125.681 59.8318 125.681ZM64.072 128.002V118.99H65.1002V120.036H65.2155C65.2894 119.916 65.3932 119.768 65.5269 119.592C65.6606 119.413 65.8512 119.253 66.0987 119.114C66.349 118.975 66.6861 118.905 67.1099 118.905C67.6561 118.905 68.1382 119.043 68.5563 119.319C68.9773 119.592 69.3059 119.982 69.542 120.488C69.7781 120.991 69.8961 121.59 69.8961 122.284C69.8961 122.981 69.7781 123.583 69.542 124.089C69.3059 124.595 68.9788 124.988 68.5606 125.267C68.1453 125.543 67.666 125.681 67.1227 125.681C66.7074 125.681 66.3732 125.611 66.12 125.472C65.8668 125.332 65.6706 125.173 65.5312 124.994C65.3947 124.812 65.2894 124.658 65.2155 124.533H65.1344V128.002H64.072ZM65.113 122.267C65.113 122.756 65.1842 123.186 65.3264 123.556C65.4715 123.926 65.6805 124.216 65.9536 124.426C66.2267 124.634 66.5609 124.738 66.9563 124.738C67.3716 124.738 67.7172 124.628 67.9931 124.409C68.2719 124.19 68.481 123.894 68.6203 123.522C68.7626 123.146 68.8337 122.728 68.8337 122.267C68.8337 121.812 68.764 121.402 68.6246 121.038C68.4881 120.671 68.2804 120.381 68.0017 120.168C67.7229 119.952 67.3744 119.844 66.9563 119.844C66.5552 119.844 66.2181 119.946 65.9451 120.151C65.672 120.353 65.4643 120.636 65.3221 121C65.1827 121.361 65.113 121.784 65.113 122.267ZM74.0893 125.681C73.492 125.681 72.9686 125.54 72.5191 125.258C72.0725 124.977 71.7241 124.583 71.4738 124.076C71.2263 123.57 71.1026 122.978 71.1026 122.301C71.1026 121.619 71.2263 121.023 71.4738 120.514C71.7241 120.004 72.0725 119.609 72.5191 119.327C72.9686 119.046 73.492 118.905 74.0893 118.905C74.6838 118.905 75.2044 119.046 75.6509 119.327C76.1004 119.609 76.4503 120.004 76.7006 120.514C76.9509 121.023 77.0761 121.619 77.0761 122.301C77.0761 122.978 76.9509 123.57 76.7006 124.076C76.4503 124.583 76.1004 124.977 75.6509 125.258C75.2044 125.54 74.6838 125.681 74.0893 125.681ZM74.0893 124.742C74.5274 124.742 74.8886 124.63 75.1731 124.405C75.4575 124.177 75.668 123.879 75.8045 123.509C75.9411 123.136 76.0094 122.734 76.0094 122.301C76.0094 121.866 75.9411 121.462 75.8045 121.09C75.668 120.717 75.4575 120.417 75.1731 120.189C74.8886 119.959 74.5274 119.844 74.0893 119.844C73.6484 119.844 73.2857 119.959 73.0013 120.189C72.7168 120.417 72.5063 120.717 72.3698 121.09C72.2332 121.462 72.165 121.866 72.165 122.301C72.165 122.734 72.2332 123.136 72.3698 123.509C72.5063 123.879 72.7168 124.177 73.0013 124.405C73.2857 124.63 73.6484 124.742 74.0893 124.742ZM78.5865 125.544V118.99H79.6105V119.989H79.6788C79.7983 119.659 80.013 119.393 80.3231 119.191C80.636 118.989 80.9873 118.888 81.377 118.888C81.4538 118.888 81.5462 118.891 81.6543 118.896C81.7652 118.899 81.8506 118.904 81.9103 118.909V119.972C81.8733 119.963 81.7923 119.95 81.6671 119.933C81.5448 119.913 81.4168 119.903 81.2831 119.903C80.9702 119.903 80.69 119.969 80.4425 120.1C80.1979 120.23 80.0045 120.411 79.8623 120.642C79.72 120.872 79.6489 121.134 79.6489 121.427V125.544H78.5865ZM86.3958 118.99V119.878H82.961V118.99H86.3958ZM83.9466 117.42H85.0048V123.658C85.0048 123.934 85.0461 124.142 85.1285 124.281C85.211 124.418 85.3163 124.509 85.4443 124.554C85.5751 124.6 85.7131 124.622 85.8582 124.622C85.9691 124.622 86.0601 124.617 86.1312 124.605C86.2052 124.591 86.2635 124.58 86.3062 124.571L86.5152 125.506C86.4441 125.531 86.346 125.558 86.2208 125.587C86.0957 125.615 85.9378 125.629 85.7472 125.629C85.4542 125.629 85.1698 125.568 84.8939 125.446C84.618 125.324 84.3904 125.136 84.2112 124.883C84.0348 124.63 83.9466 124.311 83.9466 123.927V117.42Z" fill="#222222"/>
<path d="M201.438 121.544C201.438 116.019 205.916 111.54 211.441 111.54H239.457C244.982 111.54 249.46 116.019 249.46 121.544C249.46 127.069 244.982 131.548 239.457 131.548H211.441C205.916 131.548 201.438 127.069 201.438 121.544Z" fill="#F2F5FF"/>
<path d="M211.452 125.544V124.674L214.054 122.008C214.325 121.725 214.549 121.476 214.726 121.262C214.905 121.045 215.039 120.839 215.126 120.642C215.215 120.445 215.26 120.236 215.26 120.015C215.26 119.763 215.202 119.547 215.085 119.365C214.968 119.181 214.807 119.039 214.603 118.94C214.399 118.84 214.169 118.79 213.912 118.79C213.643 118.79 213.408 118.845 213.207 118.955C213.008 119.064 212.853 119.22 212.744 119.421C212.634 119.623 212.579 119.859 212.579 120.131H211.437C211.437 119.66 211.544 119.251 211.758 118.902C211.975 118.551 212.271 118.279 212.647 118.085C213.025 117.891 213.454 117.793 213.935 117.793C214.422 117.793 214.852 117.889 215.223 118.081C215.594 118.27 215.882 118.529 216.089 118.857C216.298 119.186 216.402 119.557 216.402 119.97C216.402 120.256 216.349 120.536 216.242 120.81C216.137 121.081 215.953 121.384 215.689 121.717C215.426 122.048 215.057 122.452 214.584 122.927L213.106 124.465V124.521H216.526V125.544H211.452ZM217.599 124.066V123.099L220.892 117.898H221.665V119.309H221.179L218.853 122.994V123.054H223.382V124.066H217.599ZM221.228 125.544V123.771L221.239 123.334V117.898H222.374V125.544H221.228ZM225.424 124.603C225.215 124.603 225.036 124.529 224.887 124.379C224.737 124.23 224.663 124.051 224.663 123.842C224.663 123.633 224.737 123.455 224.887 123.308C225.036 123.158 225.215 123.084 225.424 123.084C225.631 123.084 225.809 123.158 225.958 123.308C226.11 123.455 226.186 123.633 226.186 123.842C226.186 123.981 226.151 124.108 226.081 124.222C226.012 124.337 225.92 124.429 225.805 124.499C225.691 124.568 225.564 124.603 225.424 124.603ZM225.424 120.78C225.215 120.78 225.036 120.706 224.887 120.556C224.737 120.407 224.663 120.228 224.663 120.019C224.663 119.809 224.737 119.632 224.887 119.485C225.036 119.335 225.215 119.261 225.424 119.261C225.631 119.261 225.809 119.335 225.958 119.485C226.11 119.632 226.186 119.809 226.186 120.019C226.186 120.158 226.151 120.286 226.081 120.403C226.012 120.518 225.92 120.61 225.805 120.679C225.691 120.747 225.564 120.78 225.424 120.78ZM230.193 125.649C229.72 125.649 229.296 125.558 228.92 125.376C228.544 125.194 228.244 124.944 228.02 124.626C227.796 124.307 227.677 123.942 227.662 123.532H228.826C228.854 123.858 228.997 124.125 229.256 124.334C229.517 124.543 229.829 124.648 230.193 124.648C230.482 124.648 230.738 124.582 230.962 124.45C231.188 124.316 231.366 124.13 231.496 123.894C231.625 123.657 231.689 123.389 231.686 123.087C231.689 122.781 231.623 122.509 231.488 122.27C231.356 122.031 231.175 121.843 230.943 121.706C230.712 121.567 230.447 121.497 230.148 121.497C229.917 121.495 229.685 121.534 229.454 121.616C229.222 121.696 229.035 121.802 228.894 121.934L227.8 121.77L228.222 117.898H232.474V118.921H229.218L228.979 121.038H229.024C229.174 120.888 229.373 120.764 229.622 120.664C229.873 120.565 230.142 120.515 230.428 120.515C230.893 120.515 231.308 120.626 231.671 120.847C232.037 121.066 232.325 121.368 232.534 121.751C232.745 122.132 232.85 122.57 232.847 123.065C232.85 123.563 232.738 124.007 232.511 124.398C232.285 124.786 231.971 125.092 231.57 125.316C231.17 125.538 230.711 125.649 230.193 125.649ZM236.878 125.649C236.533 125.644 236.193 125.581 235.859 125.462C235.526 125.34 235.223 125.14 234.952 124.861C234.681 124.58 234.464 124.204 234.302 123.733C234.143 123.26 234.063 122.673 234.063 121.971C234.063 121.307 234.131 120.717 234.265 120.202C234.399 119.684 234.594 119.247 234.848 118.891C235.101 118.533 235.408 118.26 235.766 118.073C236.124 117.887 236.526 117.793 236.972 117.793C237.432 117.793 237.84 117.884 238.196 118.066C238.555 118.248 238.845 118.498 239.066 118.816C239.29 119.132 239.431 119.493 239.488 119.899H238.305C238.228 119.585 238.076 119.33 237.849 119.134C237.625 118.937 237.333 118.839 236.972 118.839C236.417 118.839 235.986 119.08 235.68 119.563C235.374 120.046 235.22 120.715 235.217 121.572H235.273C235.403 121.355 235.563 121.17 235.755 121.015C235.949 120.861 236.167 120.742 236.408 120.657C236.65 120.572 236.903 120.53 237.17 120.53C237.615 120.53 238.017 120.638 238.376 120.855C238.737 121.069 239.023 121.365 239.234 121.743C239.448 122.122 239.555 122.554 239.555 123.039C239.555 123.532 239.443 123.976 239.219 124.372C238.998 124.767 238.685 125.081 238.282 125.313C237.882 125.542 237.414 125.654 236.878 125.649ZM236.875 124.648C237.163 124.648 237.421 124.577 237.648 124.435C237.877 124.293 238.057 124.103 238.189 123.864C238.323 123.623 238.391 123.354 238.391 123.058C238.391 122.766 238.326 122.503 238.196 122.266C238.067 122.03 237.89 121.842 237.666 121.702C237.442 121.563 237.186 121.493 236.897 121.493C236.681 121.493 236.479 121.536 236.292 121.62C236.108 121.702 235.946 121.817 235.807 121.964C235.668 122.111 235.558 122.279 235.478 122.468C235.401 122.657 235.361 122.857 235.359 123.069C235.361 123.35 235.427 123.611 235.557 123.853C235.689 124.092 235.868 124.285 236.094 124.431C236.323 124.576 236.584 124.648 236.875 124.648Z" fill="#3B4CA3"/>
<line x1="6.47656" y1="138.682" x2="255.47" y2="138.682" stroke="#D5DFFD" stroke-width="0.750954"/>
<path d="M6.47656 142.061C6.47656 140.402 7.82142 139.057 9.48038 139.057H252.466C254.125 139.057 255.47 140.402 255.47 142.061V169.096C255.47 170.755 254.125 172.099 252.466 172.099H9.48038C7.82142 172.099 6.47656 170.755 6.47656 169.096L6.47656 142.061Z" fill="#FEFEFE"/>
<mask id="mask3_7525_253022" style="mask-type:alpha" maskUnits="userSpaceOnUse" x="18" y="146" width="19" height="19">
<rect x="18.4922" y="146.567" width="18.0229" height="18.0229" fill="#D9D9D9"/>
</mask>
<g mask="url(#mask3_7525_253022)">
<path d="M20.7517 159.897C20.3868 159.897 20.0765 159.769 19.8209 159.514C19.5653 159.258 19.4375 158.948 19.4375 158.583C19.4375 158.218 19.5653 157.908 19.8209 157.652C20.0765 157.397 20.3868 157.269 20.7517 157.269C20.8364 157.269 20.9129 157.272 20.9813 157.28C21.0497 157.287 21.1175 157.31 21.1849 157.35L24.7751 153.759C24.7356 153.692 24.7123 153.624 24.705 153.556C24.6978 153.487 24.6942 153.411 24.6942 153.326C24.6942 152.961 24.822 152.651 25.0776 152.395C25.3332 152.14 25.6435 152.012 26.0084 152.012C26.3732 152.012 26.6835 152.14 26.9391 152.395C27.1947 152.651 27.3225 152.961 27.3225 153.326C27.3225 153.37 27.3004 153.51 27.2561 153.745L29.3443 155.833C29.4117 155.803 29.4772 155.785 29.5407 155.778C29.6043 155.77 29.6784 155.767 29.7631 155.767C29.8478 155.767 29.9232 155.77 29.9891 155.778C30.0551 155.785 30.1194 155.808 30.1819 155.848L33.0356 152.994C32.9961 152.931 32.9728 152.867 32.9655 152.801C32.9583 152.735 32.9547 152.66 32.9547 152.575C32.9547 152.21 33.0825 151.9 33.3381 151.644C33.5937 151.389 33.904 151.261 34.2688 151.261C34.6337 151.261 34.944 151.389 35.1996 151.644C35.4552 151.9 35.583 152.21 35.583 152.575C35.583 152.94 35.4552 153.25 35.1996 153.506C34.944 153.762 34.6337 153.889 34.2688 153.889C34.1841 153.889 34.1088 153.886 34.0428 153.879C33.9769 153.871 33.9126 153.848 33.85 153.809L30.9964 156.662C31.0359 156.725 31.0592 156.789 31.0664 156.855C31.0737 156.921 31.0773 156.996 31.0773 157.081C31.0773 157.446 30.9495 157.756 30.6939 158.012C30.4383 158.267 30.128 158.395 29.7631 158.395C29.3982 158.395 29.088 158.267 28.8324 158.012C28.5768 157.756 28.449 157.446 28.449 157.081C28.449 156.996 28.4526 156.92 28.4598 156.851C28.467 156.783 28.4904 156.715 28.5299 156.648L26.4416 154.559C26.3742 154.599 26.3063 154.622 26.238 154.63C26.1696 154.637 26.0931 154.64 26.0084 154.64C25.9641 154.64 25.8245 154.618 25.5895 154.574L21.9994 158.164C22.0292 158.231 22.0478 158.297 22.055 158.36C22.0622 158.424 22.0658 158.498 22.0658 158.583C22.0658 158.948 21.938 159.258 21.6824 159.514C21.4268 159.769 21.1166 159.897 20.7517 159.897Z" fill="#222222"/>
</g>
<path d="M54.3469 153.046C54.2957 152.619 54.0909 152.288 53.7325 152.052C53.3769 151.816 52.9374 151.698 52.414 151.698C52.0329 151.698 51.7001 151.76 51.4156 151.885C51.134 152.008 50.9135 152.176 50.7542 152.389C50.5978 152.602 50.5196 152.845 50.5196 153.118C50.5196 153.346 50.5736 153.542 50.6817 153.707C50.7926 153.869 50.9349 154.005 51.1084 154.113C51.2819 154.221 51.464 154.309 51.6545 154.377C51.848 154.445 52.0257 154.501 52.1879 154.544L53.0711 154.783C53.3072 154.842 53.5661 154.926 53.8477 155.034C54.1321 155.142 54.4023 155.287 54.6584 155.469C54.9144 155.652 55.1249 155.883 55.2898 156.165C55.4548 156.447 55.5373 156.791 55.5373 157.198C55.5373 157.675 55.4136 158.105 55.1661 158.486C54.9186 158.867 54.5588 159.17 54.0866 159.395C53.6144 159.62 53.0412 159.732 52.3671 159.732C51.7356 159.732 51.1895 159.631 50.7286 159.429C50.2678 159.224 49.9052 158.94 49.6406 158.576C49.3789 158.209 49.2324 157.781 49.2011 157.291H50.3404C50.366 157.619 50.4741 157.89 50.6646 158.106C50.8581 158.32 51.1027 158.478 51.3985 158.58C51.6972 158.682 52.0186 158.734 52.3628 158.734C52.7611 158.734 53.118 158.67 53.4338 158.542C53.7495 158.411 53.9984 158.23 54.1805 158C54.3654 157.766 54.4578 157.493 54.4578 157.18C54.4578 156.896 54.3782 156.666 54.2189 156.489C54.0596 156.31 53.8491 156.165 53.5874 156.054C53.3285 155.94 53.0441 155.841 52.734 155.755L51.6673 155.452C50.9818 155.256 50.4385 154.976 50.0374 154.612C49.6392 154.248 49.4401 153.768 49.4401 153.174C49.4401 152.682 49.5738 152.252 49.8412 151.885C50.1085 151.518 50.4684 151.233 50.9207 151.028C51.3758 150.823 51.8849 150.721 52.4482 150.721C53.0171 150.721 53.522 150.822 53.9629 151.024C54.4038 151.225 54.7536 151.501 55.0125 151.851C55.2714 152.201 55.4065 152.599 55.4178 153.046H54.3469ZM59.8788 159.715C59.2444 159.715 58.6969 159.576 58.2361 159.297C57.7781 159.015 57.4254 158.623 57.1779 158.119C56.9333 157.613 56.8109 157.024 56.8109 156.353C56.8109 155.681 56.9333 155.09 57.1779 154.578C57.4254 154.063 57.771 153.662 58.2147 153.375C58.6613 153.084 59.1819 152.939 59.7764 152.939C60.1234 152.939 60.4647 152.998 60.8004 153.114C61.136 153.228 61.4404 153.413 61.7135 153.669C61.9894 153.925 62.207 154.262 62.3663 154.68C62.5284 155.098 62.6095 155.612 62.6095 156.22V156.651H57.5278V155.764H61.5428C61.5428 155.4 61.4703 155.077 61.3252 154.795C61.1801 154.511 60.9753 154.286 60.7108 154.121C60.4463 153.956 60.1362 153.874 59.7806 153.874C59.3881 153.874 59.0482 153.97 58.7609 154.164C58.4736 154.357 58.2531 154.609 58.0995 154.919C57.9459 155.226 57.8691 155.556 57.8691 155.909V156.523C57.8691 157.007 57.953 157.417 58.1209 157.752C58.2915 158.088 58.5276 158.344 58.8291 158.52C59.1307 158.694 59.4805 158.781 59.8788 158.781C60.1405 158.781 60.3766 158.744 60.5871 158.67C60.7975 158.596 60.9796 158.483 61.1332 158.333C61.2897 158.182 61.4091 157.995 61.4916 157.774L62.5114 158.034C62.4118 158.369 62.2397 158.664 61.9951 158.917C61.7533 159.17 61.4518 159.366 61.0905 159.506C60.7321 159.645 60.3282 159.715 59.8788 159.715ZM64.1189 159.578V153.025H65.1429V154.023H65.2112C65.3307 153.693 65.5454 153.427 65.8555 153.225C66.1684 153.023 66.5197 152.922 66.9094 152.922C66.9862 152.922 67.0786 152.925 67.1867 152.931C67.2976 152.934 67.383 152.938 67.4427 152.944V154.006C67.4057 153.997 67.3247 153.985 67.1995 153.968C67.0772 153.948 66.9492 153.938 66.8155 153.938C66.5026 153.938 66.2224 154.003 65.9749 154.134C65.7303 154.265 65.5369 154.445 65.3947 154.676C65.2524 154.906 65.1813 155.168 65.1813 155.461V159.578H64.1189ZM74.2344 153.025L71.8194 159.578H70.7271L68.3121 153.025H69.4598L71.2391 158.213H71.3074L73.0866 153.025H74.2344ZM75.5357 159.578V153.025H76.5982V159.578H75.5357ZM76.0734 151.949C75.8714 151.949 75.6979 151.881 75.5528 151.745C75.4106 151.608 75.3395 151.443 75.3395 151.25C75.3395 151.059 75.4106 150.896 75.5528 150.759C75.6979 150.62 75.8714 150.55 76.0734 150.55C76.2753 150.55 76.4474 150.62 76.5896 150.759C76.7347 150.896 76.8072 151.059 76.8072 151.25C76.8072 151.443 76.7347 151.608 76.5896 151.745C76.4474 151.881 76.2753 151.949 76.0734 151.949ZM81.0943 159.715C80.4742 159.715 79.9408 159.57 79.4943 159.28C79.0477 158.99 78.7049 158.59 78.466 158.081C78.227 157.572 78.1075 156.99 78.1075 156.336C78.1075 155.67 78.2299 155.083 78.4745 154.573C78.722 154.061 79.0676 153.662 79.5113 153.375C79.9579 153.084 80.4799 152.939 81.0772 152.939C81.5437 152.939 81.9633 153.026 82.3359 153.2C82.7114 153.373 83.0172 153.616 83.2533 153.929C83.4922 154.239 83.6387 154.602 83.6928 155.017H82.6389C82.5649 154.719 82.3971 154.454 82.1354 154.224C81.8765 153.993 81.5295 153.878 81.0943 153.878C80.7103 153.878 80.3732 153.979 80.0831 154.181C79.7958 154.38 79.5711 154.662 79.4089 155.026C79.2496 155.387 79.17 155.812 79.17 156.302C79.17 156.802 79.2482 157.237 79.4047 157.607C79.5639 157.977 79.7872 158.264 80.0745 158.469C80.3647 158.674 80.7046 158.776 81.0943 158.776C81.3531 158.776 81.5864 158.731 81.7941 158.64C82.0045 158.549 82.1823 158.418 82.3274 158.247C82.4753 158.077 82.5791 157.872 82.6389 157.633H83.6928C83.6387 158.028 83.4993 158.382 83.2746 158.695C83.0499 159.008 82.7527 159.257 82.3829 159.442C82.0131 159.624 81.5836 159.715 81.0943 159.715ZM87.8988 159.715C87.2644 159.715 86.7169 159.576 86.256 159.297C85.7981 159.015 85.4454 158.623 85.1979 158.119C84.9532 157.613 84.8309 157.024 84.8309 156.353C84.8309 155.681 84.9532 155.09 85.1979 154.578C85.4454 154.063 85.791 153.662 86.2347 153.375C86.6813 153.084 87.2018 152.939 87.7964 152.939C88.1434 152.939 88.4847 152.998 88.8204 153.114C89.156 153.228 89.4604 153.413 89.7335 153.669C90.0094 153.925 90.227 154.262 90.3863 154.68C90.5484 155.098 90.6295 155.612 90.6295 156.22V156.651H85.5478V155.764H89.5628C89.5628 155.4 89.4903 155.077 89.3452 154.795C89.2001 154.511 88.9953 154.286 88.7308 154.121C88.4662 153.956 88.1562 153.874 87.8006 153.874C87.4081 153.874 87.0682 153.97 86.7809 154.164C86.4936 154.357 86.2731 154.609 86.1195 154.919C85.9659 155.226 85.8891 155.556 85.8891 155.909V156.523C85.8891 157.007 85.973 157.417 86.1408 157.752C86.3115 158.088 86.5476 158.344 86.8491 158.52C87.1506 158.694 87.5005 158.781 87.8988 158.781C88.1604 158.781 88.3965 158.744 88.607 158.67C88.8175 158.596 88.9996 158.483 89.1532 158.333C89.3096 158.182 89.4291 157.995 89.5116 157.774L90.5314 158.034C90.4318 158.369 90.2597 158.664 90.0151 158.917C89.7733 159.17 89.4718 159.366 89.1105 159.506C88.7521 159.645 88.3482 159.715 87.8988 159.715ZM96.1614 162.036C95.9879 162.036 95.8314 162.022 95.692 161.993C95.5555 161.968 95.4588 161.941 95.4019 161.912L95.6664 160.995C95.9111 161.058 96.1258 161.08 96.3107 161.063C96.4985 161.049 96.6649 160.969 96.8099 160.824C96.955 160.679 97.0873 160.445 97.2067 160.12L97.3902 159.621L94.971 153.025H96.1187L97.898 158.222H97.9662L99.7455 153.025H100.893L98.1241 160.517C97.9989 160.856 97.8425 161.137 97.6548 161.362C97.4699 161.589 97.2537 161.759 97.0062 161.87C96.7587 161.981 96.4771 162.036 96.1614 162.036ZM104.725 159.715C104.09 159.715 103.543 159.576 103.082 159.297C102.624 159.015 102.271 158.623 102.024 158.119C101.779 157.613 101.657 157.024 101.657 156.353C101.657 155.681 101.779 155.09 102.024 154.578C102.271 154.063 102.617 153.662 103.061 153.375C103.507 153.084 104.028 152.939 104.622 152.939C104.969 152.939 105.311 152.998 105.646 153.114C105.982 153.228 106.286 153.413 106.56 153.669C106.835 153.925 107.053 154.262 107.212 154.68C107.374 155.098 107.456 155.612 107.456 156.22V156.651H102.374V155.764H106.389C106.389 155.4 106.316 155.077 106.171 154.795C106.026 154.511 105.821 154.286 105.557 154.121C105.292 153.956 104.982 153.874 104.627 153.874C104.234 153.874 103.894 153.97 103.607 154.164C103.32 154.357 103.099 154.609 102.946 154.919C102.792 155.226 102.715 155.556 102.715 155.909V156.523C102.715 157.007 102.799 157.417 102.967 157.752C103.138 158.088 103.374 158.344 103.675 158.52C103.977 158.694 104.327 158.781 104.725 158.781C104.987 158.781 105.223 158.744 105.433 158.67C105.644 158.596 105.826 158.483 105.979 158.333C106.136 158.182 106.255 157.995 106.338 157.774L107.357 158.034C107.258 158.369 107.086 158.664 106.841 158.917C106.599 159.17 106.298 159.366 105.937 159.506C105.578 159.645 105.174 159.715 104.725 159.715ZM110.889 159.732C110.474 159.732 110.097 159.654 109.759 159.497C109.42 159.338 109.151 159.109 108.952 158.81C108.756 158.512 108.658 158.148 108.658 157.718C108.658 157.345 108.73 157.041 108.875 156.805C109.023 156.569 109.22 156.384 109.464 156.25C109.712 156.114 109.985 156.013 110.283 155.947C110.585 155.879 110.889 155.825 111.196 155.785C111.592 155.734 111.913 155.696 112.161 155.67C112.411 155.642 112.593 155.595 112.707 155.529C112.821 155.464 112.878 155.35 112.878 155.188V155.154C112.878 154.744 112.765 154.426 112.541 154.198C112.316 153.97 111.976 153.857 111.521 153.857C111.051 153.857 110.683 153.96 110.416 154.168C110.148 154.373 109.961 154.593 109.852 154.829L108.85 154.501C109.015 154.103 109.238 153.79 109.52 153.562C109.804 153.335 110.118 153.174 110.463 153.08C110.807 152.986 111.15 152.939 111.491 152.939C111.713 152.939 111.963 152.966 112.242 153.02C112.521 153.072 112.788 153.175 113.044 153.332C113.303 153.485 113.516 153.716 113.684 154.023C113.855 154.33 113.94 154.74 113.94 155.252V159.578H112.886V158.691H112.835C112.764 158.836 112.647 158.99 112.485 159.152C112.326 159.314 112.114 159.452 111.849 159.566C111.588 159.677 111.268 159.732 110.889 159.732ZM111.068 158.802C111.458 158.802 111.787 158.725 112.054 158.571C112.324 158.418 112.529 158.22 112.669 157.978C112.808 157.734 112.878 157.476 112.878 157.206V156.302C112.835 156.353 112.742 156.398 112.6 156.438C112.461 156.478 112.3 156.513 112.118 156.545C111.936 156.573 111.76 156.599 111.589 156.622C111.418 156.641 111.279 156.659 111.171 156.673C110.912 156.707 110.672 156.761 110.45 156.835C110.228 156.909 110.049 157.02 109.912 157.168C109.778 157.316 109.712 157.515 109.712 157.765C109.712 158.106 109.84 158.365 110.096 158.542C110.352 158.715 110.676 158.802 111.068 158.802ZM115.759 159.578V153.025H116.783V154.023H116.851C116.971 153.693 117.185 153.427 117.495 153.225C117.808 153.023 118.16 152.922 118.549 152.922C118.626 152.922 118.718 152.925 118.827 152.931C118.937 152.934 119.023 152.938 119.083 152.944V154.006C119.046 153.997 118.965 153.985 118.839 153.968C118.717 153.948 118.589 153.938 118.455 153.938C118.142 153.938 117.862 154.003 117.615 154.134C117.37 154.265 117.177 154.445 117.035 154.676C116.892 154.906 116.821 155.168 116.821 155.461V159.578H115.759Z" fill="#222222"/>
<line x1="6.47656" y1="171.724" x2="255.47" y2="171.724" stroke="#D5DFFD" stroke-width="0.750954"/>
<line x1="6.47656" y1="171.724" x2="255.47" y2="171.724" stroke="#D5DFFD" stroke-width="0.750954"/>
<path d="M6.47656 175.103C6.47656 173.444 7.82142 172.099 9.48038 172.099H252.466C254.125 172.099 255.47 173.444 255.47 175.103V202.138C255.47 203.797 254.125 205.141 252.466 205.141H9.48038C7.82142 205.141 6.47656 203.797 6.47656 202.138L6.47656 175.103Z" fill="#FEFEFE"/>
<path fill-rule="evenodd" clip-rule="evenodd" d="M25.2112 179.924H31.5512L29.4561 195.704H28.7985L28.65 196.801C28.6019 197.098 28.3136 197.318 27.9737 197.318H24.1239C23.7125 197.318 23.3944 197 23.446 196.64L23.5443 195.671H23.0781L25.2112 179.924ZM24.4646 194.62H24.9349L24.7439 196.234H27.4997L27.7322 194.62H28.3661L30.1637 181.008H26.2986L24.4646 194.62Z" fill="#222222"/>
<path fill-rule="evenodd" clip-rule="evenodd" d="M28.2628 189.466L28.0309 191.098L26.8828 191.098L27.1301 189.466L28.2628 189.466Z" fill="#222222"/>
<path fill-rule="evenodd" clip-rule="evenodd" d="M28.6925 186.243L28.4606 187.875L27.3125 187.875L27.5598 186.243L28.6925 186.243Z" fill="#222222"/>
<path fill-rule="evenodd" clip-rule="evenodd" d="M27.7862 192.981L27.5543 194.613L26.4062 194.613L26.6535 192.981L27.7862 192.981Z" fill="#222222"/>
<path fill-rule="evenodd" clip-rule="evenodd" d="M26.7159 189.466L26.484 191.098L25.3359 191.098L25.5832 189.466L26.7159 189.466Z" fill="#222222"/>
<path fill-rule="evenodd" clip-rule="evenodd" d="M27.1378 186.243L26.9059 187.875L25.7578 187.875L26.0051 186.243L27.1378 186.243Z" fill="#222222"/>
<path fill-rule="evenodd" clip-rule="evenodd" d="M26.2862 192.982L26.0543 194.614L24.9062 194.614L25.1535 192.982L26.2862 192.982Z" fill="#222222"/>
<path fill-rule="evenodd" clip-rule="evenodd" d="M22.4219 194.614L29.253 194.614L29.253 195.687L22.4219 195.687L22.4219 194.614Z" fill="#222222"/>
<path fill-rule="evenodd" clip-rule="evenodd" d="M22.8828 191.099L29.696 191.099L29.696 192.183L22.8828 192.183L22.8828 191.099Z" fill="#222222"/>
<path fill-rule="evenodd" clip-rule="evenodd" d="M23.3047 187.756L30.4655 187.756L30.4655 188.84L23.3047 188.84L23.3047 187.756Z" fill="#222222"/>
<path fill-rule="evenodd" clip-rule="evenodd" d="M30.3906 187.726L31.2904 193.322L30.4008 193.433L29.501 187.837L30.3906 187.726Z" fill="#222222"/>
<ellipse cx="31.298" cy="195.488" rx="1.29795" ry="1.69031" fill="#222222"/>
<path d="M49.5681 192.62V183.882H52.5548C53.2404 183.882 53.8022 184.006 54.2402 184.253C54.6783 184.498 55.004 184.831 55.2173 185.252C55.4306 185.673 55.5373 186.142 55.5373 186.66C55.5373 187.18 55.4306 187.652 55.2173 188.076C55.0068 188.497 54.6825 188.833 54.2445 189.083C53.8064 189.331 53.2475 189.454 52.5676 189.454H50.447V188.477H52.5164C52.9772 188.477 53.3485 188.398 53.6301 188.238C53.9117 188.079 54.1165 187.863 54.2445 187.59C54.3725 187.317 54.4365 187.007 54.4365 186.66C54.4365 186.313 54.3725 186.004 54.2445 185.734C54.1165 185.461 53.9102 185.247 53.6258 185.094C53.3413 184.937 52.9659 184.859 52.4994 184.859H50.6817V192.62H49.5681ZM61.2132 189.932V186.067H62.2756V192.62H61.2175V191.507H61.1492C60.9956 191.842 60.7552 192.127 60.4281 192.36C60.1038 192.591 59.6957 192.706 59.2035 192.706C58.7911 192.706 58.4241 192.615 58.1027 192.433C57.7841 192.251 57.5338 191.978 57.3518 191.613C57.1697 191.247 57.0787 190.786 57.0787 190.231V186.067H58.1411V190.146C58.1411 190.618 58.2734 190.995 58.5379 191.276C58.8025 191.555 59.141 191.695 59.5534 191.695C59.8009 191.695 60.0526 191.632 60.3086 191.507C60.5647 191.379 60.7794 191.185 60.9529 190.926C61.1264 190.668 61.2132 190.336 61.2132 189.932ZM64.2234 192.62L64.2234 183.882H65.2859V187.112H65.3712C65.4451 186.993 65.549 186.845 65.6827 186.668C65.8164 186.489 66.0069 186.33 66.2544 186.19C66.5019 186.051 66.8375 185.981 67.2614 185.981C67.8075 185.981 68.2911 186.119 68.7121 186.395C69.1331 186.668 69.4616 187.058 69.6977 187.564C69.9338 188.068 70.0519 188.667 70.0519 189.361C70.0519 190.057 69.9338 190.659 69.6977 191.165C69.4616 191.672 69.1345 192.064 68.7164 192.343C68.301 192.619 67.8217 192.757 67.2784 192.757C66.8603 192.757 66.5246 192.687 66.2715 192.548C66.0212 192.408 65.8263 192.249 65.6869 192.07C65.5504 191.888 65.4451 191.734 65.3712 191.609H65.2517V192.62H64.2234ZM65.2688 189.344C65.2688 189.833 65.3399 190.262 65.4821 190.632C65.6244 191.002 65.832 191.292 66.1051 191.503C66.3782 191.71 66.7138 191.814 67.112 191.814C67.5245 191.814 67.8687 191.704 68.1446 191.485C68.4234 191.266 68.6339 190.971 68.7761 190.598C68.9183 190.222 68.9894 189.804 68.9894 189.344C68.9894 188.888 68.9197 188.479 68.7804 188.115C68.641 187.748 68.4319 187.458 68.1531 187.244C67.8772 187.028 67.5302 186.92 67.112 186.92C66.711 186.92 66.3725 187.022 66.0965 187.227C65.8235 187.429 65.6172 187.712 65.4779 188.076C65.3385 188.438 65.2688 188.86 65.2688 189.344ZM72.6322 183.882V192.62H71.5698V183.882H72.6322ZM74.4445 192.62V186.067H75.5069V192.62H74.4445ZM74.9821 184.991C74.7802 184.991 74.6066 184.923 74.4616 184.787C74.3194 184.65 74.2482 184.485 74.2482 184.292C74.2482 184.101 74.3194 183.937 74.4616 183.801C74.6066 183.662 74.7802 183.592 74.9821 183.592C75.1841 183.592 75.3562 183.662 75.4984 183.801C75.6435 183.937 75.716 184.101 75.716 184.292C75.716 184.485 75.6435 184.65 75.4984 184.787C75.3562 184.923 75.1841 184.991 74.9821 184.991ZM80.0031 192.757C79.383 192.757 78.8496 192.612 78.403 192.322C77.9564 192.032 77.6137 191.632 77.3747 191.123C77.1358 190.614 77.0163 190.032 77.0163 189.378C77.0163 188.712 77.1386 188.125 77.3833 187.615C77.6307 187.103 77.9763 186.704 78.4201 186.416C78.8667 186.126 79.3887 185.981 79.986 185.981C80.4525 185.981 80.8721 186.068 81.2447 186.242C81.6202 186.415 81.926 186.658 82.1621 186.971C82.401 187.281 82.5475 187.644 82.6015 188.059H81.5476C81.4737 187.761 81.3059 187.496 81.0442 187.266C80.7853 187.035 80.4383 186.92 80.0031 186.92C79.6191 186.92 79.282 187.021 78.9918 187.223C78.7045 187.422 78.4798 187.704 78.3177 188.068C78.1584 188.429 78.0787 188.854 78.0787 189.344C78.0787 189.844 78.157 190.279 78.3134 190.649C78.4727 191.019 78.696 191.306 78.9833 191.511C79.2734 191.716 79.6134 191.818 80.0031 191.818C80.2619 191.818 80.4952 191.773 80.7028 191.682C80.9133 191.591 81.0911 191.46 81.2362 191.289C81.3841 191.118 81.4879 190.914 81.5476 190.675H82.6015C82.5475 191.07 82.4081 191.424 82.1834 191.737C81.9587 192.05 81.6614 192.299 81.2916 192.484C80.9218 192.666 80.4923 192.757 80.0031 192.757ZM88.8588 192.62L86.8747 186.067H87.9841L89.3751 191.042H89.4433L90.8215 186.067H91.9437L93.3048 191.025H93.373L94.764 186.067H95.8734L93.8893 192.62H92.8397L91.4231 187.645H91.325L89.9084 192.62H88.8588ZM97.1843 192.62V186.067H98.2468V192.62H97.1843ZM97.722 184.991C97.52 184.991 97.3465 184.923 97.2014 184.787C97.0592 184.65 96.9881 184.485 96.9881 184.292C96.9881 184.101 97.0592 183.937 97.2014 183.801C97.3465 183.662 97.52 183.592 97.722 183.592C97.9239 183.592 98.096 183.662 98.2382 183.801C98.3833 183.937 98.4558 184.101 98.4558 184.292C98.4558 184.485 98.3833 184.65 98.2382 184.787C98.096 184.923 97.9239 184.991 97.722 184.991ZM102.952 186.067V186.954H99.5172V186.067H102.952ZM100.503 184.496H101.561V190.734C101.561 191.01 101.602 191.218 101.685 191.357C101.767 191.494 101.872 191.585 102 191.631C102.131 191.676 102.269 191.699 102.414 191.699C102.525 191.699 102.616 191.693 102.687 191.682C102.761 191.667 102.82 191.656 102.862 191.648L103.071 192.582C103 192.608 102.902 192.635 102.777 192.663C102.652 192.692 102.494 192.706 102.303 192.706C102.01 192.706 101.726 192.645 101.45 192.522C101.174 192.4 100.947 192.212 100.767 191.959C100.591 191.706 100.503 191.387 100.503 191.003V184.496ZM105.51 188.686V192.62H104.447V186.067H105.472V187.099H105.557C105.708 186.764 105.941 186.493 106.257 186.288C106.572 186.084 106.978 185.981 107.473 185.981C107.916 185.981 108.305 186.072 108.637 186.254C108.97 186.436 109.229 186.711 109.414 187.078C109.599 187.442 109.691 187.901 109.691 188.456V192.62H108.633V188.541C108.633 188.035 108.501 187.64 108.236 187.355C107.972 187.068 107.611 186.924 107.153 186.924C106.837 186.924 106.555 186.994 106.308 187.133C106.06 187.27 105.865 187.47 105.723 187.735C105.581 187.997 105.51 188.314 105.51 188.686ZM114.276 192.757C113.642 192.757 113.094 192.618 112.633 192.339C112.175 192.057 111.823 191.665 111.575 191.161C111.331 190.655 111.208 190.066 111.208 189.395C111.208 188.723 111.331 188.132 111.575 187.62C111.823 187.105 112.168 186.704 112.612 186.416C113.059 186.126 113.579 185.981 114.174 185.981C114.521 185.981 114.862 186.04 115.198 186.156C115.533 186.27 115.838 186.455 116.111 186.711C116.387 186.967 116.604 187.304 116.764 187.722C116.926 188.14 117.007 188.654 117.007 189.262V189.693H111.925V188.806H115.94C115.94 188.442 115.868 188.119 115.722 187.837C115.577 187.553 115.373 187.328 115.108 187.163C114.844 186.998 114.533 186.916 114.178 186.916C113.785 186.916 113.445 187.012 113.158 187.206C112.871 187.399 112.65 187.651 112.497 187.961C112.343 188.268 112.266 188.598 112.266 188.951V189.565C112.266 190.049 112.35 190.459 112.518 190.794C112.689 191.13 112.925 191.386 113.226 191.562C113.528 191.736 113.878 191.823 114.276 191.823C114.538 191.823 114.774 191.786 114.984 191.712C115.195 191.638 115.377 191.525 115.53 191.375C115.687 191.224 115.806 191.037 115.889 190.816L116.909 191.076C116.809 191.411 116.637 191.706 116.392 191.959C116.151 192.212 115.849 192.408 115.488 192.548C115.129 192.687 114.725 192.757 114.276 192.757ZM123.214 187.56L122.258 187.807C122.201 187.657 122.119 187.51 122.011 187.368C121.903 187.226 121.756 187.109 121.571 187.018C121.386 186.927 121.15 186.882 120.863 186.882C120.47 186.882 120.143 186.971 119.882 187.15C119.62 187.327 119.489 187.553 119.489 187.829C119.489 188.073 119.577 188.268 119.754 188.413C119.933 188.556 120.213 188.674 120.594 188.767L121.584 189.006C122.173 189.149 122.611 189.365 122.898 189.655C123.188 189.945 123.333 190.321 123.333 190.781C123.333 191.16 123.224 191.498 123.005 191.797C122.789 192.093 122.487 192.327 122.1 192.501C121.713 192.672 121.263 192.757 120.748 192.757C120.068 192.757 119.506 192.609 119.062 192.313C118.619 192.017 118.34 191.589 118.226 191.029L119.237 190.798C119.325 191.146 119.495 191.406 119.745 191.579C119.998 191.753 120.328 191.84 120.735 191.84C121.193 191.84 121.557 191.743 121.827 191.549C122.1 191.353 122.237 191.117 122.237 190.841C122.237 190.616 122.157 190.429 121.998 190.278C121.841 190.127 121.601 190.013 121.277 189.937L120.18 189.685C119.577 189.543 119.133 189.321 118.849 189.019C118.567 188.718 118.427 188.339 118.427 187.884C118.427 187.512 118.532 187.183 118.742 186.899C118.953 186.611 119.241 186.387 119.608 186.224C119.975 186.062 120.392 185.981 120.859 185.981C121.519 185.981 122.038 186.126 122.416 186.416C122.794 186.704 123.06 187.085 123.214 187.56ZM129.527 187.56L128.571 187.807C128.514 187.657 128.431 187.51 128.323 187.368C128.215 187.226 128.069 187.109 127.884 187.018C127.699 186.927 127.463 186.882 127.176 186.882C126.783 186.882 126.456 186.971 126.194 187.15C125.933 187.327 125.802 187.553 125.802 187.829C125.802 188.073 125.89 188.268 126.066 188.413C126.245 188.556 126.526 188.674 126.907 188.767L127.897 189.006C128.485 189.149 128.924 189.365 129.211 189.655C129.501 189.945 129.646 190.321 129.646 190.781C129.646 191.16 129.537 191.498 129.318 191.797C129.101 192.093 128.8 192.327 128.413 192.501C128.026 192.672 127.575 192.757 127.06 192.757C126.381 192.757 125.819 192.609 125.375 192.313C124.931 192.017 124.652 191.589 124.539 191.029L125.55 190.798C125.638 191.146 125.807 191.406 126.058 191.579C126.311 191.753 126.641 191.84 127.048 191.84C127.506 191.84 127.87 191.743 128.14 191.549C128.413 191.353 128.549 191.117 128.549 190.841C128.549 190.616 128.47 190.429 128.311 190.278C128.154 190.127 127.914 190.013 127.589 189.937L126.493 189.685C125.89 189.543 125.446 189.321 125.162 189.019C124.88 188.718 124.739 188.339 124.739 187.884C124.739 187.512 124.845 187.183 125.055 186.899C125.265 186.611 125.554 186.387 125.921 186.224C126.288 186.062 126.705 185.981 127.171 185.981C127.831 185.981 128.35 186.126 128.729 186.416C129.107 186.704 129.373 187.085 129.527 187.56ZM131.142 192.62V186.067H132.204V192.62H131.142ZM131.679 184.991C131.477 184.991 131.304 184.923 131.159 184.787C131.016 184.65 130.945 184.485 130.945 184.292C130.945 184.101 131.016 183.937 131.159 183.801C131.304 183.662 131.477 183.592 131.679 183.592C131.881 183.592 132.053 183.662 132.195 183.801C132.341 183.937 132.413 184.101 132.413 184.292C132.413 184.485 132.341 184.65 132.195 184.787C132.053 184.923 131.881 184.991 131.679 184.991ZM135.079 188.686V192.62H134.016V186.067H135.04V187.099H135.126C135.276 186.764 135.51 186.493 135.825 186.288C136.141 186.084 136.547 185.981 137.041 185.981C137.485 185.981 137.873 186.072 138.206 186.254C138.539 186.436 138.798 186.711 138.983 187.078C139.168 187.442 139.26 187.901 139.26 188.456V192.62H138.202V188.541C138.202 188.035 138.07 187.64 137.805 187.355C137.541 187.068 137.179 186.924 136.721 186.924C136.406 186.924 136.124 186.994 135.877 187.133C135.629 187.27 135.434 187.47 135.292 187.735C135.15 187.997 135.079 188.314 135.079 188.686ZM143.747 195.215C143.252 195.215 142.827 195.151 142.471 195.023C142.118 194.897 141.825 194.732 141.592 194.528C141.359 194.323 141.177 194.102 141.046 193.866L141.908 193.324C141.996 193.447 142.108 193.583 142.245 193.734C142.381 193.888 142.569 194.02 142.808 194.131C143.047 194.242 143.36 194.297 143.747 194.297C144.267 194.297 144.697 194.171 145.035 193.918C145.374 193.667 145.543 193.273 145.543 192.736V191.413H145.458C145.384 191.535 145.278 191.685 145.142 191.861C145.005 192.034 144.811 192.188 144.557 192.322C144.307 192.453 143.971 192.518 143.55 192.518C143.024 192.518 142.552 192.394 142.134 192.147C141.716 191.896 141.384 191.532 141.14 191.054C140.898 190.577 140.777 189.995 140.777 189.309C140.777 188.635 140.895 188.049 141.131 187.551C141.367 187.051 141.694 186.664 142.113 186.391C142.534 186.118 143.019 185.981 143.568 185.981C143.989 185.981 144.324 186.051 144.574 186.19C144.828 186.33 145.022 186.489 145.159 186.668C145.296 186.845 145.401 186.993 145.475 187.112H145.577V186.067H146.605V192.8C146.605 193.363 146.477 193.822 146.221 194.178C145.965 194.533 145.621 194.795 145.189 194.963C144.757 195.131 144.276 195.215 143.747 195.215ZM143.717 191.584C144.112 191.584 144.446 191.493 144.72 191.311C144.995 191.128 145.205 190.867 145.347 190.525C145.489 190.181 145.56 189.77 145.56 189.292C145.56 188.829 145.49 188.419 145.351 188.063C145.212 187.705 145.004 187.425 144.728 187.223C144.455 187.021 144.118 186.92 143.717 186.92C143.299 186.92 142.95 187.027 142.671 187.24C142.396 187.453 142.188 187.739 142.049 188.098C141.909 188.456 141.839 188.854 141.839 189.292C141.839 189.745 141.909 190.143 142.049 190.487C142.191 190.828 142.401 191.097 142.68 191.293C142.959 191.487 143.304 191.584 143.717 191.584Z" fill="#222222"/>
<line x1="6.47656" y1="204.766" x2="255.47" y2="204.766" stroke="#D5DFFD" stroke-width="0.750954"/>
<line x1="6.47656" y1="204.766" x2="255.47" y2="204.766" stroke="#D5DFFD" stroke-width="0.750954"/>
<path d="M6.47656 208.145C6.47656 206.486 7.82142 205.141 9.48038 205.141H252.466C254.125 205.141 255.47 206.486 255.47 208.145V235.18C255.47 236.839 254.125 238.183 252.466 238.183H9.48038C7.82142 238.183 6.47656 236.839 6.47656 235.18L6.47656 208.145Z" fill="#FEFEFE"/>
<mask id="mask4_7525_253022" style="mask-type:alpha" maskUnits="userSpaceOnUse" x="18" y="212" width="19" height="19">
<rect x="18.4922" y="212.651" width="18.0229" height="18.0229" fill="#D9D9D9"/>
</mask>
<g mask="url(#mask4_7525_253022)">
<path d="M24.5 225.208V224.194H28.6368V225.208H24.5ZM24.5 222.677V221.663H30.9933V222.677H24.5Z" fill="#222222"/>
<path d="M28.8791 228.797V226.813L32.9559 222.755C33.0493 222.666 33.1501 222.601 33.2583 222.561C33.3666 222.521 33.4748 222.5 33.5831 222.5C33.7012 222.5 33.8154 222.523 33.9258 222.567C34.0361 222.611 34.1364 222.678 34.2267 222.766L34.9213 223.468C35.0022 223.561 35.0648 223.662 35.1091 223.771C35.1534 223.88 35.1755 223.989 35.1755 224.098C35.1755 224.206 35.1553 224.317 35.1149 224.43C35.0744 224.542 35.0099 224.645 34.9213 224.739L30.8633 228.797H28.8791ZM29.7744 227.901H30.4878L32.9256 225.452L32.5876 225.088L32.2309 224.743L29.7744 227.188V227.901ZM23.2325 228.797C22.8532 228.797 22.5321 228.665 22.2693 228.403C22.0064 228.14 21.875 227.819 21.875 227.439V215.886C21.875 215.507 22.0064 215.186 22.2693 214.923C22.5321 214.66 22.8532 214.529 23.2325 214.529H29.1968L33.1393 218.471V220.572H32.0129V219.034H28.6336V215.655H23.2325C23.1747 215.655 23.1218 215.679 23.0736 215.727C23.0255 215.775 23.0014 215.828 23.0014 215.886V227.439C23.0014 227.497 23.0255 227.55 23.0736 227.598C23.1218 227.646 23.1747 227.67 23.2325 227.67H27.2327V228.797H23.2325ZM32.5876 225.088L32.2309 224.743L32.9256 225.452L32.5876 225.088Z" fill="#222222"/>
</g>
<path d="M50.0033 225.662H48.8385L52.0343 216.924H53.2119L56.4077 225.662H55.2386L52.6572 218.349H52.589L50.0033 225.662ZM50.3788 222.249H54.8632V223.222H50.3788V222.249ZM61.753 222.974V219.109H62.8154V225.662H61.7572V224.549H61.689C61.5353 224.884 61.295 225.169 60.9679 225.402C60.6436 225.633 60.2354 225.748 59.7433 225.748C59.3308 225.748 58.9639 225.657 58.6425 225.475C58.3239 225.293 58.0736 225.02 57.8915 224.655C57.7095 224.288 57.6184 223.828 57.6184 223.273V219.109H58.6809V223.188C58.6809 223.66 58.8131 224.037 59.0777 224.318C59.3422 224.597 59.6807 224.736 60.0932 224.736C60.3406 224.736 60.5924 224.674 60.8484 224.549C61.1044 224.421 61.3192 224.227 61.4927 223.968C61.6662 223.71 61.753 223.378 61.753 222.974ZM65.4373 219.109L66.9819 221.763L68.5307 219.109H69.7382L67.6347 222.385L69.7425 225.662H68.535L66.9819 223.136L65.4331 225.662H64.2256L66.2992 222.385L64.2298 219.109H65.4373ZM71.1474 225.662V219.109H72.2098V225.662H71.1474ZM71.685 218.033C71.483 218.033 71.3095 217.965 71.1644 217.829C71.0222 217.692 70.9511 217.527 70.9511 217.334C70.9511 217.143 71.0222 216.979 71.1644 216.843C71.3095 216.704 71.483 216.634 71.685 216.634C71.8869 216.634 72.059 216.704 72.2012 216.843C72.3463 216.979 72.4189 217.143 72.4189 217.334C72.4189 217.527 72.3463 217.692 72.2012 217.829C72.059 217.965 71.8869 218.033 71.685 218.033ZM75.0845 216.924V225.662H74.0221V216.924H75.0845ZM76.8968 225.662V219.109H77.9593V225.662H76.8968ZM77.4345 218.033C77.2325 218.033 77.059 217.965 76.9139 217.829C76.7717 217.692 76.7006 217.527 76.7006 217.334C76.7006 217.143 76.7717 216.979 76.9139 216.843C77.059 216.704 77.2325 216.634 77.4345 216.634C77.6364 216.634 77.8085 216.704 77.9507 216.843C78.0958 216.979 78.1683 217.143 78.1683 217.334C78.1683 217.527 78.0958 217.692 77.9507 217.829C77.8085 217.965 77.6364 218.033 77.4345 218.033ZM81.6959 225.816C81.2806 225.816 80.9037 225.738 80.5652 225.581C80.2267 225.422 79.9579 225.193 79.7588 224.894C79.5625 224.596 79.4644 224.232 79.4644 223.802C79.4644 223.429 79.5369 223.125 79.682 222.889C79.8299 222.653 80.0262 222.468 80.2708 222.334C80.5183 222.198 80.7914 222.097 81.09 222.031C81.3916 221.963 81.6959 221.909 82.0031 221.869C82.3985 221.818 82.7199 221.78 82.9674 221.754C83.2177 221.726 83.3998 221.679 83.5136 221.613C83.6273 221.548 83.6842 221.434 83.6842 221.272V221.238C83.6842 220.828 83.5719 220.51 83.3472 220.282C83.1224 220.054 82.7825 219.941 82.3274 219.941C81.8581 219.941 81.4897 220.044 81.2223 220.252C80.9549 220.457 80.7672 220.677 80.6591 220.913L79.6564 220.585C79.8214 220.187 80.0447 219.874 80.3263 219.646C80.6107 219.419 80.925 219.258 81.2692 219.164C81.6134 219.07 81.9562 219.023 82.2975 219.023C82.5194 219.023 82.7697 219.05 83.0485 219.104C83.3272 219.156 83.5946 219.259 83.8506 219.416C84.1095 219.569 84.3228 219.8 84.4907 220.107C84.6613 220.414 84.7467 220.824 84.7467 221.336V225.662H83.6928V224.775H83.6416C83.5705 224.92 83.4538 225.074 83.2917 225.236C83.1324 225.398 82.9205 225.536 82.6559 225.65C82.3942 225.761 82.0742 225.816 81.6959 225.816ZM81.8751 224.886C82.2648 224.886 82.5934 224.809 82.8607 224.655C83.131 224.502 83.3358 224.304 83.4752 224.062C83.6145 223.818 83.6842 223.56 83.6842 223.29V222.385C83.6416 222.437 83.5491 222.482 83.4069 222.522C83.2675 222.562 83.1068 222.597 82.9247 222.629C82.7427 222.657 82.5663 222.683 82.3957 222.706C82.225 222.725 82.0856 222.742 81.9775 222.757C81.7187 222.791 81.4783 222.845 81.2564 222.919C81.0346 222.993 80.8554 223.104 80.7188 223.252C80.5851 223.4 80.5183 223.599 80.5183 223.849C80.5183 224.19 80.6463 224.449 80.9023 224.626C81.1583 224.799 81.4826 224.886 81.8751 224.886ZM86.5654 225.662V219.109H87.5894V220.107H87.6577C87.7771 219.777 87.9919 219.511 88.302 219.309C88.6149 219.107 88.9662 219.006 89.3559 219.006C89.4327 219.006 89.5251 219.009 89.6332 219.015C89.7441 219.018 89.8295 219.022 89.8892 219.028V220.09C89.8522 220.081 89.7712 220.069 89.646 220.052C89.5237 220.032 89.3957 220.022 89.262 220.022C88.9491 220.022 88.6689 220.087 88.4214 220.218C88.1768 220.349 87.9834 220.529 87.8412 220.76C87.6989 220.99 87.6278 221.252 87.6278 221.545V225.662H86.5654ZM91.949 228.12C91.7755 228.12 91.619 228.106 91.4797 228.077C91.3431 228.052 91.2464 228.025 91.1895 227.996L91.4541 227.079C91.6987 227.142 91.9134 227.164 92.0983 227.147C92.2861 227.133 92.4525 227.053 92.5976 226.908C92.7426 226.763 92.8749 226.529 92.9944 226.204L93.1778 225.705L90.7586 219.109H91.9063L93.6856 224.306H93.7539L95.5331 219.109H96.6809L93.9117 226.601C93.7866 226.94 93.6301 227.221 93.4424 227.446C93.2575 227.673 93.0413 227.843 92.7938 227.954C92.5464 228.065 92.2647 228.12 91.949 228.12ZM101.326 228.12V219.109H102.355V220.154H102.47C102.544 220.034 102.648 219.887 102.781 219.71C102.915 219.531 103.106 219.372 103.353 219.232C103.603 219.093 103.94 219.023 104.364 219.023C104.91 219.023 105.393 219.161 105.811 219.437C106.232 219.71 106.56 220.1 106.796 220.606C107.032 221.11 107.15 221.708 107.15 222.403C107.15 223.099 107.032 223.701 106.796 224.207C106.56 224.714 106.233 225.106 105.815 225.385C105.4 225.661 104.92 225.799 104.377 225.799C103.962 225.799 103.628 225.729 103.374 225.59C103.121 225.45 102.925 225.291 102.786 225.112C102.649 224.93 102.544 224.776 102.47 224.651H102.389V228.12H101.326ZM102.367 222.385C102.367 222.875 102.439 223.304 102.581 223.674C102.726 224.044 102.935 224.334 103.208 224.544C103.481 224.752 103.815 224.856 104.211 224.856C104.626 224.856 104.972 224.746 105.248 224.527C105.526 224.308 105.735 224.013 105.875 223.64C106.017 223.264 106.088 222.846 106.088 222.385C106.088 221.93 106.018 221.521 105.879 221.157C105.742 220.79 105.535 220.5 105.256 220.286C104.977 220.07 104.629 219.962 104.211 219.962C103.81 219.962 103.473 220.064 103.199 220.269C102.926 220.471 102.719 220.754 102.576 221.118C102.437 221.48 102.367 221.902 102.367 222.385ZM108.66 225.662V219.109H109.722V225.662H108.66ZM109.197 218.033C108.996 218.033 108.822 217.965 108.677 217.829C108.535 217.692 108.464 217.527 108.464 217.334C108.464 217.143 108.535 216.979 108.677 216.843C108.822 216.704 108.996 216.634 109.197 216.634C109.399 216.634 109.572 216.704 109.714 216.843C109.859 216.979 109.931 217.143 109.931 217.334C109.931 217.527 109.859 217.692 109.714 217.829C109.572 217.965 109.399 218.033 109.197 218.033ZM114.218 225.799C113.621 225.799 113.098 225.658 112.648 225.377C112.202 225.095 111.853 224.701 111.603 224.195C111.355 223.688 111.232 223.097 111.232 222.42C111.232 221.737 111.355 221.141 111.603 220.632C111.853 220.123 112.202 219.727 112.648 219.446C113.098 219.164 113.621 219.023 114.218 219.023C114.813 219.023 115.333 219.164 115.78 219.446C116.23 219.727 116.579 220.123 116.83 220.632C117.08 221.141 117.205 221.737 117.205 222.42C117.205 223.097 117.08 223.688 116.83 224.195C116.579 224.701 116.23 225.095 115.78 225.377C115.333 225.658 114.813 225.799 114.218 225.799ZM114.218 224.86C114.656 224.86 115.018 224.748 115.302 224.523C115.587 224.296 115.797 223.997 115.934 223.627C116.07 223.254 116.138 222.852 116.138 222.42C116.138 221.984 116.07 221.58 115.934 221.208C115.797 220.835 115.587 220.535 115.302 220.308C115.018 220.077 114.656 219.962 114.218 219.962C113.778 219.962 113.415 220.077 113.13 220.308C112.846 220.535 112.635 220.835 112.499 221.208C112.362 221.58 112.294 221.984 112.294 222.42C112.294 222.852 112.362 223.254 112.499 223.627C112.635 223.997 112.846 224.296 113.13 224.523C113.415 224.748 113.778 224.86 114.218 224.86ZM119.778 221.728V225.662H118.716V219.109H119.74V220.141H119.825C119.976 219.806 120.209 219.535 120.525 219.33C120.84 219.126 121.246 219.023 121.741 219.023C122.185 219.023 122.573 219.114 122.906 219.296C123.238 219.478 123.497 219.753 123.682 220.12C123.867 220.484 123.96 220.943 123.96 221.498V225.662H122.901V221.583C122.901 221.077 122.769 220.682 122.505 220.397C122.24 220.11 121.879 219.966 121.421 219.966C121.105 219.966 120.823 220.036 120.576 220.175C120.328 220.312 120.134 220.512 119.991 220.777C119.849 221.039 119.778 221.356 119.778 221.728ZM128.544 225.799C127.91 225.799 127.362 225.66 126.901 225.381C126.443 225.099 126.091 224.707 125.843 224.203C125.599 223.697 125.476 223.108 125.476 222.437C125.476 221.765 125.599 221.174 125.843 220.662C126.091 220.147 126.436 219.746 126.88 219.458C127.327 219.168 127.847 219.023 128.442 219.023C128.789 219.023 129.13 219.082 129.466 219.198C129.801 219.312 130.106 219.497 130.379 219.753C130.655 220.009 130.872 220.346 131.032 220.764C131.194 221.182 131.275 221.696 131.275 222.304V222.735H126.193V221.848H130.208C130.208 221.484 130.136 221.161 129.991 220.879C129.846 220.595 129.641 220.37 129.376 220.205C129.112 220.04 128.802 219.958 128.446 219.958C128.053 219.958 127.714 220.054 127.426 220.248C127.139 220.441 126.919 220.693 126.765 221.003C126.611 221.31 126.535 221.64 126.535 221.993V222.607C126.535 223.091 126.618 223.501 126.786 223.836C126.957 224.172 127.193 224.428 127.495 224.604C127.796 224.778 128.146 224.864 128.544 224.864C128.806 224.864 129.042 224.828 129.252 224.754C129.463 224.68 129.645 224.567 129.799 224.416C129.955 224.266 130.075 224.079 130.157 223.858L131.177 224.118C131.077 224.453 130.905 224.748 130.66 225.001C130.419 225.254 130.117 225.45 129.756 225.59C129.398 225.729 128.994 225.799 128.544 225.799ZM135.549 225.799C134.915 225.799 134.367 225.66 133.906 225.381C133.448 225.099 133.096 224.707 132.848 224.203C132.604 223.697 132.481 223.108 132.481 222.437C132.481 221.765 132.604 221.174 132.848 220.662C133.096 220.147 133.441 219.746 133.885 219.458C134.332 219.168 134.852 219.023 135.447 219.023C135.794 219.023 136.135 219.082 136.471 219.198C136.806 219.312 137.111 219.497 137.384 219.753C137.66 220.009 137.877 220.346 138.037 220.764C138.199 221.182 138.28 221.696 138.28 222.304V222.735H133.198V221.848H137.213C137.213 221.484 137.141 221.161 136.996 220.879C136.851 220.595 136.646 220.37 136.381 220.205C136.117 220.04 135.807 219.958 135.451 219.958C135.058 219.958 134.719 220.054 134.431 220.248C134.144 220.441 133.924 220.693 133.77 221.003C133.616 221.31 133.539 221.64 133.539 221.993V222.607C133.539 223.091 133.623 223.501 133.791 223.836C133.962 224.172 134.198 224.428 134.5 224.604C134.801 224.778 135.151 224.864 135.549 224.864C135.811 224.864 136.047 224.828 136.257 224.754C136.468 224.68 136.65 224.567 136.804 224.416C136.96 224.266 137.08 224.079 137.162 223.858L138.182 224.118C138.082 224.453 137.91 224.748 137.665 225.001C137.424 225.254 137.122 225.45 136.761 225.59C136.403 225.729 135.999 225.799 135.549 225.799ZM139.789 225.662V219.109H140.813V220.107H140.882C141.001 219.777 141.216 219.511 141.526 219.309C141.839 219.107 142.19 219.006 142.58 219.006C142.657 219.006 142.749 219.009 142.857 219.015C142.968 219.018 143.053 219.022 143.113 219.028V220.09C143.076 220.081 142.995 220.069 142.87 220.052C142.748 220.032 142.62 220.022 142.486 220.022C142.173 220.022 141.893 220.087 141.645 220.218C141.401 220.349 141.207 220.529 141.065 220.76C140.923 220.99 140.852 221.252 140.852 221.545V225.662H139.789ZM149.563 225.816C149.148 225.816 148.771 225.738 148.433 225.581C148.094 225.422 147.825 225.193 147.626 224.894C147.43 224.596 147.332 224.232 147.332 223.802C147.332 223.429 147.404 223.125 147.549 222.889C147.697 222.653 147.894 222.468 148.138 222.334C148.386 222.198 148.659 222.097 148.958 222.031C149.259 221.963 149.563 221.909 149.871 221.869C150.266 221.818 150.587 221.78 150.835 221.754C151.085 221.726 151.267 221.679 151.381 221.613C151.495 221.548 151.552 221.434 151.552 221.272V221.238C151.552 220.828 151.439 220.51 151.215 220.282C150.99 220.054 150.65 219.941 150.195 219.941C149.726 219.941 149.357 220.044 149.09 220.252C148.822 220.457 148.635 220.677 148.527 220.913L147.524 220.585C147.689 220.187 147.912 219.874 148.194 219.646C148.478 219.419 148.793 219.258 149.137 219.164C149.481 219.07 149.824 219.023 150.165 219.023C150.387 219.023 150.637 219.05 150.916 219.104C151.195 219.156 151.462 219.259 151.718 219.416C151.977 219.569 152.19 219.8 152.358 220.107C152.529 220.414 152.614 220.824 152.614 221.336V225.662H151.56V224.775H151.509C151.438 224.92 151.321 225.074 151.159 225.236C151 225.398 150.788 225.536 150.523 225.65C150.262 225.761 149.942 225.816 149.563 225.816ZM149.743 224.886C150.132 224.886 150.461 224.809 150.728 224.655C150.998 224.502 151.203 224.304 151.343 224.062C151.482 223.818 151.552 223.56 151.552 223.29V222.385C151.509 222.437 151.417 222.482 151.274 222.522C151.135 222.562 150.974 222.597 150.792 222.629C150.61 222.657 150.434 222.683 150.263 222.706C150.092 222.725 149.953 222.742 149.845 222.757C149.586 222.791 149.346 222.845 149.124 222.919C148.902 222.993 148.723 223.104 148.586 223.252C148.453 223.4 148.386 223.599 148.386 223.849C148.386 224.19 148.514 224.449 148.77 224.626C149.026 224.799 149.35 224.886 149.743 224.886ZM154.433 228.12V219.109H155.461V220.154H155.576C155.65 220.034 155.754 219.887 155.888 219.71C156.022 219.531 156.212 219.372 156.46 219.232C156.71 219.093 157.047 219.023 157.471 219.023C158.017 219.023 158.499 219.161 158.917 219.437C159.338 219.71 159.667 220.1 159.903 220.606C160.139 221.11 160.257 221.708 160.257 222.403C160.257 223.099 160.139 223.701 159.903 224.207C159.667 224.714 159.34 225.106 158.922 225.385C158.506 225.661 158.027 225.799 157.484 225.799C157.068 225.799 156.734 225.729 156.481 225.59C156.228 225.45 156.032 225.291 155.892 225.112C155.756 224.93 155.65 224.776 155.576 224.651H155.495V228.12H154.433ZM155.474 222.385C155.474 222.875 155.545 223.304 155.687 223.674C155.832 224.044 156.041 224.334 156.315 224.544C156.588 224.752 156.922 224.856 157.317 224.856C157.733 224.856 158.078 224.746 158.354 224.527C158.633 224.308 158.842 224.013 158.981 223.64C159.124 223.264 159.195 222.846 159.195 222.385C159.195 221.93 159.125 221.521 158.986 221.157C158.849 220.79 158.641 220.5 158.363 220.286C158.084 220.07 157.735 219.962 157.317 219.962C156.916 219.962 156.579 220.064 156.306 220.269C156.033 220.471 155.825 220.754 155.683 221.118C155.544 221.48 155.474 221.902 155.474 222.385ZM161.766 228.12V219.109H162.795V220.154H162.91C162.984 220.034 163.088 219.887 163.221 219.71C163.355 219.531 163.546 219.372 163.793 219.232C164.043 219.093 164.381 219.023 164.804 219.023C165.351 219.023 165.833 219.161 166.251 219.437C166.672 219.71 167 220.1 167.236 220.606C167.473 221.11 167.591 221.708 167.591 222.403C167.591 223.099 167.473 223.701 167.236 224.207C167 224.714 166.673 225.106 166.255 225.385C165.84 225.661 165.36 225.799 164.817 225.799C164.402 225.799 164.068 225.729 163.814 225.59C163.561 225.45 163.365 225.291 163.226 225.112C163.089 224.93 162.984 224.776 162.91 224.651H162.829V228.12H161.766ZM162.808 222.385C162.808 222.875 162.879 223.304 163.021 223.674C163.166 224.044 163.375 224.334 163.648 224.544C163.921 224.752 164.255 224.856 164.651 224.856C165.066 224.856 165.412 224.746 165.688 224.527C165.966 224.308 166.175 224.013 166.315 223.64C166.457 223.264 166.528 222.846 166.528 222.385C166.528 221.93 166.458 221.521 166.319 221.157C166.183 220.79 165.975 220.5 165.696 220.286C165.417 220.07 165.069 219.962 164.651 219.962C164.25 219.962 163.913 220.064 163.64 220.269C163.366 220.471 163.159 220.754 163.017 221.118C162.877 221.48 162.808 221.902 162.808 222.385ZM170.162 216.924V225.662H169.1V216.924H170.162ZM171.975 225.662V219.109H173.037V225.662H171.975ZM172.512 218.033C172.31 218.033 172.137 217.965 171.992 217.829C171.85 217.692 171.778 217.527 171.778 217.334C171.778 217.143 171.85 216.979 171.992 216.843C172.137 216.704 172.31 216.634 172.512 216.634C172.714 216.634 172.886 216.704 173.029 216.843C173.174 216.979 173.246 217.143 173.246 217.334C173.246 217.527 173.174 217.692 173.029 217.829C172.886 217.965 172.714 218.033 172.512 218.033ZM177.533 225.799C176.913 225.799 176.38 225.654 175.933 225.364C175.487 225.074 175.144 224.674 174.905 224.165C174.666 223.656 174.547 223.074 174.547 222.42C174.547 221.754 174.669 221.167 174.913 220.657C175.161 220.145 175.507 219.746 175.95 219.458C176.397 219.168 176.919 219.023 177.516 219.023C177.983 219.023 178.402 219.11 178.775 219.284C179.15 219.457 179.456 219.7 179.692 220.013C179.931 220.323 180.078 220.686 180.132 221.101H179.078C179.004 220.803 178.836 220.538 178.574 220.308C178.316 220.077 177.968 219.962 177.533 219.962C177.149 219.962 176.812 220.063 176.522 220.265C176.235 220.464 176.01 220.746 175.848 221.11C175.689 221.471 175.609 221.896 175.609 222.385C175.609 222.886 175.687 223.321 175.844 223.691C176.003 224.061 176.226 224.348 176.514 224.553C176.804 224.758 177.144 224.86 177.533 224.86C177.792 224.86 178.025 224.815 178.233 224.724C178.444 224.633 178.621 224.502 178.766 224.331C178.914 224.16 179.018 223.956 179.078 223.717H180.132C180.078 224.112 179.938 224.466 179.714 224.779C179.489 225.092 179.192 225.341 178.822 225.526C178.452 225.708 178.023 225.799 177.533 225.799ZM183.497 225.816C183.082 225.816 182.705 225.738 182.366 225.581C182.028 225.422 181.759 225.193 181.56 224.894C181.364 224.596 181.266 224.232 181.266 223.802C181.266 223.429 181.338 223.125 181.483 222.889C181.631 222.653 181.827 222.468 182.072 222.334C182.32 222.198 182.593 222.097 182.891 222.031C183.193 221.963 183.497 221.909 183.804 221.869C184.2 221.818 184.521 221.78 184.769 221.754C185.019 221.726 185.201 221.679 185.315 221.613C185.429 221.548 185.485 221.434 185.485 221.272V221.238C185.485 220.828 185.373 220.51 185.148 220.282C184.924 220.054 184.584 219.941 184.129 219.941C183.659 219.941 183.291 220.044 183.024 220.252C182.756 220.457 182.568 220.677 182.46 220.913L181.458 220.585C181.623 220.187 181.846 219.874 182.128 219.646C182.412 219.419 182.726 219.258 183.07 219.164C183.415 219.07 183.757 219.023 184.099 219.023C184.321 219.023 184.571 219.05 184.85 219.104C185.129 219.156 185.396 219.259 185.652 219.416C185.911 219.569 186.124 219.8 186.292 220.107C186.463 220.414 186.548 220.824 186.548 221.336V225.662H185.494V224.775H185.443C185.372 224.92 185.255 225.074 185.093 225.236C184.934 225.398 184.722 225.536 184.457 225.65C184.196 225.761 183.875 225.816 183.497 225.816ZM183.676 224.886C184.066 224.886 184.395 224.809 184.662 224.655C184.932 224.502 185.137 224.304 185.276 224.062C185.416 223.818 185.485 223.56 185.485 223.29V222.385C185.443 222.437 185.35 222.482 185.208 222.522C185.069 222.562 184.908 222.597 184.726 222.629C184.544 222.657 184.368 222.683 184.197 222.706C184.026 222.725 183.887 222.742 183.779 222.757C183.52 222.791 183.28 222.845 183.058 222.919C182.836 222.993 182.657 223.104 182.52 223.252C182.386 223.4 182.32 223.599 182.32 223.849C182.32 224.19 182.448 224.449 182.704 224.626C182.96 224.799 183.284 224.886 183.676 224.886ZM191.26 219.109V219.996H187.825V219.109H191.26ZM188.81 217.538H189.869V223.776C189.869 224.052 189.91 224.26 189.992 224.399C190.075 224.536 190.18 224.627 190.308 224.672C190.439 224.718 190.577 224.741 190.722 224.741C190.833 224.741 190.924 224.735 190.995 224.724C191.069 224.709 191.127 224.698 191.17 224.69L191.379 225.624C191.308 225.65 191.21 225.677 191.085 225.705C190.959 225.733 190.802 225.748 190.611 225.748C190.318 225.748 190.034 225.687 189.758 225.564C189.482 225.442 189.254 225.254 189.075 225.001C188.899 224.748 188.81 224.429 188.81 224.045V217.538ZM192.755 225.662V219.109H193.817V225.662H192.755ZM193.293 218.033C193.091 218.033 192.917 217.965 192.772 217.829C192.63 217.692 192.559 217.527 192.559 217.334C192.559 217.143 192.63 216.979 192.772 216.843C192.917 216.704 193.091 216.634 193.293 216.634C193.495 216.634 193.667 216.704 193.809 216.843C193.954 216.979 194.027 217.143 194.027 217.334C194.027 217.527 193.954 217.692 193.809 217.829C193.667 217.965 193.495 218.033 193.293 218.033ZM198.314 225.799C197.716 225.799 197.193 225.658 196.743 225.377C196.297 225.095 195.948 224.701 195.698 224.195C195.451 223.688 195.327 223.097 195.327 222.42C195.327 221.737 195.451 221.141 195.698 220.632C195.948 220.123 196.297 219.727 196.743 219.446C197.193 219.164 197.716 219.023 198.314 219.023C198.908 219.023 199.429 219.164 199.875 219.446C200.325 219.727 200.675 220.123 200.925 220.632C201.175 221.141 201.3 221.737 201.3 222.42C201.3 223.097 201.175 223.688 200.925 224.195C200.675 224.701 200.325 225.095 199.875 225.377C199.429 225.658 198.908 225.799 198.314 225.799ZM198.314 224.86C198.752 224.86 199.113 224.748 199.397 224.523C199.682 224.296 199.892 223.997 200.029 223.627C200.165 223.254 200.234 222.852 200.234 222.42C200.234 221.984 200.165 221.58 200.029 221.208C199.892 220.835 199.682 220.535 199.397 220.308C199.113 220.077 198.752 219.962 198.314 219.962C197.873 219.962 197.51 220.077 197.226 220.308C196.941 220.535 196.731 220.835 196.594 221.208C196.458 221.58 196.389 221.984 196.389 222.42C196.389 222.852 196.458 223.254 196.594 223.627C196.731 223.997 196.941 224.296 197.226 224.523C197.51 224.748 197.873 224.86 198.314 224.86ZM203.873 221.728V225.662H202.811V219.109H203.835V220.141H203.92C204.071 219.806 204.304 219.535 204.62 219.33C204.936 219.126 205.341 219.023 205.836 219.023C206.28 219.023 206.668 219.114 207.001 219.296C207.334 219.478 207.592 219.753 207.777 220.12C207.962 220.484 208.055 220.943 208.055 221.498V225.662H206.996V221.583C206.996 221.077 206.864 220.682 206.6 220.397C206.335 220.11 205.974 219.966 205.516 219.966C205.2 219.966 204.919 220.036 204.671 220.175C204.424 220.312 204.229 220.512 204.087 220.777C203.944 221.039 203.873 221.356 203.873 221.728Z" fill="#222222"/>
</g>
<rect x="0.898377" y="1.35342" width="260.149" height="254.465" rx="9.88142" stroke="#D5DFFD" stroke-width="0.859254"/>
<defs>
<clipPath id="clip0_7525_253022">
<rect x="0.46875" y="0.923798" width="261.009" height="255.325" rx="10.311" fill="white"/>
</clipPath>
</defs>
</svg>
