<svg width="49" height="48" viewBox="0 0 49 48" fill="none" xmlns="http://www.w3.org/2000/svg">
<mask id="mask0_6872_275252" style="mask-type:alpha" maskUnits="userSpaceOnUse" x="0" y="0" width="49" height="48">
<rect x="0.796875" width="48" height="48" fill="#D9D9D9"/>
</mask>
<g mask="url(#mask0_6872_275252)">
<path d="M14.1809 44.9999V29.8192L7.50781 19L16.1424 5H33.45L42.0845 19L35.4115 29.8192V44.9999L24.7962 41.4038L14.1809 44.9999ZM17.1808 40.7577L24.7962 38.2231L32.4115 40.7577V32.9999H17.1808V40.7577ZM17.8154 7.99995L11.0154 19L17.8154 30H31.7769L38.5769 19L31.7769 7.99995H17.8154ZM22.6962 26.4384L16.3078 20.1L18.4462 17.9616L22.6962 22.2116L31.1462 13.7116L33.2846 15.8L22.6962 26.4384Z" fill="#FEFEFE"/>
</g>
</svg>
