<svg width="49" height="48" viewBox="0 0 49 48" fill="none" xmlns="http://www.w3.org/2000/svg">
<mask id="mask0_7049_127523" style="mask-type:alpha" maskUnits="userSpaceOnUse" x="0" y="0" width="49" height="49">
<rect x="0.242188" y="0.00390625" width="48" height="48" fill="#D9D9D9"/>
</mask>
<g mask="url(#mask0_7049_127523)">
<path d="M1.29154 8.8499C1.10438 7.85247 1.29861 6.95375 1.87424 6.15375C2.44988 5.35375 3.23641 4.86017 4.23384 4.673L24.703 1.05375C25.7004 0.866583 26.5991 1.06082 27.3991 1.63645C28.1991 2.21209 28.6927 2.99862 28.8799 3.99605L29.3414 6.61915H26.2799L25.8915 4.4268C25.8659 4.28577 25.7889 4.17359 25.6607 4.09025C25.5325 4.00692 25.3915 3.97807 25.2376 4.0037L4.76074 7.64215C4.58124 7.66778 4.44663 7.75112 4.35689 7.89215C4.26713 8.03318 4.23508 8.19345 4.26074 8.37295L6.85694 23.0386V31.9498C6.36208 31.6882 5.93899 31.3299 5.58769 30.8748C5.23643 30.4197 5.01079 29.9011 4.91079 29.319L1.29154 8.8499Z" fill="#FEFEFE"/>
<path d="M15.4891 41.3739H32.9426V31.3342H42.9823V13.8807C42.9823 13.7005 42.9244 13.5525 42.8085 13.4366C42.6926 13.3208 42.5446 13.2628 42.3644 13.2628H15.4891C15.3089 13.2628 15.1609 13.3208 15.045 13.4366C14.9292 13.5525 14.8712 13.7005 14.8712 13.8807V40.756C14.8712 40.9362 14.9292 41.0842 15.045 41.2001C15.1609 41.316 15.3089 41.3739 15.4891 41.3739ZM15.4891 44.3857C14.4877 44.3857 13.6324 44.0311 12.9232 43.3219C12.214 42.6127 11.8594 41.7574 11.8594 40.756V13.8807C11.8594 12.8793 12.214 12.024 12.9232 11.3148C13.6324 10.6056 14.4877 10.251 15.4891 10.251H42.3644C43.3658 10.251 44.2211 10.6056 44.9303 11.3148C45.6395 12.024 45.9941 12.8793 45.9941 13.8807V32.6277L34.2361 44.3857H15.4891ZM19.7753 30.7936V27.7817H28.9268V30.7936H19.7753ZM19.7753 22.8005V19.7887H38.0782V22.8005H19.7753Z" fill="#FEFEFE"/>
</g>
</svg>
