<svg width="49" height="48" viewBox="0 0 49 48" fill="none" xmlns="http://www.w3.org/2000/svg">
<mask id="mask0_6872_275295" style="mask-type:alpha" maskUnits="userSpaceOnUse" x="0" y="0" width="49" height="49">
<rect x="0.90625" y="0.00390625" width="48" height="48" fill="#D9D9D9"/>
</mask>
<g mask="url(#mask0_6872_275295)">
<path d="M13.5217 43.0039C12.5242 43.0039 11.6723 42.6507 10.9659 41.9443C10.2595 41.2379 9.90625 40.386 9.90625 39.3885V20.6194C9.90625 19.622 10.2595 18.7701 10.9659 18.0637C11.6723 17.3573 12.5242 17.004 13.5217 17.004H15.9063V13.004C15.9063 10.5066 16.7819 8.38232 18.5332 6.63105C20.2845 4.87978 22.4088 4.00415 24.9062 4.00415C27.4036 4.00415 29.528 4.87978 31.2793 6.63105C33.0305 8.38232 33.9062 10.5066 33.9062 13.004V17.004H36.2908C37.2882 17.004 38.1401 17.3573 38.8465 18.0637C39.5529 18.7701 39.9062 19.622 39.9062 20.6194V39.3885C39.9062 40.386 39.5529 41.2379 38.8465 41.9443C38.1401 42.6507 37.2882 43.0039 36.2908 43.0039H13.5217ZM13.5217 40.004H36.2908C36.4702 40.004 36.6177 39.9463 36.7331 39.8309C36.8485 39.7155 36.9062 39.568 36.9062 39.3885V20.6194C36.9062 20.4399 36.8485 20.2925 36.7331 20.1771C36.6177 20.0617 36.4702 20.004 36.2908 20.004H13.5217C13.3422 20.004 13.1947 20.0617 13.0793 20.1771C12.9639 20.2925 12.9062 20.4399 12.9062 20.6194V39.3885C12.9062 39.568 12.9639 39.7155 13.0793 39.8309C13.1947 39.9463 13.3422 40.004 13.5217 40.004ZM24.9062 33.5039C25.878 33.5039 26.7043 33.1636 27.385 32.4828C28.0658 31.8021 28.4062 30.9758 28.4062 30.004C28.4062 29.0322 28.0658 28.2059 27.385 27.5252C26.7043 26.8444 25.878 26.504 24.9062 26.504C23.9344 26.504 23.1081 26.8444 22.4274 27.5252C21.7466 28.2059 21.4063 29.0322 21.4063 30.004C21.4063 30.9758 21.7466 31.8021 22.4274 32.4828C23.1081 33.1636 23.9344 33.5039 24.9062 33.5039ZM18.9062 17.004H30.9062V13.004C30.9062 11.3374 30.3229 9.92072 29.1562 8.75405C27.9895 7.58738 26.5729 7.00405 24.9062 7.00405C23.2395 7.00405 21.8229 7.58738 20.6562 8.75405C19.4895 9.92072 18.9062 11.3374 18.9062 13.004V17.004Z" fill="#FEFEFE"/>
</g>
</svg>
