<svg width="24" height="23" viewBox="0 0 24 23" fill="none" xmlns="http://www.w3.org/2000/svg">
<g clip-path="url(#clip0_5821_225882)">
<path d="M14.8578 12.752C14.8578 14.3773 13.5402 15.6949 11.9149 15.6949C10.2895 15.6949 8.97194 14.3773 8.97194 12.752C8.97194 11.1266 10.2895 9.80904 11.9149 9.80904C13.5402 9.80904 14.8578 11.1266 14.8578 12.752Z" stroke="#5065D0" stroke-width="1.10794"/>
<path d="M18.0469 21.7291C18.0469 18.389 15.3392 15.6813 11.999 15.6813C8.65889 15.6813 5.95117 18.389 5.95117 21.7291" stroke="#5065D0" stroke-width="1.10794" stroke-linecap="round"/>
<path d="M19.6256 5.04129C19.6256 6.65487 18.3175 7.96293 16.7039 7.96293C15.0904 7.96293 13.7823 6.65487 13.7823 5.04129C13.7823 3.42771 15.0904 2.11965 16.7039 2.11965C18.3175 2.11965 19.6256 3.42771 19.6256 5.04129Z" stroke="#5065D0" stroke-width="1.15055"/>
<path d="M22.7134 14.0091C22.7134 10.6692 20.0059 7.96173 16.666 7.96173" stroke="#5065D0" stroke-width="1.10794" stroke-linecap="round"/>
<path d="M10.2193 5.04129C10.2193 6.65487 8.91127 7.96293 7.29769 7.96293C5.68412 7.96293 4.37606 6.65487 4.37606 5.04129C4.37606 3.42771 5.68412 2.11965 7.29769 2.11965C8.91127 2.11965 10.2193 3.42771 10.2193 5.04129Z" stroke="#5065D0" stroke-width="1.15055"/>
<path d="M1.28663 14.0092C1.28663 10.6693 3.99412 7.96185 7.33398 7.96185" stroke="#5065D0" stroke-width="1.10794" stroke-linecap="round"/>
</g>
<defs>
<clipPath id="clip0_5821_225882">
<rect width="24" height="22.6075" fill="white" transform="translate(0 0.333008)"/>
</clipPath>
</defs>
</svg>
