<svg width="30" height="30" viewBox="0 0 30 30" fill="none" xmlns="http://www.w3.org/2000/svg">
<mask id="mask0_10695_157947" style="mask-type:alpha" maskUnits="userSpaceOnUse" x="0" y="0" width="30" height="30">
<rect width="30" height="30" fill="#D9D9D9"/>
</mask>
<g mask="url(#mask0_10695_157947)">
<path d="M6.63463 25.6249C6.00321 25.6249 5.46875 25.4062 5.03125 24.9687C4.59375 24.5312 4.375 23.9967 4.375 23.3653V6.63463C4.375 6.00321 4.59375 5.46875 5.03125 5.03125C5.46875 4.59375 6.00321 4.375 6.63463 4.375H12.1971C12.2965 3.67308 12.6066 3.08094 13.1274 2.59856C13.6482 2.11619 14.2724 1.875 15 1.875C15.7275 1.875 16.3517 2.11619 16.8725 2.59856C17.3934 3.08094 17.7035 3.67308 17.8028 4.375H23.3653C23.9967 4.375 24.5312 4.59375 24.9687 5.03125C25.4062 5.46875 25.6249 6.00321 25.6249 6.63463V23.3653C25.6249 23.9967 25.4062 24.5312 24.9687 24.9687C24.5312 25.4062 23.9967 25.6249 23.3653 25.6249H6.63463ZM15 5.43266C15.2708 5.43266 15.4948 5.34412 15.6718 5.16703C15.8489 4.98995 15.9375 4.76599 15.9375 4.49516C15.9375 4.22432 15.8489 4.00037 15.6718 3.82328C15.4948 3.6462 15.2708 3.55766 15 3.55766C14.7291 3.55766 14.5052 3.6462 14.3281 3.82328C14.151 4.00037 14.0625 4.22432 14.0625 4.49516C14.0625 4.76599 14.151 4.98995 14.3281 5.16703C14.5052 5.34412 14.7291 5.43266 15 5.43266ZM6.24997 22.5529C7.37497 21.4487 8.68226 20.5789 10.1718 19.9435C11.6614 19.3081 13.2708 18.9904 15 18.9904C16.7291 18.9904 18.3385 19.3081 19.8281 19.9435C21.3177 20.5789 22.625 21.4487 23.75 22.5529V6.63463C23.75 6.53846 23.7099 6.4503 23.6298 6.37016C23.5496 6.29003 23.4615 6.24997 23.3653 6.24997H6.63463C6.53846 6.24997 6.4503 6.29003 6.37016 6.37016C6.29003 6.4503 6.24997 6.53846 6.24997 6.63463V22.5529ZM15 16.2981C16.1282 16.2981 17.0873 15.903 17.8773 15.113C18.6674 14.3229 19.0624 13.3638 19.0624 12.2356C19.0624 11.1074 18.6674 10.1483 17.8773 9.35819C17.0873 8.56813 16.1282 8.17309 15 8.17309C13.8718 8.17309 12.9126 8.56813 12.1226 9.35819C11.3325 10.1483 10.9375 11.1074 10.9375 12.2356C10.9375 13.3638 11.3325 14.3229 12.1226 15.113C12.9126 15.903 13.8718 16.2981 15 16.2981ZM8.05281 23.75H21.9471V23.4856C20.9599 22.6041 19.877 21.9471 18.6983 21.5144C17.5196 21.0817 16.2868 20.8653 15 20.8653C13.7291 20.8653 12.5024 21.0797 11.3197 21.5084C10.1369 21.9371 9.048 22.5881 8.05281 23.4615V23.75ZM15 14.4231C14.399 14.4231 13.8842 14.2088 13.4555 13.7801C13.0268 13.3514 12.8124 12.8365 12.8124 12.2356C12.8124 11.6346 13.0268 11.1198 13.4555 10.6911C13.8842 10.2624 14.399 10.0481 15 10.0481C15.6009 10.0481 16.1158 10.2624 16.5445 10.6911C16.9732 11.1198 17.1875 11.6346 17.1875 12.2356C17.1875 12.8365 16.9732 13.3514 16.5445 13.7801C16.1158 14.2088 15.6009 14.4231 15 14.4231Z" fill="#222222"/>
</g>
</svg>
