<svg width="30" height="30" viewBox="0 0 30 30" fill="none" xmlns="http://www.w3.org/2000/svg">
<mask id="mask0_10696_15381" style="mask-type:alpha" maskUnits="userSpaceOnUse" x="0" y="0" width="30" height="30">
<rect width="30" height="30" fill="#D9D9D9"/>
</mask>
<g mask="url(#mask0_10696_15381)">
<path d="M9.99997 17.428C9.69389 17.428 9.43307 17.3202 9.21753 17.1047C9.00199 16.8892 8.89422 16.6284 8.89422 16.3223C8.89422 16.0162 9.00199 15.7554 9.21753 15.5398C9.43307 15.3243 9.69389 15.2165 9.99997 15.2165C10.3061 15.2165 10.5669 15.3243 10.7824 15.5398C10.9979 15.7554 11.1057 16.0162 11.1057 16.3223C11.1057 16.6284 10.9979 16.8892 10.7824 17.1047C10.5669 17.3202 10.3061 17.428 9.99997 17.428ZM15 17.428C14.6939 17.428 14.4331 17.3202 14.2175 17.1047C14.002 16.8892 13.8942 16.6284 13.8942 16.3223C13.8942 16.0162 14.002 15.7554 14.2175 15.5398C14.4331 15.3243 14.6939 15.2165 15 15.2165C15.3061 15.2165 15.5669 15.3243 15.7824 15.5398C15.9979 15.7554 16.1057 16.0162 16.1057 16.3223C16.1057 16.6284 15.9979 16.8892 15.7824 17.1047C15.5669 17.3202 15.3061 17.428 15 17.428ZM20 17.428C19.6939 17.428 19.4331 17.3202 19.2175 17.1047C19.002 16.8892 18.8942 16.6284 18.8942 16.3223C18.8942 16.0162 19.002 15.7554 19.2175 15.5398C19.4331 15.3243 19.6939 15.2165 20 15.2165C20.3061 15.2165 20.5669 15.3243 20.7824 15.5398C20.9979 15.7554 21.1057 16.0162 21.1057 16.3223C21.1057 16.6284 20.9979 16.8892 20.7824 17.1047C20.5669 17.3202 20.3061 17.428 20 17.428ZM6.63463 26.8751C6.00321 26.8751 5.46875 26.6564 5.03125 26.2189C4.59375 25.7814 4.375 25.2469 4.375 24.6155V7.8848C4.375 7.25339 4.59375 6.71893 5.03125 6.28143C5.46875 5.84393 6.00321 5.62518 6.63463 5.62518H8.36541V2.98096H10.2884V5.62518H19.7596V2.98096H21.6345V5.62518H23.3653C23.9967 5.62518 24.5312 5.84393 24.9687 6.28143C25.4062 6.71893 25.6249 7.25339 25.6249 7.8848V24.6155C25.6249 25.2469 25.4062 25.7814 24.9687 26.2189C24.5312 26.6564 23.9967 26.8751 23.3653 26.8751H6.63463ZM6.63463 25.0001H23.3653C23.4615 25.0001 23.5496 24.9601 23.6298 24.88C23.7099 24.7998 23.75 24.7117 23.75 24.6155V12.8848H6.24997V24.6155C6.24997 24.7117 6.29003 24.7998 6.37016 24.88C6.4503 24.9601 6.53846 25.0001 6.63463 25.0001ZM6.24997 11.0098H23.75V7.8848C23.75 7.78864 23.7099 7.70048 23.6298 7.62033C23.5496 7.54021 23.4615 7.50015 23.3653 7.50015H6.63463C6.53846 7.50015 6.4503 7.54021 6.37016 7.62033C6.29003 7.70048 6.24997 7.78864 6.24997 7.8848V11.0098Z" fill="#222222"/>
</g>
</svg>
