<svg width="386" height="340" viewBox="0 0 386 340" fill="none" xmlns="http://www.w3.org/2000/svg">
<g clip-path="url(#clip0_7130_36074)">
<path d="M0.371094 13.2811C0.371094 5.94614 6.31725 0 13.6522 0L371.765 0C379.1 0 385.046 5.94615 385.046 13.2811V325.903C385.046 333.238 379.1 339.184 371.765 339.184H13.6522C6.31725 339.184 0.371094 333.238 0.371094 325.903L0.371094 13.2811Z" fill="#FEFEFE"/>
<path d="M9.22656 15.4946C9.22656 11.8271 12.1996 8.854 15.8671 8.854L369.553 8.854C373.221 8.854 376.194 11.8271 376.194 15.4946V64.6297C376.194 68.2972 373.221 71.2703 369.553 71.2703L15.8671 71.2703C12.1996 71.2703 9.22656 68.2972 9.22656 64.6297L9.22656 15.4946Z" fill="#D5DFFD"/>
<path d="M144.808 31.4639H148.07L153.022 43.5534H153.211L158.163 31.4639H161.425V47.5623H158.863V36.2117H158.713L154.123 47.523L152.11 47.523L147.52 36.1881H147.371V47.5623H144.808V31.4639ZM169.907 47.8059C168.707 47.8059 167.672 47.5518 166.802 47.0435C165.932 46.5299 165.264 45.8094 164.797 44.8818C164.331 43.949 164.098 42.8564 164.098 41.604C164.098 40.362 164.331 39.2694 164.797 38.3262C165.269 37.3829 165.927 36.6493 166.77 36.1252C167.614 35.596 168.604 35.3313 169.742 35.3313C170.459 35.3313 171.143 35.4466 171.793 35.6772C172.443 35.9078 173.022 36.2693 173.53 36.7619C174.039 37.2493 174.44 37.8781 174.733 38.6484C175.032 39.4188 175.181 40.3411 175.181 41.4153V42.2643L165.426 42.2643V40.4249L172.658 40.4249C172.658 39.8485 172.537 39.3349 172.296 38.8843C172.055 38.4284 171.717 38.0694 171.282 37.8074C170.853 37.5454 170.349 37.4143 169.773 37.4143C169.149 37.4143 168.604 37.5637 168.138 37.8624C167.677 38.1611 167.318 38.5541 167.061 39.0415C166.81 39.5288 166.681 40.0581 166.676 40.6293V42.1464C166.676 42.901 166.812 43.5455 167.085 44.0801C167.357 44.6146 167.737 45.0233 168.224 45.3063C168.712 45.584 169.28 45.7229 169.93 45.7229C170.365 45.7229 170.758 45.6626 171.109 45.5421C171.46 45.4163 171.762 45.2329 172.013 44.9919C172.27 44.7456 172.467 44.4416 172.603 44.0801L175.047 44.4338C174.874 45.1098 174.555 45.7019 174.088 46.2102C173.627 46.7133 173.04 47.1063 172.328 47.3893C171.62 47.6671 170.813 47.8059 169.907 47.8059ZM182.963 47.8059C181.763 47.8059 180.728 47.5518 179.858 47.0435C178.988 46.5299 178.32 45.8094 177.854 44.8818C177.387 43.949 177.154 42.8564 177.154 41.604C177.154 40.362 177.387 39.2694 177.854 38.3262C178.325 37.3829 178.983 36.6493 179.827 36.1252C180.67 35.596 181.661 35.3313 182.798 35.3313C183.516 35.3313 184.2 35.4466 184.849 35.6772C185.499 35.9078 186.078 36.2693 186.587 36.7619C187.095 37.2493 187.496 37.8781 187.789 38.6484C188.088 39.4188 188.237 40.3411 188.237 41.4153V42.2643H178.482V40.4249H185.714C185.714 39.8485 185.594 39.3349 185.353 38.8843C185.111 38.4284 184.773 38.0694 184.339 37.8074C183.909 37.5454 183.406 37.4143 182.829 37.4143C182.206 37.4143 181.661 37.5637 181.194 37.8624C180.733 38.1611 180.374 38.5541 180.117 39.0415C179.866 39.5288 179.738 40.0581 179.732 40.6293V42.1464C179.732 42.901 179.869 43.5455 180.141 44.0801C180.414 44.6146 180.793 45.0233 181.281 45.3063C181.768 45.584 182.337 45.7229 182.987 45.7229C183.421 45.7229 183.814 45.6626 184.166 45.5421C184.517 45.4163 184.818 45.2329 185.07 44.9919C185.326 44.7456 185.523 44.4416 185.659 44.0801L188.104 44.4338C187.931 45.1098 187.611 45.7019 187.145 46.2102C186.684 46.7133 186.097 47.1063 185.384 47.3893C184.677 47.6671 183.87 47.8059 182.963 47.8059ZM196.577 35.4885V37.5323H189.809V35.4885H196.577ZM191.547 32.5959H194.148V43.9779C194.148 44.3919 194.211 44.7089 194.337 44.929C194.463 45.1438 194.628 45.2906 194.832 45.3692C195.042 45.4425 195.27 45.4792 195.516 45.4792C195.7 45.4792 195.862 45.4661 196.004 45.4399C196.15 45.4137 196.263 45.3928 196.342 45.377L196.797 47.4601C196.651 47.5072 196.444 47.5596 196.176 47.6173C195.909 47.6802 195.582 47.7168 195.194 47.7273C194.528 47.743 193.918 47.633 193.362 47.3972C192.812 47.1614 192.369 46.7972 192.034 46.3046C191.704 45.812 191.541 45.1936 191.547 44.4495V32.5959ZM199.059 47.5623V35.4885H201.661V47.5623H199.059ZM200.372 33.7042C199.942 33.7042 199.573 33.5601 199.264 33.2719C198.96 32.9836 198.808 32.6352 198.808 32.2264C198.808 31.8229 198.96 31.477 199.264 31.1888C199.573 30.9006 199.942 30.7565 200.372 30.7565C200.802 30.7565 201.169 30.9006 201.472 31.1888C201.782 31.477 201.936 31.8229 201.936 32.2264C201.936 32.6352 201.782 32.9836 201.472 33.2719C201.169 33.5601 200.802 33.7042 200.372 33.7042ZM207.303 40.4406V47.5623H204.701V35.4885H207.193V37.5008H207.342C207.62 36.8405 208.06 36.3139 208.663 35.9209C209.265 35.5278 210.017 35.3313 210.919 35.3313C211.747 35.3313 212.47 35.5069 213.088 35.858C213.707 36.2091 214.186 36.7226 214.527 37.3986C214.873 38.0746 215.046 38.9026 215.046 39.8825V47.5623H212.444V40.2441C212.444 39.4004 212.226 38.7428 211.791 38.2711C211.356 37.7943 210.756 37.5558 209.991 37.5558C209.467 37.5558 209.003 37.6685 208.6 37.8938C208.196 38.1192 207.879 38.4467 207.649 38.8764C207.418 39.3061 207.303 39.8275 207.303 40.4406ZM223.217 52.3414C222.226 52.3414 221.375 52.2104 220.662 51.9484C219.954 51.6864 219.381 51.3353 218.94 50.8951C218.5 50.4549 218.183 49.9728 217.989 49.4488L220.277 48.7256C220.408 48.9562 220.589 49.1946 220.819 49.4409C221.05 49.6872 221.361 49.8942 221.755 50.0619C222.148 50.2348 222.648 50.3213 223.256 50.3213C224.105 50.3213 224.807 50.1143 225.362 49.7003C225.918 49.2916 226.196 48.626 226.196 47.7037V45.377H226.046C225.905 45.6548 225.698 45.9509 225.425 46.2653C225.153 46.5745 224.786 46.8391 224.325 47.0592C223.864 47.274 223.277 47.3815 222.564 47.3815C221.626 47.3815 220.777 47.1614 220.017 46.7212C219.263 46.2758 218.663 45.6155 218.217 44.7403C217.772 43.8652 217.549 42.7778 217.549 41.4782C217.549 40.1786 217.769 39.0703 218.209 38.1532C218.65 37.2362 219.25 36.5366 220.009 36.0545C220.769 35.5724 221.626 35.3313 222.58 35.3313C223.308 35.3313 223.9 35.4545 224.356 35.7008C224.817 35.9418 225.182 36.23 225.449 36.5654C225.716 36.8956 225.921 37.1943 226.062 37.4615H226.219V35.4885H228.774V47.7981C228.774 48.8304 228.53 49.682 228.043 50.3527C227.561 51.0235 226.901 51.5213 226.062 51.8462C225.224 52.1764 224.275 52.3414 223.217 52.3414ZM223.224 45.2906C223.864 45.2906 224.406 45.1386 224.852 44.8347C225.297 44.5307 225.635 44.0932 225.866 43.522C226.101 42.9455 226.219 42.259 226.219 41.4625C226.219 40.6712 226.104 39.9795 225.873 39.3873C225.643 38.7952 225.305 38.334 224.859 38.0039C224.414 37.6685 223.869 37.5008 223.224 37.5008C222.554 37.5008 221.993 37.6737 221.542 38.0196C221.092 38.3655 220.754 38.8371 220.528 39.4345C220.303 40.0319 220.19 40.7079 220.19 41.4625C220.19 42.2276 220.306 42.8984 220.536 43.4748C220.767 44.046 221.105 44.4914 221.55 44.8111C222.001 45.1307 222.559 45.2906 223.224 45.2906ZM241.107 38.562L238.741 38.8921C238.662 38.6249 238.529 38.3733 238.34 38.1375C238.157 37.8965 237.908 37.6999 237.593 37.548C237.279 37.396 236.889 37.32 236.422 37.32C235.793 37.32 235.267 37.4589 234.842 37.7366C234.423 38.0144 234.213 38.3733 234.213 38.8135C234.213 39.1908 234.355 39.4948 234.638 39.7253C234.921 39.9559 235.379 40.1472 236.013 40.2992L238.01 40.7393C239.137 40.9909 239.975 41.3839 240.525 41.9184C241.076 42.4529 241.353 43.1499 241.359 44.0093C241.353 44.7534 241.136 45.4111 240.706 45.9823C240.282 46.5483 239.69 46.9937 238.93 47.3186C238.175 47.6435 237.303 47.8059 236.312 47.8059C234.892 47.8059 233.744 47.5072 232.869 46.9098C231.994 46.3072 231.462 45.4609 231.274 44.3709L233.797 44.0565C233.933 44.6277 234.213 45.06 234.638 45.3535C235.062 45.6417 235.615 45.7858 236.296 45.7858C237.02 45.7858 237.599 45.6364 238.034 45.3377C238.469 45.0338 238.689 44.6644 238.694 44.2294C238.689 43.8626 238.55 43.5613 238.277 43.3254C238.01 43.0844 237.591 42.901 237.02 42.7752L234.976 42.3272C233.828 42.0809 232.982 41.6747 232.437 41.1088C231.892 40.5376 231.622 39.8197 231.627 38.955C231.622 38.2266 231.821 37.5925 232.225 37.0528C232.628 36.5078 233.189 36.0859 233.907 35.7872C234.63 35.4833 235.461 35.3313 236.399 35.3313C237.756 35.3313 238.825 35.6248 239.606 36.2117C240.392 36.7934 240.892 37.5768 241.107 38.562Z" fill="#3B4CA3"/>
<path d="M9.22656 84.5513C9.22656 82.1063 11.2086 80.1243 13.6536 80.1243L371.767 80.1243C374.212 80.1243 376.194 82.1063 376.194 84.5513V126.686C376.194 129.131 374.212 131.114 371.767 131.114L13.6536 131.114C11.2086 131.114 9.22656 129.131 9.22656 126.686L9.22656 84.5513Z" fill="#FEFEFE"/>
<mask id="mask0_7130_36074" style="mask-type:alpha" maskUnits="userSpaceOnUse" x="26" y="92" width="28" height="27">
<rect x="26.9336" y="92.3379" width="26.5622" height="26.5622" fill="#D9D9D9"/>
</mask>
<g mask="url(#mask0_7130_36074)">
<path d="M32.8093 115.026C32.2502 115.026 31.777 114.833 31.3896 114.445C31.0023 114.058 30.8086 113.585 30.8086 113.026V98.2123C30.8086 97.6532 31.0023 97.18 31.3896 96.7926C31.777 96.4052 32.2502 96.2116 32.8093 96.2116H37.7344C37.8223 95.5901 38.0969 95.0658 38.558 94.6387C39.0192 94.2116 39.5718 93.998 40.216 93.998C40.8602 93.998 41.4129 94.2116 41.874 94.6387C42.3351 95.0658 42.6097 95.5901 42.6977 96.2116H47.6227C48.1818 96.2116 48.655 96.4052 49.0424 96.7926C49.4298 97.18 49.6234 97.6532 49.6234 98.2123V113.026C49.6234 113.585 49.4298 114.058 49.0424 114.445C48.655 114.833 48.1818 115.026 47.6227 115.026H32.8093ZM40.216 97.148C40.4558 97.148 40.6541 97.0696 40.8109 96.9128C40.9677 96.756 41.0461 96.5578 41.0461 96.318C41.0461 96.0782 40.9677 95.8799 40.8109 95.7231C40.6541 95.5663 40.4558 95.4879 40.216 95.4879C39.9762 95.4879 39.7779 95.5663 39.6211 95.7231C39.4643 95.8799 39.3859 96.0782 39.3859 96.318C39.3859 96.5578 39.4643 96.756 39.6211 96.9128C39.7779 97.0696 39.9762 97.148 40.216 97.148ZM32.4687 112.306C33.4648 111.329 34.6223 110.559 35.9412 109.996C37.26 109.433 38.685 109.152 40.216 109.152C41.747 109.152 43.172 109.433 44.4909 109.996C45.8098 110.559 46.9672 111.329 47.9633 112.306V98.2123C47.9633 98.1271 47.9279 98.0491 47.8569 97.9781C47.7859 97.9071 47.7079 97.8717 47.6227 97.8717H32.8093C32.7241 97.8717 32.6461 97.9071 32.5751 97.9781C32.5042 98.0491 32.4687 98.1271 32.4687 98.2123V112.306ZM40.216 106.768C41.2149 106.768 42.0642 106.419 42.7637 105.719C43.4632 105.02 43.813 104.17 43.813 103.171C43.813 102.172 43.4632 101.323 42.7637 100.624C42.0642 99.9242 41.2149 99.5744 40.216 99.5744C39.2171 99.5744 38.3679 99.9242 37.6684 100.624C36.9688 101.323 36.6191 102.172 36.6191 103.171C36.6191 104.17 36.9688 105.02 37.6684 105.719C38.3679 106.419 39.2171 106.768 40.216 106.768ZM34.065 113.366H46.3671V113.132C45.493 112.352 44.5342 111.77 43.4906 111.387C42.4469 111.004 41.3554 110.812 40.216 110.812C39.0908 110.812 38.0046 111.002 36.9574 111.382C35.9103 111.761 34.9461 112.338 34.065 113.111V113.366ZM40.216 105.108C39.6839 105.108 39.2281 104.918 38.8485 104.539C38.4689 104.159 38.2792 103.703 38.2792 103.171C38.2792 102.639 38.4689 102.183 38.8485 101.804C39.2281 101.424 39.6839 101.235 40.216 101.235C40.7481 101.235 41.2039 101.424 41.5835 101.804C41.9631 102.183 42.1529 102.639 42.1529 103.171C42.1529 103.703 41.9631 104.159 41.5835 104.539C41.2039 104.918 40.7481 105.108 40.216 105.108Z" fill="#222222"/>
</g>
<path d="M72.7312 99.2403H74.6932L79.0133 109.792H79.1642L83.4907 99.2403H85.4464V112.119H83.912V102.428H83.7862L79.8057 112.113H78.3719L74.3976 102.428H74.2719V112.119H72.7312V99.2403ZM89.3137 115.741C89.058 115.741 88.8274 115.72 88.622 115.678C88.4208 115.64 88.2782 115.601 88.1944 115.559L88.5843 114.207C88.9448 114.299 89.2613 114.332 89.5338 114.307C89.8105 114.286 90.0558 114.169 90.2696 113.955C90.4834 113.741 90.6783 113.395 90.8544 112.918L91.1248 112.182L87.5593 102.46H89.2508L91.8731 110.119H91.9737L94.596 102.46H96.2876L92.2064 113.502C92.0219 114.001 91.7914 114.416 91.5147 114.747C91.2422 115.083 90.9236 115.332 90.5588 115.496C90.1941 115.659 89.7791 115.741 89.3137 115.741ZM105.97 112.345C105.358 112.345 104.803 112.23 104.304 111.999C103.805 111.765 103.409 111.427 103.115 110.987C102.826 110.547 102.681 110.01 102.681 109.377C102.681 108.828 102.788 108.379 103.002 108.031C103.22 107.683 103.509 107.411 103.87 107.214C104.235 107.013 104.637 106.864 105.077 106.767C105.522 106.667 105.97 106.587 106.423 106.529C107.006 106.453 107.479 106.396 107.844 106.359C108.213 106.317 108.481 106.248 108.649 106.151C108.817 106.055 108.901 105.887 108.901 105.648V105.598C108.901 104.994 108.735 104.525 108.404 104.189C108.073 103.854 107.572 103.686 106.901 103.686C106.209 103.686 105.666 103.839 105.272 104.145C104.878 104.447 104.601 104.772 104.442 105.12L102.964 104.636C103.207 104.049 103.537 103.588 103.952 103.252C104.371 102.917 104.834 102.68 105.341 102.542C105.849 102.403 106.354 102.334 106.857 102.334C107.184 102.334 107.553 102.374 107.964 102.454C108.374 102.529 108.768 102.682 109.146 102.913C109.527 103.139 109.842 103.479 110.089 103.931C110.341 104.384 110.466 104.988 110.466 105.742V112.119H108.913V110.811H108.838C108.733 111.025 108.561 111.251 108.322 111.49C108.087 111.729 107.775 111.932 107.385 112.1C106.999 112.264 106.528 112.345 105.97 112.345ZM106.234 110.974C106.809 110.974 107.293 110.861 107.687 110.635C108.085 110.408 108.387 110.117 108.592 109.761C108.798 109.4 108.901 109.021 108.901 108.623V107.289C108.838 107.365 108.701 107.432 108.492 107.491C108.286 107.549 108.049 107.602 107.781 107.648C107.513 107.69 107.253 107.727 107.001 107.761C106.75 107.79 106.544 107.816 106.385 107.836C106.004 107.887 105.649 107.966 105.322 108.075C104.995 108.184 104.731 108.348 104.53 108.566C104.333 108.784 104.235 109.077 104.235 109.446C104.235 109.949 104.423 110.331 104.8 110.591C105.178 110.847 105.656 110.974 106.234 110.974ZM120.07 104.661L118.662 105.026C118.578 104.803 118.456 104.587 118.297 104.378C118.138 104.168 117.922 103.996 117.649 103.862C117.377 103.728 117.029 103.661 116.605 103.661C116.027 103.661 115.545 103.793 115.159 104.057C114.773 104.317 114.581 104.65 114.581 105.057C114.581 105.418 114.71 105.705 114.97 105.919C115.235 106.128 115.647 106.302 116.209 106.44L117.668 106.793C118.536 107.002 119.182 107.321 119.605 107.748C120.033 108.176 120.246 108.729 120.246 109.409C120.246 109.966 120.085 110.465 119.762 110.905C119.444 111.341 118.999 111.687 118.429 111.943C117.859 112.194 117.194 112.32 116.436 112.32C115.434 112.32 114.606 112.102 113.952 111.666C113.298 111.23 112.887 110.599 112.719 109.773L114.21 109.434C114.339 109.945 114.589 110.329 114.958 110.585C115.331 110.84 115.817 110.968 116.417 110.968C117.092 110.968 117.628 110.826 118.027 110.541C118.429 110.251 118.63 109.903 118.63 109.497C118.63 109.165 118.513 108.889 118.278 108.667C118.048 108.444 117.693 108.277 117.215 108.163L115.599 107.792C114.71 107.583 114.056 107.256 113.637 106.811C113.222 106.367 113.015 105.81 113.015 105.139C113.015 104.59 113.17 104.105 113.48 103.686C113.79 103.263 114.216 102.932 114.757 102.693C115.297 102.454 115.912 102.334 116.599 102.334C117.572 102.334 118.337 102.548 118.894 102.976C119.452 103.399 119.844 103.961 120.07 104.661ZM129.374 104.661L127.965 105.026C127.882 104.803 127.76 104.587 127.601 104.378C127.441 104.168 127.225 103.996 126.953 103.862C126.68 103.728 126.332 103.661 125.909 103.661C125.331 103.661 124.848 103.793 124.463 104.057C124.077 104.317 123.884 104.65 123.884 105.057C123.884 105.418 124.014 105.705 124.274 105.919C124.538 106.128 124.951 106.302 125.513 106.44L126.972 106.793C127.84 107.002 128.485 107.321 128.909 107.748C129.336 108.176 129.55 108.729 129.55 109.409C129.55 109.966 129.389 110.465 129.066 110.905C128.747 111.341 128.303 111.687 127.733 111.943C127.163 112.194 126.498 112.32 125.739 112.32C124.737 112.32 123.909 112.102 123.255 111.666C122.601 111.23 122.191 110.599 122.023 109.773L123.513 109.434C123.643 109.945 123.893 110.329 124.262 110.585C124.635 110.84 125.121 110.968 125.72 110.968C126.395 110.968 126.932 110.826 127.33 110.541C127.733 110.251 127.934 109.903 127.934 109.497C127.934 109.165 127.817 108.889 127.582 108.667C127.351 108.444 126.997 108.277 126.519 108.163L124.903 107.792C124.014 107.583 123.36 107.256 122.941 106.811C122.526 106.367 122.318 105.81 122.318 105.139C122.318 104.59 122.474 104.105 122.784 103.686C123.094 103.263 123.519 102.932 124.06 102.693C124.601 102.454 125.215 102.334 125.903 102.334C126.875 102.334 127.64 102.548 128.198 102.976C128.756 103.399 129.148 103.961 129.374 104.661ZM131.754 112.119V102.46L133.32 102.46V112.119H131.754ZM132.546 100.875C132.249 100.875 131.993 100.775 131.779 100.573C131.57 100.372 131.465 100.129 131.465 99.8439C131.465 99.5631 131.57 99.322 131.779 99.1208C131.993 98.9153 132.249 98.8126 132.546 98.8126C132.844 98.8126 133.098 98.9153 133.307 99.1208C133.521 99.322 133.628 99.5631 133.628 99.8439C133.628 100.129 133.521 100.372 133.307 100.573C133.098 100.775 132.844 100.875 132.546 100.875ZM139.921 115.942C139.192 115.942 138.565 115.848 138.041 115.659C137.521 115.475 137.089 115.232 136.746 114.93C136.402 114.628 136.133 114.303 135.941 113.955L137.211 113.156C137.341 113.337 137.506 113.538 137.708 113.76C137.909 113.987 138.186 114.181 138.538 114.345C138.89 114.508 139.351 114.59 139.921 114.59C140.688 114.59 141.321 114.404 141.82 114.031C142.319 113.662 142.569 113.081 142.569 112.289V110.339H142.443C142.334 110.52 142.179 110.74 141.978 111C141.776 111.255 141.489 111.482 141.116 111.679C140.747 111.872 140.252 111.968 139.632 111.968C138.856 111.968 138.16 111.786 137.544 111.421C136.928 111.052 136.44 110.515 136.079 109.811C135.723 109.107 135.544 108.249 135.544 107.239C135.544 106.246 135.718 105.382 136.066 104.648C136.414 103.91 136.896 103.34 137.513 102.938C138.133 102.535 138.848 102.334 139.657 102.334C140.278 102.334 140.772 102.437 141.141 102.642C141.514 102.848 141.801 103.082 142.003 103.347C142.204 103.606 142.359 103.824 142.468 104.001H142.619V102.46H144.134V112.383C144.134 113.213 143.946 113.89 143.568 114.414C143.191 114.938 142.684 115.324 142.047 115.571C141.409 115.819 140.701 115.942 139.921 115.942ZM139.877 110.591C140.46 110.591 140.952 110.457 141.355 110.188C141.762 109.92 142.07 109.534 142.279 109.031C142.489 108.524 142.594 107.918 142.594 107.214C142.594 106.531 142.491 105.927 142.286 105.403C142.08 104.875 141.774 104.462 141.368 104.164C140.965 103.866 140.468 103.718 139.877 103.718C139.261 103.718 138.747 103.875 138.337 104.189C137.93 104.504 137.624 104.925 137.418 105.453C137.213 105.981 137.11 106.568 137.11 107.214C137.11 107.881 137.213 108.467 137.418 108.975C137.628 109.478 137.938 109.874 138.349 110.163C138.76 110.448 139.269 110.591 139.877 110.591ZM148.365 106.321V112.119H146.799V102.46H148.308V103.982H148.434C148.656 103.487 149 103.089 149.465 102.787C149.931 102.485 150.528 102.334 151.258 102.334C151.912 102.334 152.484 102.468 152.974 102.737C153.465 103.005 153.846 103.409 154.119 103.95C154.391 104.487 154.528 105.164 154.528 105.981V112.119H152.968V106.107C152.968 105.361 152.773 104.778 152.383 104.359C151.993 103.936 151.461 103.724 150.786 103.724C150.321 103.724 149.906 103.827 149.541 104.032C149.176 104.233 148.889 104.529 148.679 104.919C148.47 105.304 148.365 105.772 148.365 106.321ZM157.21 112.119V102.46H158.719V103.982H158.845C159.046 103.462 159.371 103.057 159.819 102.768C160.268 102.479 160.809 102.334 161.442 102.334C162.079 102.334 162.611 102.479 163.039 102.768C163.467 103.057 163.798 103.462 164.032 103.982H164.133C164.376 103.479 164.745 103.078 165.24 102.781C165.739 102.483 166.334 102.334 167.026 102.334C167.894 102.334 168.602 102.605 169.151 103.145C169.7 103.686 169.975 104.523 169.975 105.654V112.119H168.416V105.686C168.416 104.986 168.223 104.485 167.837 104.183C167.455 103.877 167.005 103.724 166.485 103.724C165.818 103.724 165.301 103.925 164.932 104.328C164.567 104.73 164.385 105.239 164.385 105.856V112.119H162.8V105.541C162.8 104.996 162.624 104.558 162.272 104.227C161.924 103.892 161.473 103.724 160.92 103.724C160.538 103.724 160.184 103.824 159.857 104.026C159.534 104.227 159.272 104.506 159.071 104.862C158.874 105.218 158.775 105.631 158.775 106.101V112.119H157.21ZM176.727 112.32C175.792 112.32 174.985 112.115 174.306 111.704C173.631 111.289 173.111 110.71 172.747 109.968C172.386 109.222 172.206 108.354 172.206 107.365C172.206 106.375 172.386 105.503 172.747 104.749C173.111 103.99 173.621 103.399 174.275 102.976C174.933 102.548 175.7 102.334 176.576 102.334C177.088 102.334 177.591 102.42 178.086 102.592C178.58 102.76 179.029 103.032 179.431 103.409C179.838 103.787 180.159 104.284 180.393 104.9C180.632 105.516 180.752 106.273 180.752 107.17V107.805H173.262V106.497H179.18C179.18 105.96 179.073 105.485 178.859 105.07C178.645 104.65 178.343 104.319 177.953 104.076C177.564 103.833 177.107 103.711 176.583 103.711C176.004 103.711 175.503 103.854 175.08 104.139C174.656 104.424 174.331 104.795 174.105 105.252C173.879 105.705 173.765 106.191 173.765 106.711V107.616C173.765 108.329 173.889 108.933 174.136 109.427C174.388 109.922 174.736 110.299 175.18 110.559C175.625 110.815 176.14 110.943 176.727 110.943C177.113 110.943 177.461 110.888 177.771 110.779C178.081 110.67 178.35 110.505 178.576 110.283C178.807 110.06 178.983 109.786 179.104 109.459L180.607 109.842C180.46 110.337 180.207 110.771 179.846 111.144C179.49 111.517 179.046 111.807 178.513 112.012C177.985 112.217 177.39 112.32 176.727 112.32ZM184.542 106.321V112.119H182.976V102.46H184.486V103.982H184.611C184.833 103.487 185.177 103.089 185.643 102.787C186.108 102.485 186.705 102.334 187.435 102.334C188.089 102.334 188.661 102.468 189.152 102.737C189.642 103.005 190.024 103.409 190.296 103.95C190.569 104.487 190.705 105.164 190.705 105.981V112.119H189.145V106.107C189.145 105.361 188.95 104.778 188.56 104.359C188.171 103.936 187.638 103.724 186.963 103.724C186.498 103.724 186.083 103.827 185.718 104.032C185.353 104.233 185.066 104.529 184.857 104.919C184.647 105.304 184.542 105.772 184.542 106.321ZM197.65 102.46V103.768H192.588V102.46H197.65ZM194.041 100.146H195.6V109.339C195.6 109.746 195.661 110.052 195.783 110.258C195.904 110.459 196.059 110.593 196.248 110.66C196.441 110.727 196.644 110.761 196.858 110.761C197.021 110.761 197.156 110.752 197.26 110.735C197.369 110.714 197.455 110.698 197.518 110.685L197.826 112.062C197.722 112.1 197.577 112.14 197.392 112.182C197.208 112.224 196.975 112.245 196.694 112.245C196.263 112.245 195.843 112.155 195.437 111.974C195.03 111.794 194.695 111.517 194.431 111.144C194.171 110.771 194.041 110.302 194.041 109.736V100.146ZM206.605 104.661L205.196 105.026C205.113 104.803 204.991 104.587 204.832 104.378C204.672 104.168 204.456 103.996 204.184 103.862C203.911 103.728 203.563 103.661 203.14 103.661C202.562 103.661 202.079 103.793 201.694 104.057C201.308 104.317 201.115 104.65 201.115 105.057C201.115 105.418 201.245 105.705 201.505 105.919C201.769 106.128 202.182 106.302 202.744 106.44L204.203 106.793C205.071 107.002 205.716 107.321 206.14 107.748C206.567 108.176 206.781 108.729 206.781 109.409C206.781 109.966 206.62 110.465 206.297 110.905C205.978 111.341 205.534 111.687 204.964 111.943C204.394 112.194 203.729 112.32 202.97 112.32C201.968 112.32 201.14 112.102 200.486 111.666C199.832 111.23 199.422 110.599 199.254 109.773L200.744 109.434C200.874 109.945 201.124 110.329 201.493 110.585C201.866 110.84 202.352 110.968 202.951 110.968C203.626 110.968 204.163 110.826 204.561 110.541C204.964 110.251 205.165 109.903 205.165 109.497C205.165 109.165 205.048 108.889 204.813 108.667C204.582 108.444 204.228 108.277 203.75 108.163L202.134 107.792C201.245 107.583 200.591 107.256 200.172 106.811C199.757 106.367 199.549 105.81 199.549 105.139C199.549 104.59 199.705 104.105 200.015 103.686C200.325 103.263 200.75 102.932 201.291 102.693C201.832 102.454 202.446 102.334 203.134 102.334C204.106 102.334 204.871 102.548 205.429 102.976C205.987 103.399 206.379 103.961 206.605 104.661Z" fill="#222222"/>
<path d="M329.777 105.619C329.777 97.6511 336.237 91.1919 344.204 91.1919H352.913C360.88 91.1919 367.34 97.6511 367.34 105.619C367.34 113.587 360.88 120.046 352.913 120.046H344.204C336.237 120.046 329.777 113.587 329.777 105.619Z" fill="#F2F5FF"/>
<path d="M348.576 111.773C347.809 111.773 347.127 111.643 346.529 111.382C345.935 111.118 345.463 110.751 345.115 110.282C344.77 109.812 344.587 109.269 344.565 108.653H346.358C346.38 108.983 346.49 109.269 346.688 109.511C346.89 109.75 347.153 109.935 347.475 110.067C347.802 110.196 348.165 110.26 348.565 110.26C348.998 110.26 349.383 110.185 349.72 110.034C350.058 109.88 350.322 109.667 350.513 109.396C350.703 109.124 350.799 108.811 350.799 108.455C350.799 108.085 350.703 107.758 350.513 107.476C350.322 107.193 350.045 106.971 349.682 106.81C349.322 106.648 348.886 106.568 348.372 106.568H347.409V105.143H348.372C348.783 105.143 349.144 105.069 349.456 104.923C349.772 104.776 350.017 104.57 350.193 104.306C350.373 104.038 350.463 103.727 350.463 103.371C350.463 103.03 350.386 102.733 350.232 102.479C350.078 102.223 349.86 102.023 349.577 101.88C349.298 101.737 348.972 101.665 348.598 101.665C348.235 101.665 347.895 101.731 347.58 101.863C347.268 101.992 347.015 102.179 346.821 102.424C346.626 102.67 346.522 102.962 346.507 103.299H344.801C344.82 102.687 344.999 102.148 345.34 101.682C345.685 101.216 346.142 100.853 346.71 100.592C347.283 100.328 347.917 100.196 348.614 100.196C349.344 100.196 349.975 100.337 350.507 100.62C351.039 100.898 351.45 101.273 351.74 101.742C352.029 102.208 352.174 102.72 352.174 103.277C352.178 103.908 352 104.444 351.641 104.884C351.285 105.321 350.81 105.612 350.215 105.759V105.847C350.975 105.961 351.562 106.258 351.976 106.738C352.391 107.215 352.596 107.808 352.593 108.516C352.593 109.139 352.418 109.699 352.07 110.194C351.725 110.685 351.25 111.072 350.645 111.355C350.039 111.634 349.35 111.773 348.576 111.773Z" fill="#3B4CA3"/>
<line x1="9.22656" y1="130.56" x2="376.194" y2="130.56" stroke="#D5DFFD" stroke-width="1.10676"/>
<path d="M9.22656 135.541C9.22656 133.096 11.2086 131.114 13.6536 131.114L371.767 131.114C374.212 131.114 376.194 133.096 376.194 135.541V175.384C376.194 177.829 374.212 179.811 371.767 179.811L13.6536 179.811C11.2086 179.811 9.22656 177.829 9.22656 175.384L9.22656 135.541Z" fill="#FEFEFE"/>
<mask id="mask1_7130_36074" style="mask-type:alpha" maskUnits="userSpaceOnUse" x="26" y="142" width="28" height="27">
<rect x="26.9336" y="142.181" width="26.5622" height="26.5622" fill="#D9D9D9"/>
</mask>
<g mask="url(#mask1_7130_36074)">
<path d="M35.7851 157.612C35.5141 157.612 35.2831 157.517 35.0923 157.326C34.9015 157.135 34.806 156.904 34.806 156.633C34.806 156.362 34.9015 156.131 35.0923 155.94C35.2831 155.749 35.5141 155.654 35.7851 155.654C36.0561 155.654 36.287 155.749 36.4778 155.94C36.6687 156.131 36.7641 156.362 36.7641 156.633C36.7641 156.904 36.6687 157.135 36.4778 157.326C36.287 157.517 36.0561 157.612 35.7851 157.612ZM40.2121 157.612C39.9411 157.612 39.7102 157.517 39.5193 157.326C39.3285 157.135 39.2331 156.904 39.2331 156.633C39.2331 156.362 39.3285 156.131 39.5193 155.94C39.7102 155.749 39.9411 155.654 40.2121 155.654C40.4831 155.654 40.714 155.749 40.9049 155.94C41.0957 156.131 41.1911 156.362 41.1911 156.633C41.1911 156.904 41.0957 157.135 40.9049 157.326C40.714 157.517 40.4831 157.612 40.2121 157.612ZM44.6391 157.612C44.3681 157.612 44.1372 157.517 43.9464 157.326C43.7555 157.135 43.6601 156.904 43.6601 156.633C43.6601 156.362 43.7555 156.131 43.9464 155.94C44.1372 155.749 44.3681 155.654 44.6391 155.654C44.9102 155.654 45.1411 155.749 45.3319 155.94C45.5228 156.131 45.6182 156.362 45.6182 156.633C45.6182 156.904 45.5228 157.135 45.3319 157.326C45.1411 157.517 44.9102 157.612 44.6391 157.612ZM32.8054 165.977C32.2463 165.977 31.7731 165.783 31.3857 165.396C30.9984 165.008 30.8047 164.535 30.8047 163.976V149.162C30.8047 148.603 30.9984 148.13 31.3857 147.743C31.7731 147.355 32.2463 147.162 32.8054 147.162H34.3378V144.821H36.0405V147.162H44.4263V144.821H46.0864V147.162H47.6188C48.1779 147.162 48.6511 147.355 49.0385 147.743C49.4258 148.13 49.6195 148.603 49.6195 149.162V163.976C49.6195 164.535 49.4258 165.008 49.0385 165.396C48.6511 165.783 48.1779 165.977 47.6188 165.977H32.8054ZM32.8054 164.316H47.6188C47.704 164.316 47.782 164.281 47.853 164.21C47.9239 164.139 47.9594 164.061 47.9594 163.976V153.589H32.4648V163.976C32.4648 164.061 32.5003 164.139 32.5712 164.21C32.6422 164.281 32.7202 164.316 32.8054 164.316ZM32.4648 151.929H47.9594V149.162C47.9594 149.077 47.9239 148.999 47.853 148.928C47.782 148.857 47.704 148.822 47.6188 148.822H32.8054C32.7202 148.822 32.6422 148.857 32.5712 148.928C32.5003 148.999 32.4648 149.077 32.4648 149.162V151.929Z" fill="#222222"/>
</g>
<path d="M72.7312 149.084H74.6932L79.0133 159.635H79.1642L83.4907 149.084H85.4464V161.962H83.912V152.272H83.7862L79.8057 161.956H78.3719L74.3976 152.272H74.2719V161.962H72.7312V149.084ZM92.3887 162.163C91.4539 162.163 90.6469 161.958 89.9677 161.547C89.2928 161.132 88.7729 160.554 88.4082 159.812C88.0477 159.065 87.8674 158.198 87.8674 157.208C87.8674 156.219 88.0477 155.347 88.4082 154.592C88.7729 153.833 89.2823 153.242 89.9363 152.819C90.5945 152.391 91.3616 152.177 92.2378 152.177C92.7493 152.177 93.2524 152.263 93.747 152.435C94.2417 152.603 94.6903 152.875 95.0928 153.253C95.4994 153.63 95.8201 154.127 96.0549 154.743C96.2938 155.359 96.4133 156.116 96.4133 157.013V157.648H88.9238V156.34H94.8412C94.8412 155.804 94.7343 155.328 94.5205 154.913C94.3067 154.494 94.0049 154.162 93.615 153.919C93.2251 153.676 92.7681 153.555 92.2441 153.555C91.6656 153.555 91.1646 153.697 90.7412 153.982C90.3178 154.267 89.9929 154.638 89.7665 155.095C89.5401 155.548 89.4269 156.034 89.4269 156.554V157.46C89.4269 158.172 89.5506 158.776 89.7979 159.271C90.0495 159.765 90.3974 160.143 90.8418 160.403C91.2862 160.658 91.8018 160.786 92.3887 160.786C92.7744 160.786 93.1224 160.732 93.4326 160.623C93.7429 160.514 94.0112 160.348 94.2375 160.126C94.4681 159.904 94.6442 159.629 94.7658 159.302L96.2687 159.686C96.122 160.18 95.8683 160.614 95.5078 160.987C95.1515 161.361 94.7071 161.65 94.1747 161.855C93.6464 162.061 93.0511 162.163 92.3887 162.163ZM102.713 162.163C101.778 162.163 100.971 161.958 100.292 161.547C99.6167 161.132 99.0969 160.554 98.7322 159.812C98.3716 159.065 98.1914 158.198 98.1914 157.208C98.1914 156.219 98.3716 155.347 98.7322 154.592C99.0969 153.833 99.6063 153.242 100.26 152.819C100.918 152.391 101.686 152.177 102.562 152.177C103.073 152.177 103.576 152.263 104.071 152.435C104.566 152.603 105.014 152.875 105.417 153.253C105.823 153.63 106.144 154.127 106.379 154.743C106.618 155.359 106.737 156.116 106.737 157.013V157.648H99.2478V156.34H105.165C105.165 155.804 105.058 155.328 104.844 154.913C104.631 154.494 104.329 154.162 103.939 153.919C103.549 153.676 103.092 153.555 102.568 153.555C101.99 153.555 101.489 153.697 101.065 153.982C100.642 154.267 100.317 154.638 100.09 155.095C99.8641 155.548 99.7509 156.034 99.7509 156.554V157.46C99.7509 158.172 99.8746 158.776 100.122 159.271C100.373 159.765 100.721 160.143 101.166 160.403C101.61 160.658 102.126 160.786 102.713 160.786C103.098 160.786 103.446 160.732 103.757 160.623C104.067 160.514 104.335 160.348 104.562 160.126C104.792 159.904 104.968 159.629 105.09 159.302L106.593 159.686C106.446 160.18 106.192 160.614 105.832 160.987C105.475 161.361 105.031 161.65 104.499 161.855C103.97 162.061 103.375 162.163 102.713 162.163ZM113.225 152.303V153.611H108.163V152.303H113.225ZM109.616 149.989H111.175V159.183C111.175 159.589 111.236 159.895 111.358 160.101C111.479 160.302 111.634 160.436 111.823 160.503C112.016 160.57 112.219 160.604 112.433 160.604C112.597 160.604 112.731 160.595 112.835 160.579C112.944 160.558 113.03 160.541 113.093 160.528L113.401 161.906C113.297 161.943 113.152 161.983 112.968 162.025C112.783 162.067 112.55 162.088 112.27 162.088C111.838 162.088 111.418 161.998 111.012 161.818C110.605 161.637 110.27 161.361 110.006 160.987C109.746 160.614 109.616 160.145 109.616 159.579V149.989ZM115.429 161.962V152.303H116.995V161.962H115.429ZM116.222 150.718C115.924 150.718 115.668 150.618 115.455 150.417C115.245 150.215 115.14 149.972 115.14 149.687C115.14 149.406 115.245 149.165 115.455 148.964C115.668 148.759 115.924 148.656 116.222 148.656C116.519 148.656 116.773 148.759 116.983 148.964C117.196 149.165 117.303 149.406 117.303 149.687C117.303 149.972 117.196 150.215 116.983 150.417C116.773 150.618 116.519 150.718 116.222 150.718ZM121.232 156.164V161.962H119.666V152.303H121.175V153.825H121.301C121.523 153.33 121.867 152.932 122.333 152.63C122.798 152.328 123.395 152.177 124.125 152.177C124.779 152.177 125.351 152.312 125.841 152.58C126.332 152.848 126.713 153.253 126.986 153.794C127.258 154.33 127.395 155.007 127.395 155.825V161.962H125.835V155.95C125.835 155.204 125.64 154.621 125.25 154.202C124.86 153.779 124.328 153.567 123.653 153.567C123.188 153.567 122.773 153.67 122.408 153.875C122.043 154.077 121.756 154.372 121.546 154.762C121.337 155.148 121.232 155.615 121.232 156.164ZM134.007 165.786C133.278 165.786 132.651 165.691 132.127 165.503C131.607 165.318 131.175 165.075 130.831 164.773C130.488 164.471 130.219 164.146 130.026 163.798L131.297 163C131.427 163.18 131.592 163.381 131.793 163.603C131.995 163.83 132.271 164.025 132.624 164.188C132.976 164.352 133.437 164.433 134.007 164.433C134.774 164.433 135.407 164.247 135.906 163.874C136.405 163.505 136.654 162.924 136.654 162.132V160.183H136.529C136.42 160.363 136.264 160.583 136.063 160.843C135.862 161.099 135.575 161.325 135.202 161.522C134.833 161.715 134.338 161.811 133.718 161.811C132.942 161.811 132.246 161.629 131.63 161.264C131.014 160.895 130.525 160.359 130.165 159.654C129.808 158.95 129.63 158.093 129.63 157.082C129.63 156.089 129.804 155.225 130.152 154.492C130.5 153.754 130.982 153.184 131.599 152.781C132.219 152.379 132.934 152.177 133.743 152.177C134.363 152.177 134.858 152.28 135.227 152.486C135.6 152.691 135.887 152.926 136.088 153.19C136.29 153.45 136.445 153.668 136.554 153.844H136.705V152.303H138.22V162.226C138.22 163.056 138.032 163.733 137.654 164.257C137.277 164.781 136.77 165.167 136.132 165.414C135.495 165.662 134.787 165.786 134.007 165.786ZM133.963 160.434C134.546 160.434 135.038 160.3 135.441 160.032C135.847 159.763 136.155 159.378 136.365 158.875C136.575 158.367 136.68 157.762 136.68 157.057C136.68 156.374 136.577 155.77 136.371 155.246C136.166 154.718 135.86 154.305 135.453 154.007C135.051 153.71 134.554 153.561 133.963 153.561C133.347 153.561 132.833 153.718 132.422 154.032C132.016 154.347 131.71 154.768 131.504 155.296C131.299 155.825 131.196 156.412 131.196 157.057C131.196 157.724 131.299 158.311 131.504 158.818C131.714 159.321 132.024 159.717 132.435 160.006C132.846 160.292 133.355 160.434 133.963 160.434ZM152.737 154.504L151.328 154.869C151.245 154.647 151.123 154.431 150.964 154.221C150.804 154.012 150.588 153.84 150.316 153.705C150.043 153.571 149.695 153.504 149.272 153.504C148.694 153.504 148.211 153.636 147.826 153.9C147.44 154.16 147.247 154.494 147.247 154.9C147.247 155.261 147.377 155.548 147.637 155.762C147.901 155.971 148.314 156.145 148.876 156.284L150.335 156.636C151.203 156.845 151.848 157.164 152.272 157.592C152.699 158.019 152.913 158.573 152.913 159.252C152.913 159.809 152.752 160.308 152.429 160.748C152.11 161.184 151.666 161.53 151.096 161.786C150.526 162.038 149.861 162.163 149.102 162.163C148.1 162.163 147.272 161.945 146.618 161.509C145.964 161.073 145.554 160.442 145.386 159.617L146.876 159.277C147.006 159.788 147.256 160.172 147.624 160.428C147.998 160.684 148.484 160.811 149.083 160.811C149.758 160.811 150.295 160.669 150.693 160.384C151.096 160.095 151.297 159.747 151.297 159.34C151.297 159.009 151.18 158.732 150.945 158.51C150.714 158.288 150.36 158.12 149.882 158.007L148.266 157.636C147.377 157.426 146.723 157.099 146.304 156.655C145.889 156.21 145.681 155.653 145.681 154.982C145.681 154.433 145.836 153.949 146.147 153.529C146.457 153.106 146.882 152.775 147.423 152.536C147.964 152.297 148.578 152.177 149.266 152.177C150.238 152.177 151.003 152.391 151.561 152.819C152.119 153.242 152.511 153.804 152.737 154.504ZM159.073 162.163C158.159 162.163 157.373 161.95 156.714 161.522C156.056 161.094 155.551 160.505 155.199 159.755C154.847 159.005 154.671 158.147 154.671 157.183C154.671 156.202 154.851 155.336 155.211 154.586C155.576 153.831 156.086 153.242 156.74 152.819C157.398 152.391 158.167 152.177 159.047 152.177C159.735 152.177 160.353 152.305 160.902 152.561C161.456 152.817 161.907 153.175 162.254 153.636C162.607 154.093 162.823 154.628 162.902 155.24H161.349C161.24 154.8 160.993 154.41 160.607 154.07C160.225 153.731 159.714 153.561 159.073 153.561C158.507 153.561 158.01 153.71 157.582 154.007C157.159 154.301 156.828 154.716 156.589 155.252C156.354 155.785 156.236 156.412 156.236 157.133C156.236 157.871 156.352 158.512 156.582 159.057C156.817 159.602 157.146 160.025 157.57 160.327C157.997 160.629 158.498 160.78 159.073 160.78C159.454 160.78 159.798 160.713 160.104 160.579C160.414 160.445 160.676 160.252 160.89 160C161.108 159.749 161.261 159.447 161.349 159.095H162.902C162.823 159.677 162.617 160.199 162.286 160.66C161.955 161.122 161.517 161.488 160.972 161.761C160.427 162.029 159.794 162.163 159.073 162.163ZM166.592 156.164V161.962H165.026V149.084H166.586V153.825H166.711C166.938 153.322 167.279 152.922 167.736 152.624C168.193 152.326 168.799 152.177 169.554 152.177C170.212 152.177 170.788 152.309 171.283 152.574C171.782 152.838 172.168 153.24 172.44 153.781C172.717 154.318 172.855 154.999 172.855 155.825V161.962H171.289V155.95C171.289 155.196 171.094 154.611 170.704 154.196C170.315 153.777 169.774 153.567 169.082 153.567C168.604 153.567 168.177 153.67 167.799 153.875C167.426 154.077 167.131 154.372 166.913 154.762C166.699 155.148 166.592 155.615 166.592 156.164ZM179.598 162.163C178.663 162.163 177.856 161.958 177.177 161.547C176.502 161.132 175.982 160.554 175.617 159.812C175.257 159.065 175.077 158.198 175.077 157.208C175.077 156.219 175.257 155.347 175.617 154.592C175.982 153.833 176.491 153.242 177.145 152.819C177.804 152.391 178.571 152.177 179.447 152.177C179.958 152.177 180.461 152.263 180.956 152.435C181.451 152.603 181.899 152.875 182.302 153.253C182.709 153.63 183.029 154.127 183.264 154.743C183.503 155.359 183.622 156.116 183.622 157.013V157.648H176.133V156.34H182.05C182.05 155.804 181.943 155.328 181.73 154.913C181.516 154.494 181.214 154.162 180.824 153.919C180.434 153.676 179.977 153.555 179.453 153.555C178.875 153.555 178.374 153.697 177.95 153.982C177.527 154.267 177.202 154.638 176.976 155.095C176.749 155.548 176.636 156.034 176.636 156.554V157.46C176.636 158.172 176.76 158.776 177.007 159.271C177.259 159.765 177.607 160.143 178.051 160.403C178.495 160.658 179.011 160.786 179.598 160.786C179.984 160.786 180.332 160.732 180.642 160.623C180.952 160.514 181.22 160.348 181.447 160.126C181.677 159.904 181.853 159.629 181.975 159.302L183.478 159.686C183.331 160.18 183.077 160.614 182.717 160.987C182.361 161.361 181.916 161.65 181.384 161.855C180.856 162.061 180.26 162.163 179.598 162.163ZM189.488 162.163C188.687 162.163 187.979 161.96 187.362 161.553C186.75 161.143 186.27 160.564 185.922 159.818C185.574 159.072 185.4 158.185 185.4 157.158C185.4 156.135 185.574 155.252 185.922 154.51C186.27 153.764 186.752 153.19 187.369 152.787C187.989 152.381 188.704 152.177 189.513 152.177C190.134 152.177 190.626 152.28 190.991 152.486C191.36 152.691 191.643 152.926 191.84 153.19C192.037 153.45 192.19 153.668 192.299 153.844H192.425V149.084H193.984V161.962H192.475V160.472H192.299C192.19 160.656 192.033 160.883 191.827 161.151C191.626 161.415 191.339 161.65 190.966 161.855C190.593 162.061 190.1 162.163 189.488 162.163ZM189.733 160.774C190.316 160.774 190.809 160.621 191.211 160.315C191.618 160.004 191.926 159.577 192.135 159.032C192.345 158.487 192.45 157.854 192.45 157.133C192.45 156.42 192.347 155.797 192.142 155.265C191.936 154.728 191.63 154.311 191.224 154.014C190.821 153.712 190.324 153.561 189.733 153.561C189.117 153.561 188.603 153.72 188.193 154.039C187.786 154.353 187.48 154.781 187.274 155.322C187.069 155.858 186.966 156.462 186.966 157.133C186.966 157.812 187.069 158.428 187.274 158.981C187.484 159.531 187.794 159.967 188.205 160.289C188.616 160.612 189.125 160.774 189.733 160.774ZM202.956 158V152.303H204.522V161.962H202.962V160.321H202.862C202.635 160.816 202.281 161.235 201.799 161.579C201.321 161.918 200.72 162.088 199.994 162.088C199.386 162.088 198.846 161.954 198.372 161.685C197.902 161.417 197.533 161.015 197.265 160.478C196.997 159.937 196.863 159.258 196.863 158.441V152.303H198.428V158.315C198.428 159.011 198.623 159.566 199.013 159.981C199.403 160.392 199.902 160.598 200.51 160.598C200.875 160.598 201.246 160.505 201.623 160.321C202 160.132 202.317 159.847 202.573 159.466C202.828 159.084 202.956 158.596 202.956 158ZM208.77 149.084V161.962H207.204V149.084H208.77ZM215.516 162.163C214.581 162.163 213.774 161.958 213.095 161.547C212.42 161.132 211.9 160.554 211.535 159.812C211.175 159.065 210.994 158.198 210.994 157.208C210.994 156.219 211.175 155.347 211.535 154.592C211.9 153.833 212.409 153.242 213.063 152.819C213.721 152.391 214.489 152.177 215.365 152.177C215.876 152.177 216.379 152.263 216.874 152.435C217.369 152.603 217.817 152.875 218.22 153.253C218.626 153.63 218.947 154.127 219.182 154.743C219.421 155.359 219.54 156.116 219.54 157.013V157.648H212.051V156.34H217.968C217.968 155.804 217.861 155.328 217.647 154.913C217.434 154.494 217.132 154.162 216.742 153.919C216.352 153.676 215.895 153.555 215.371 153.555C214.792 153.555 214.292 153.697 213.868 153.982C213.445 154.267 213.12 154.638 212.893 155.095C212.667 155.548 212.554 156.034 212.554 156.554V157.46C212.554 158.172 212.677 158.776 212.925 159.271C213.176 159.765 213.524 160.143 213.969 160.403C214.413 160.658 214.929 160.786 215.516 160.786C215.901 160.786 216.249 160.732 216.56 160.623C216.87 160.514 217.138 160.348 217.364 160.126C217.595 159.904 217.771 159.629 217.893 159.302L219.396 159.686C219.249 160.18 218.995 160.614 218.635 160.987C218.278 161.361 217.834 161.65 217.302 161.855C216.773 162.061 216.178 162.163 215.516 162.163ZM228.688 154.504L227.28 154.869C227.196 154.647 227.074 154.431 226.915 154.221C226.756 154.012 226.54 153.84 226.267 153.705C225.995 153.571 225.647 153.504 225.223 153.504C224.645 153.504 224.163 153.636 223.777 153.9C223.391 154.16 223.198 154.494 223.198 154.9C223.198 155.261 223.328 155.548 223.588 155.762C223.852 155.971 224.265 156.145 224.827 156.284L226.286 156.636C227.154 156.845 227.8 157.164 228.223 157.592C228.651 158.019 228.864 158.573 228.864 159.252C228.864 159.809 228.703 160.308 228.38 160.748C228.062 161.184 227.617 161.53 227.047 161.786C226.477 162.038 225.812 162.163 225.054 162.163C224.052 162.163 223.224 161.945 222.57 161.509C221.916 161.073 221.505 160.442 221.337 159.617L222.827 159.277C222.957 159.788 223.207 160.172 223.576 160.428C223.949 160.684 224.435 160.811 225.035 160.811C225.71 160.811 226.246 160.669 226.645 160.384C227.047 160.095 227.248 159.747 227.248 159.34C227.248 159.009 227.131 158.732 226.896 158.51C226.665 158.288 226.311 158.12 225.833 158.007L224.217 157.636C223.328 157.426 222.674 157.099 222.255 156.655C221.84 156.21 221.633 155.653 221.633 154.982C221.633 154.433 221.788 153.949 222.098 153.529C222.408 153.106 222.834 152.775 223.375 152.536C223.915 152.297 224.53 152.177 225.217 152.177C226.19 152.177 226.955 152.391 227.512 152.819C228.07 153.242 228.462 153.804 228.688 154.504Z" fill="#222222"/>
<line x1="9.22656" y1="179.258" x2="376.194" y2="179.258" stroke="#D5DFFD" stroke-width="1.10676"/>
<line x1="9.22656" y1="179.258" x2="376.194" y2="179.258" stroke="#D5DFFD" stroke-width="1.10676"/>
<path d="M9.22656 184.238C9.22656 181.793 11.2086 179.811 13.6536 179.811L371.767 179.811C374.212 179.811 376.194 181.793 376.194 184.238V224.081C376.194 226.526 374.212 228.508 371.767 228.508L13.6536 228.508C11.2086 228.508 9.22656 226.526 9.22656 224.081L9.22656 184.238Z" fill="#FEFEFE"/>
<mask id="mask2_7130_36074" style="mask-type:alpha" maskUnits="userSpaceOnUse" x="26" y="190" width="28" height="28">
<rect x="26.9336" y="190.879" width="26.5622" height="26.5622" fill="#D9D9D9"/>
</mask>
<g mask="url(#mask2_7130_36074)">
<path d="M40.2142 213.684L29.4766 200.797L33.7439 194.476H46.6845L50.9519 200.797L40.2142 213.684ZM37.1387 200.01H43.2898L41.3529 196.136H39.0755L37.1387 200.01ZM39.3842 210.1V201.67H32.3796L39.3842 210.1ZM41.0443 210.1L48.0488 201.67H41.0443V210.1ZM45.135 200.01H48.6852L45.6416 196.136H43.1982L45.135 200.01ZM31.7432 200.01H35.2934L37.2303 196.136H34.7868L31.7432 200.01Z" fill="#222222"/>
</g>
<path d="M72.7312 197.781H74.6932L79.0133 208.333H79.1642L83.4907 197.781H85.4464V210.66H83.912V200.969H83.7862L79.8057 210.653H78.3719L74.3976 200.969H74.2719V210.66H72.7312V197.781ZM88.3139 210.66V201.001H89.8797V210.66H88.3139ZM89.1062 199.416C88.8086 199.416 88.5528 199.315 88.339 199.114C88.1294 198.913 88.0246 198.67 88.0246 198.385C88.0246 198.104 88.1294 197.863 88.339 197.662C88.5528 197.456 88.8086 197.353 89.1062 197.353C89.4039 197.353 89.6575 197.456 89.8671 197.662C90.0809 197.863 90.1878 198.104 90.1878 198.385C90.1878 198.67 90.0809 198.913 89.8671 199.114C89.6575 199.315 89.4039 199.416 89.1062 199.416ZM96.1917 210.861C95.3909 210.861 94.6824 210.658 94.0662 210.251C93.4541 209.84 92.9741 209.262 92.6261 208.515C92.2782 207.769 92.1042 206.882 92.1042 205.855C92.1042 204.832 92.2782 203.95 92.6261 203.208C92.9741 202.462 93.4562 201.887 94.0725 201.485C94.6929 201.078 95.4077 200.875 96.2168 200.875C96.8373 200.875 97.3299 200.978 97.6946 201.183C98.0635 201.388 98.3465 201.623 98.5435 201.887C98.7406 202.147 98.8936 202.365 99.0026 202.541H99.1283V197.781H100.688V210.66H99.1786V209.169H99.0026C98.8936 209.354 98.7364 209.58 98.5309 209.848C98.3297 210.113 98.0425 210.347 97.6694 210.553C97.2963 210.758 96.8037 210.861 96.1917 210.861ZM96.4369 209.471C97.0196 209.471 97.5122 209.318 97.9147 209.012C98.3213 208.702 98.6295 208.274 98.8391 207.729C99.0487 207.184 99.1535 206.551 99.1535 205.83C99.1535 205.117 99.0508 204.495 98.8454 203.963C98.6399 203.426 98.3339 203.009 97.9273 202.711C97.5248 202.409 97.028 202.258 96.4369 202.258C95.8206 202.258 95.3071 202.418 94.8962 202.736C94.4896 203.051 94.1836 203.478 93.9781 204.019C93.7727 204.556 93.67 205.159 93.67 205.83C93.67 206.509 93.7727 207.126 93.9781 207.679C94.1878 208.228 94.498 208.664 94.9088 208.987C95.3197 209.31 95.829 209.471 96.4369 209.471ZM105.736 210.66L102.812 201.001H104.447L106.497 208.333H106.597L108.629 201.001H110.282L112.288 208.308H112.389L114.439 201.001H116.074L113.15 210.66H111.603L109.515 203.327H109.371L107.283 210.66H105.736ZM121.752 210.861C120.818 210.861 120.011 210.655 119.331 210.245C118.656 209.83 118.137 209.251 117.772 208.509C117.411 207.763 117.231 206.895 117.231 205.906C117.231 204.916 117.411 204.044 117.772 203.29C118.137 202.531 118.646 201.94 119.3 201.516C119.958 201.089 120.725 200.875 121.602 200.875C122.113 200.875 122.616 200.961 123.111 201.133C123.605 201.3 124.054 201.573 124.456 201.95C124.863 202.328 125.184 202.824 125.419 203.441C125.658 204.057 125.777 204.814 125.777 205.711V206.346H118.288V205.038H124.205C124.205 204.501 124.098 204.025 123.884 203.61C123.67 203.191 123.369 202.86 122.979 202.617C122.589 202.374 122.132 202.252 121.608 202.252C121.029 202.252 120.528 202.395 120.105 202.68C119.681 202.965 119.357 203.336 119.13 203.793C118.904 204.245 118.791 204.732 118.791 205.252V206.157C118.791 206.87 118.914 207.474 119.162 207.968C119.413 208.463 119.761 208.84 120.205 209.1C120.65 209.356 121.166 209.484 121.752 209.484C122.138 209.484 122.486 209.429 122.796 209.32C123.107 209.211 123.375 209.046 123.601 208.823C123.832 208.601 124.008 208.327 124.129 208L125.632 208.383C125.486 208.878 125.232 209.312 124.871 209.685C124.515 210.058 124.071 210.347 123.538 210.553C123.01 210.758 122.415 210.861 121.752 210.861ZM132.076 210.861C131.142 210.861 130.335 210.655 129.655 210.245C128.98 209.83 128.461 209.251 128.096 208.509C127.735 207.763 127.555 206.895 127.555 205.906C127.555 204.916 127.735 204.044 128.096 203.29C128.461 202.531 128.97 201.94 129.624 201.516C130.282 201.089 131.049 200.875 131.925 200.875C132.437 200.875 132.94 200.961 133.435 201.133C133.929 201.3 134.378 201.573 134.78 201.95C135.187 202.328 135.508 202.824 135.743 203.441C135.982 204.057 136.101 204.814 136.101 205.711V206.346H128.612V205.038H134.529C134.529 204.501 134.422 204.025 134.208 203.61C133.994 203.191 133.693 202.86 133.303 202.617C132.913 202.374 132.456 202.252 131.932 202.252C131.353 202.252 130.852 202.395 130.429 202.68C130.005 202.965 129.681 203.336 129.454 203.793C129.228 204.245 129.115 204.732 129.115 205.252V206.157C129.115 206.87 129.238 207.474 129.486 207.968C129.737 208.463 130.085 208.84 130.529 209.1C130.974 209.356 131.49 209.484 132.076 209.484C132.462 209.484 132.81 209.429 133.12 209.32C133.431 209.211 133.699 209.046 133.925 208.823C134.156 208.601 134.332 208.327 134.453 208L135.956 208.383C135.81 208.878 135.556 209.312 135.195 209.685C134.839 210.058 134.395 210.347 133.862 210.553C133.334 210.758 132.739 210.861 132.076 210.861ZM139.778 207.188L139.753 205.258H140.061L144.211 201.001H146.129L141.652 205.572H141.495L139.778 207.188ZM138.326 210.66V197.781H139.891V210.66H138.326ZM144.457 210.66L140.747 205.918L141.847 204.83L146.425 210.66H144.457ZM152.938 210.66V201.001H154.447V202.522H154.573C154.774 202.003 155.099 201.598 155.548 201.309C155.996 201.02 156.537 200.875 157.17 200.875C157.808 200.875 158.34 201.02 158.768 201.309C159.195 201.598 159.526 202.003 159.761 202.522H159.862C160.105 202.019 160.474 201.619 160.968 201.321C161.467 201.024 162.063 200.875 162.754 200.875C163.622 200.875 164.331 201.145 164.88 201.686C165.429 202.227 165.704 203.063 165.704 204.195V210.66H164.144V204.227C164.144 203.527 163.951 203.026 163.566 202.724C163.184 202.418 162.733 202.265 162.214 202.265C161.547 202.265 161.029 202.466 160.66 202.868C160.296 203.271 160.113 203.78 160.113 204.396V210.66H158.529V204.082C158.529 203.537 158.353 203.099 158 202.768C157.652 202.432 157.202 202.265 156.648 202.265C156.267 202.265 155.913 202.365 155.586 202.566C155.263 202.768 155.001 203.047 154.8 203.403C154.603 203.759 154.504 204.172 154.504 204.642V210.66H152.938ZM172.456 210.861C171.521 210.861 170.714 210.655 170.035 210.245C169.36 209.83 168.84 209.251 168.475 208.509C168.115 207.763 167.934 206.895 167.934 205.906C167.934 204.916 168.115 204.044 168.475 203.29C168.84 202.531 169.349 201.94 170.003 201.516C170.662 201.089 171.429 200.875 172.305 200.875C172.816 200.875 173.319 200.961 173.814 201.133C174.309 201.3 174.757 201.573 175.16 201.95C175.566 202.328 175.887 202.824 176.122 203.441C176.361 204.057 176.48 204.814 176.48 205.711V206.346L168.991 206.346V205.038H174.908C174.908 204.501 174.801 204.025 174.588 203.61C174.374 203.191 174.072 202.86 173.682 202.617C173.292 202.374 172.835 202.252 172.311 202.252C171.733 202.252 171.232 202.395 170.808 202.68C170.385 202.965 170.06 203.336 169.834 203.793C169.607 204.245 169.494 204.732 169.494 205.252V206.157C169.494 206.87 169.618 207.474 169.865 207.968C170.117 208.463 170.464 208.84 170.909 209.1C171.353 209.356 171.869 209.484 172.456 209.484C172.842 209.484 173.189 209.429 173.5 209.32C173.81 209.211 174.078 209.046 174.305 208.823C174.535 208.601 174.711 208.327 174.833 208L176.336 208.383C176.189 208.878 175.935 209.312 175.575 209.685C175.219 210.058 174.774 210.347 174.242 210.553C173.713 210.758 173.118 210.861 172.456 210.861ZM182.78 210.861C181.845 210.861 181.038 210.655 180.359 210.245C179.684 209.83 179.164 209.251 178.799 208.509C178.439 207.763 178.258 206.895 178.258 205.906C178.258 204.916 178.439 204.044 178.799 203.29C179.164 202.531 179.673 201.94 180.327 201.516C180.986 201.089 181.753 200.875 182.629 200.875C183.14 200.875 183.643 200.961 184.138 201.133C184.633 201.3 185.081 201.573 185.484 201.95C185.89 202.328 186.211 202.824 186.446 203.441C186.685 204.057 186.804 204.814 186.804 205.711V206.346H179.315V205.038H185.232C185.232 204.501 185.125 204.025 184.912 203.61C184.698 203.191 184.396 202.86 184.006 202.617C183.616 202.374 183.159 202.252 182.635 202.252C182.057 202.252 181.556 202.395 181.132 202.68C180.709 202.965 180.384 203.336 180.158 203.793C179.931 204.245 179.818 204.732 179.818 205.252V206.157C179.818 206.87 179.942 207.474 180.189 207.968C180.441 208.463 180.788 208.84 181.233 209.1C181.677 209.356 182.193 209.484 182.78 209.484C183.165 209.484 183.513 209.429 183.824 209.32C184.134 209.211 184.402 209.046 184.629 208.823C184.859 208.601 185.035 208.327 185.157 208L186.66 208.383C186.513 208.878 186.259 209.312 185.899 209.685C185.543 210.058 185.098 210.347 184.566 210.553C184.037 210.758 183.442 210.861 182.78 210.861ZM193.292 201.001V202.309H188.23V201.001H193.292ZM189.683 198.687H191.242V207.88C191.242 208.287 191.303 208.593 191.425 208.798C191.546 209 191.701 209.134 191.89 209.201C192.083 209.268 192.286 209.301 192.5 209.301C192.664 209.301 192.798 209.293 192.903 209.276C193.012 209.255 193.097 209.238 193.16 209.226L193.469 210.603C193.364 210.641 193.219 210.681 193.035 210.723C192.85 210.764 192.617 210.785 192.337 210.785C191.905 210.785 191.486 210.695 191.079 210.515C190.672 210.335 190.337 210.058 190.073 209.685C189.813 209.312 189.683 208.842 189.683 208.276V198.687ZM195.497 210.66V201.001H197.062V210.66H195.497ZM196.289 199.416C195.991 199.416 195.735 199.315 195.522 199.114C195.312 198.913 195.207 198.67 195.207 198.385C195.207 198.104 195.312 197.863 195.522 197.662C195.735 197.456 195.991 197.353 196.289 197.353C196.587 197.353 196.84 197.456 197.05 197.662C197.264 197.863 197.37 198.104 197.37 198.385C197.37 198.67 197.264 198.913 197.05 199.114C196.84 199.315 196.587 199.416 196.289 199.416ZM201.299 204.862V210.66H199.733V201.001H201.243V202.522H201.368C201.591 202.028 201.934 201.63 202.4 201.328C202.865 201.026 203.462 200.875 204.192 200.875C204.846 200.875 205.418 201.009 205.909 201.277C206.399 201.546 206.781 201.95 207.053 202.491C207.326 203.028 207.462 203.705 207.462 204.522V210.66H205.902V204.648C205.902 203.902 205.707 203.319 205.317 202.9C204.928 202.476 204.395 202.265 203.72 202.265C203.255 202.265 202.84 202.367 202.475 202.573C202.11 202.774 201.823 203.07 201.614 203.459C201.404 203.845 201.299 204.313 201.299 204.862ZM214.074 214.483C213.345 214.483 212.718 214.389 212.194 214.2C211.674 214.016 211.242 213.772 210.898 213.471C210.555 213.169 210.286 212.844 210.093 212.496L211.364 211.697C211.494 211.878 211.659 212.079 211.861 212.301C212.062 212.527 212.338 212.722 212.691 212.886C213.043 213.049 213.504 213.131 214.074 213.131C214.841 213.131 215.474 212.944 215.973 212.571C216.472 212.202 216.721 211.622 216.721 210.829V208.88H216.596C216.487 209.06 216.332 209.28 216.13 209.54C215.929 209.796 215.642 210.022 215.269 210.219C214.9 210.412 214.405 210.509 213.785 210.509C213.009 210.509 212.313 210.326 211.697 209.962C211.081 209.593 210.592 209.056 210.232 208.352C209.875 207.648 209.697 206.79 209.697 205.78C209.697 204.786 209.871 203.923 210.219 203.189C210.567 202.451 211.049 201.881 211.666 201.479C212.286 201.076 213.001 200.875 213.81 200.875C214.43 200.875 214.925 200.978 215.294 201.183C215.667 201.388 215.954 201.623 216.155 201.887C216.357 202.147 216.512 202.365 216.621 202.541H216.772V201.001H218.287V210.924C218.287 211.754 218.099 212.431 217.721 212.955C217.344 213.479 216.837 213.865 216.2 214.112C215.562 214.359 214.854 214.483 214.074 214.483ZM214.03 209.132C214.613 209.132 215.105 208.997 215.508 208.729C215.914 208.461 216.223 208.075 216.432 207.572C216.642 207.065 216.747 206.459 216.747 205.755C216.747 205.071 216.644 204.468 216.438 203.944C216.233 203.415 215.927 203.002 215.52 202.705C215.118 202.407 214.621 202.258 214.03 202.258C213.414 202.258 212.9 202.416 212.489 202.73C212.083 203.044 211.777 203.466 211.571 203.994C211.366 204.522 211.263 205.109 211.263 205.755C211.263 206.421 211.366 207.008 211.571 207.515C211.781 208.019 212.091 208.415 212.502 208.704C212.913 208.989 213.422 209.132 214.03 209.132Z" fill="#222222"/>
<line x1="9.22656" y1="227.955" x2="376.194" y2="227.955" stroke="#D5DFFD" stroke-width="1.10676"/>
<path d="M9.22656 232.935C9.22656 230.49 11.2086 228.508 13.6536 228.508L371.767 228.508C374.212 228.508 376.194 230.49 376.194 232.935V272.779C376.194 275.224 374.212 277.206 371.767 277.206H13.6536C11.2086 277.206 9.22656 275.224 9.22656 272.779L9.22656 232.935Z" fill="#FEFEFE"/>
<mask id="mask3_7130_36074" style="mask-type:alpha" maskUnits="userSpaceOnUse" x="28" y="240" width="25" height="26">
<rect x="28.0391" y="240.683" width="24.3487" height="24.3487" fill="#D9D9D9"/>
</mask>
<g mask="url(#mask3_7130_36074)">
<path fill-rule="evenodd" clip-rule="evenodd" d="M31.8768 257.728L33.0464 261.513H38.1003V263.002H32.5098C32.1339 263.002 31.8028 262.767 31.6968 262.423L30.1053 257.273C29.9456 256.756 30.3526 256.239 30.9184 256.239H49.5126C50.1048 256.239 50.5144 256.802 50.3058 257.33L48.2687 262.48C48.1444 262.794 47.8284 263.002 47.4755 263.002H41.9466V261.513H46.9792L48.4764 257.728H31.8768Z" fill="#222222"/>
<path fill-rule="evenodd" clip-rule="evenodd" d="M33.1133 253.35V255.393H34.5498V254.015H34.5336V253.35C34.5336 253.158 34.5831 252.987 34.682 252.838C34.781 252.688 34.9379 252.557 35.1527 252.445C35.9321 252.055 36.7345 251.76 37.56 251.559C38.3855 251.358 39.2705 251.258 40.215 251.258C41.1595 251.258 42.0444 251.358 42.87 251.559C43.6954 251.76 44.4979 252.055 45.2773 252.445C45.4921 252.557 45.649 252.688 45.748 252.838C45.8469 252.987 45.8964 253.158 45.8964 253.35V253.491H45.9126V255.393H47.3167V253.35C47.3167 252.877 47.1907 252.454 46.9388 252.082C46.687 251.71 46.3506 251.421 45.9296 251.214C45.0298 250.787 44.1249 250.458 43.215 250.226C42.3051 249.995 41.3051 249.879 40.215 249.879C39.1248 249.879 38.1248 249.995 37.215 250.226C36.3051 250.458 35.4002 250.787 34.5003 251.214C34.0794 251.421 33.743 251.71 33.4911 252.082C33.2392 252.454 33.1133 252.877 33.1133 253.35ZM37.8744 247.693C38.5234 248.323 39.3036 248.638 40.215 248.638C41.1264 248.638 41.9066 248.323 42.5556 247.693C43.2046 247.063 43.5291 246.306 43.5291 245.421C43.5291 244.537 43.2046 243.779 42.5556 243.15C41.9066 242.52 41.1264 242.205 40.215 242.205C39.3036 242.205 38.5234 242.52 37.8744 243.15C37.2254 243.779 36.9009 244.537 36.9009 245.421C36.9009 246.306 37.2254 247.063 37.8744 247.693ZM41.5525 246.72C41.1816 247.08 40.7358 247.259 40.215 247.259C39.6942 247.259 39.2484 247.08 38.8775 246.72C38.5066 246.36 38.3212 245.927 38.3212 245.421C38.3212 244.916 38.5066 244.483 38.8775 244.123C39.2484 243.763 39.6942 243.583 40.215 243.583C40.7358 243.583 41.1816 243.763 41.5525 244.123C41.9234 244.483 42.1088 244.916 42.1088 245.421C42.1088 245.927 41.9234 246.36 41.5525 246.72Z" fill="#222222"/>
<path d="M40.3132 253.132L43.2617 252.35L43.2617 255.393L40.3132 254.508L37.1745 255.393L37.1745 252.35L40.3132 253.132Z" fill="#222222"/>
<path fill-rule="evenodd" clip-rule="evenodd" d="M37.957 259.621L42.466 259.621L42.466 264.13L41.1622 264.13L41.1622 261.103L39.2608 261.103L39.2608 264.13L37.957 264.13L37.957 259.621Z" fill="#222222"/>
</g>
<path d="M75.1082 259.357L71.5804 246.478H73.2531L75.9068 256.867H76.0326L78.7492 246.478H80.5603L83.2769 256.867H83.4026L86.0563 246.478H87.7353L84.2013 259.357H82.5222L79.705 249.22H79.6044L76.7872 259.357H75.1082ZM92.5963 259.558C91.6614 259.558 90.8544 259.353 90.1752 258.942C89.5003 258.527 88.9804 257.948 88.6157 257.206C88.2552 256.46 88.0749 255.592 88.0749 254.603C88.0749 253.614 88.2552 252.742 88.6157 251.987C88.9804 251.228 89.4898 250.637 90.1438 250.214C90.802 249.786 91.5692 249.572 92.4453 249.572C92.9568 249.572 93.4599 249.658 93.9546 249.83C94.4492 249.998 94.8978 250.27 95.3003 250.647C95.7069 251.025 96.0276 251.522 96.2624 252.138C96.5014 252.754 96.6208 253.511 96.6208 254.408V255.043H89.1314V253.735H95.0487C95.0487 253.198 94.9418 252.723 94.728 252.308C94.5142 251.888 94.2124 251.557 93.8225 251.314C93.4326 251.071 92.9757 250.949 92.4516 250.949C91.8731 250.949 91.3721 251.092 90.9487 251.377C90.5253 251.662 90.2004 252.033 89.974 252.49C89.7476 252.943 89.6344 253.429 89.6344 253.949V254.854C89.6344 255.567 89.7581 256.171 90.0054 256.665C90.257 257.16 90.6049 257.537 91.0493 257.797C91.4937 258.053 92.0093 258.181 92.5963 258.181C92.982 258.181 93.3299 258.127 93.6401 258.018C93.9504 257.909 94.2187 257.743 94.4451 257.521C94.6756 257.299 94.8517 257.024 94.9733 256.697L96.4762 257.081C96.3295 257.575 96.0758 258.009 95.7153 258.382C95.359 258.755 94.9146 259.045 94.3822 259.25C93.8539 259.455 93.2586 259.558 92.5963 259.558ZM102.92 259.558C101.985 259.558 101.178 259.353 100.499 258.942C99.8243 258.527 99.3044 257.948 98.9397 257.206C98.5792 256.46 98.3989 255.592 98.3989 254.603C98.3989 253.614 98.5792 252.742 98.9397 251.987C99.3044 251.228 99.8138 250.637 100.468 250.214C101.126 249.786 101.893 249.572 102.769 249.572C103.281 249.572 103.784 249.658 104.279 249.83C104.773 249.998 105.222 250.27 105.624 250.647C106.031 251.025 106.352 251.522 106.586 252.138C106.825 252.754 106.945 253.511 106.945 254.408V255.043H99.4553V253.735H105.373C105.373 253.198 105.266 252.723 105.052 252.308C104.838 251.888 104.536 251.557 104.146 251.314C103.757 251.071 103.3 250.949 102.776 250.949C102.197 250.949 101.696 251.092 101.273 251.377C100.849 251.662 100.524 252.033 100.298 252.49C100.072 252.943 99.9584 253.429 99.9584 253.949V254.854C99.9584 255.567 100.082 256.171 100.329 256.665C100.581 257.16 100.929 257.537 101.373 257.797C101.818 258.053 102.333 258.181 102.92 258.181C103.306 258.181 103.654 258.127 103.964 258.018C104.274 257.909 104.543 257.743 104.769 257.521C105 257.299 105.176 257.024 105.297 256.697L106.8 257.081C106.653 257.575 106.4 258.009 106.039 258.382C105.683 258.755 105.239 259.045 104.706 259.25C104.178 259.455 103.583 259.558 102.92 259.558ZM110.622 255.886L110.597 253.955H110.905L115.055 249.698H116.973L112.496 254.27H112.339L110.622 255.886ZM109.169 259.357V246.478H110.735V259.357H109.169ZM115.301 259.357L111.59 254.615L112.691 253.528L117.269 259.357H115.301ZM122.531 259.558C121.596 259.558 120.789 259.353 120.11 258.942C119.435 258.527 118.915 257.948 118.55 257.206C118.19 256.46 118.009 255.592 118.009 254.603C118.009 253.614 118.19 252.742 118.55 251.987C118.915 251.228 119.424 250.637 120.078 250.214C120.736 249.786 121.504 249.572 122.38 249.572C122.891 249.572 123.394 249.658 123.889 249.83C124.384 249.998 124.832 250.27 125.235 250.647C125.641 251.025 125.962 251.522 126.197 252.138C126.436 252.754 126.555 253.511 126.555 254.408V255.043H119.066V253.735H124.983C124.983 253.198 124.876 252.723 124.662 252.308C124.449 251.888 124.147 251.557 123.757 251.314C123.367 251.071 122.91 250.949 122.386 250.949C121.807 250.949 121.306 251.092 120.883 251.377C120.46 251.662 120.135 252.033 119.908 252.49C119.682 252.943 119.569 253.429 119.569 253.949V254.854C119.569 255.567 119.692 256.171 119.94 256.665C120.191 257.16 120.539 257.537 120.984 257.797C121.428 258.053 121.944 258.181 122.531 258.181C122.916 258.181 123.264 258.127 123.575 258.018C123.885 257.909 124.153 257.743 124.379 257.521C124.61 257.299 124.786 257.024 124.908 256.697L126.411 257.081C126.264 257.575 126.01 258.009 125.65 258.382C125.293 258.755 124.849 259.045 124.317 259.25C123.788 259.455 123.193 259.558 122.531 259.558ZM130.346 253.559V259.357H128.78V249.698H130.289V251.22H130.415C130.637 250.725 130.981 250.327 131.446 250.025C131.911 249.723 132.509 249.572 133.238 249.572C133.892 249.572 134.464 249.706 134.955 249.975C135.445 250.243 135.827 250.647 136.099 251.188C136.372 251.725 136.508 252.402 136.508 253.219V259.357H134.949V253.345C134.949 252.599 134.754 252.016 134.364 251.597C133.974 251.174 133.442 250.962 132.767 250.962C132.301 250.962 131.886 251.065 131.521 251.27C131.157 251.471 130.87 251.767 130.66 252.157C130.45 252.542 130.346 253.01 130.346 253.559ZM142.831 259.558C142.03 259.558 141.322 259.355 140.706 258.948C140.094 258.537 139.614 257.959 139.266 257.213C138.918 256.466 138.744 255.58 138.744 254.553C138.744 253.53 138.918 252.647 139.266 251.905C139.614 251.159 140.096 250.585 140.712 250.182C141.332 249.776 142.047 249.572 142.856 249.572C143.477 249.572 143.969 249.675 144.334 249.88C144.703 250.086 144.986 250.321 145.183 250.585C145.38 250.845 145.533 251.063 145.642 251.239H145.768V246.478H147.327V259.357H145.818V257.867H145.642C145.533 258.051 145.376 258.277 145.17 258.546C144.969 258.81 144.682 259.045 144.309 259.25C143.936 259.455 143.443 259.558 142.831 259.558ZM143.076 258.168C143.659 258.168 144.152 258.015 144.554 257.709C144.961 257.399 145.269 256.972 145.479 256.427C145.688 255.882 145.793 255.249 145.793 254.527C145.793 253.815 145.69 253.192 145.485 252.66C145.279 252.123 144.973 251.706 144.567 251.408C144.164 251.107 143.668 250.956 143.076 250.956C142.46 250.956 141.947 251.115 141.536 251.434C141.129 251.748 140.823 252.176 140.618 252.716C140.412 253.253 140.31 253.857 140.31 254.527C140.31 255.207 140.412 255.823 140.618 256.376C140.827 256.925 141.137 257.361 141.548 257.684C141.959 258.007 142.469 258.168 143.076 258.168ZM155.134 259.357V249.698H156.644V251.22H156.769C156.971 250.7 157.296 250.295 157.744 250.006C158.193 249.717 158.733 249.572 159.367 249.572C160.004 249.572 160.536 249.717 160.964 250.006C161.391 250.295 161.723 250.7 161.957 251.22H162.058C162.301 250.717 162.67 250.316 163.165 250.019C163.664 249.721 164.259 249.572 164.951 249.572C165.818 249.572 166.527 249.843 167.076 250.383C167.625 250.924 167.9 251.761 167.9 252.892V259.357H166.34V252.924C166.34 252.224 166.147 251.723 165.762 251.421C165.38 251.115 164.93 250.962 164.41 250.962C163.743 250.962 163.225 251.163 162.857 251.566C162.492 251.968 162.309 252.477 162.309 253.094V259.357H160.725V252.779C160.725 252.234 160.549 251.796 160.197 251.465C159.849 251.13 159.398 250.962 158.845 250.962C158.463 250.962 158.109 251.063 157.782 251.264C157.459 251.465 157.197 251.744 156.996 252.1C156.799 252.456 156.7 252.869 156.7 253.339V259.357H155.134ZM174.652 259.558C173.717 259.558 172.91 259.353 172.231 258.942C171.556 258.527 171.036 257.948 170.671 257.206C170.311 256.46 170.131 255.592 170.131 254.603C170.131 253.614 170.311 252.742 170.671 251.987C171.036 251.228 171.546 250.637 172.2 250.214C172.858 249.786 173.625 249.572 174.501 249.572C175.013 249.572 175.516 249.658 176.01 249.83C176.505 249.998 176.954 250.27 177.356 250.647C177.763 251.025 178.083 251.522 178.318 252.138C178.557 252.754 178.677 253.511 178.677 254.408V255.043H171.187V253.735H177.105C177.105 253.198 176.998 252.723 176.784 252.308C176.57 251.888 176.268 251.557 175.878 251.314C175.488 251.071 175.031 250.949 174.507 250.949C173.929 250.949 173.428 251.092 173.004 251.377C172.581 251.662 172.256 252.033 172.03 252.49C171.803 252.943 171.69 253.429 171.69 253.949V254.854C171.69 255.567 171.814 256.171 172.061 256.665C172.313 257.16 172.661 257.537 173.105 257.797C173.549 258.053 174.065 258.181 174.652 258.181C175.038 258.181 175.386 258.127 175.696 258.018C176.006 257.909 176.274 257.743 176.501 257.521C176.731 257.299 176.907 257.024 177.029 256.697L178.532 257.081C178.385 257.575 178.132 258.009 177.771 258.382C177.415 258.755 176.97 259.045 176.438 259.25C175.91 259.455 175.314 259.558 174.652 259.558ZM184.976 259.558C184.041 259.558 183.234 259.353 182.555 258.942C181.88 258.527 181.36 257.948 180.995 257.206C180.635 256.46 180.455 255.592 180.455 254.603C180.455 253.614 180.635 252.742 180.995 251.987C181.36 251.228 181.87 250.637 182.524 250.214C183.182 249.786 183.949 249.572 184.825 249.572C185.337 249.572 185.84 249.658 186.334 249.83C186.829 249.998 187.278 250.27 187.68 250.647C188.087 251.025 188.407 251.522 188.642 252.138C188.881 252.754 189.001 253.511 189.001 254.408V255.043H181.511V253.735H187.428C187.428 253.198 187.322 252.723 187.108 252.308C186.894 251.888 186.592 251.557 186.202 251.314C185.812 251.071 185.355 250.949 184.831 250.949C184.253 250.949 183.752 251.092 183.328 251.377C182.905 251.662 182.58 252.033 182.354 252.49C182.127 252.943 182.014 253.429 182.014 253.949V254.854C182.014 255.567 182.138 256.171 182.385 256.665C182.637 257.16 182.985 257.537 183.429 257.797C183.873 258.053 184.389 258.181 184.976 258.181C185.362 258.181 185.71 258.127 186.02 258.018C186.33 257.909 186.598 257.743 186.825 257.521C187.055 257.299 187.231 257.024 187.353 256.697L188.856 257.081C188.709 257.575 188.456 258.009 188.095 258.382C187.739 258.755 187.294 259.045 186.762 259.25C186.234 259.455 185.638 259.558 184.976 259.558ZM195.489 249.698V251.006H190.426V249.698H195.489ZM191.879 247.384H193.439V256.577C193.439 256.984 193.499 257.29 193.621 257.496C193.743 257.697 193.898 257.831 194.086 257.898C194.279 257.965 194.483 257.999 194.696 257.999C194.86 257.999 194.994 257.99 195.099 257.973C195.208 257.953 195.294 257.936 195.357 257.923L195.665 259.3C195.56 259.338 195.415 259.378 195.231 259.42C195.046 259.462 194.814 259.483 194.533 259.483C194.101 259.483 193.682 259.393 193.275 259.212C192.868 259.032 192.533 258.755 192.269 258.382C192.009 258.009 191.879 257.54 191.879 256.974V247.384ZM197.693 259.357V249.698H199.259V259.357H197.693ZM198.485 248.113C198.187 248.113 197.932 248.013 197.718 247.811C197.508 247.61 197.403 247.367 197.403 247.082C197.403 246.801 197.508 246.56 197.718 246.359C197.932 246.153 198.187 246.051 198.485 246.051C198.783 246.051 199.036 246.153 199.246 246.359C199.46 246.56 199.567 246.801 199.567 247.082C199.567 247.367 199.46 247.61 199.246 247.811C199.036 248.013 198.783 248.113 198.485 248.113ZM203.495 253.559V259.357H201.93V249.698H203.439V251.22H203.565C203.787 250.725 204.13 250.327 204.596 250.025C205.061 249.723 205.659 249.572 206.388 249.572C207.042 249.572 207.614 249.706 208.105 249.975C208.595 250.243 208.977 250.647 209.249 251.188C209.522 251.725 209.658 252.402 209.658 253.219V259.357H208.098V253.345C208.098 252.599 207.904 252.016 207.514 251.597C207.124 251.174 206.591 250.962 205.916 250.962C205.451 250.962 205.036 251.065 204.671 251.27C204.307 251.471 204.019 251.767 203.81 252.157C203.6 252.542 203.495 253.01 203.495 253.559ZM216.27 263.18C215.541 263.18 214.914 263.086 214.39 262.897C213.87 262.713 213.438 262.47 213.095 262.168C212.751 261.866 212.483 261.541 212.29 261.193L213.56 260.395C213.69 260.575 213.855 260.776 214.057 260.998C214.258 261.225 214.535 261.42 214.887 261.583C215.239 261.747 215.7 261.828 216.27 261.828C217.037 261.828 217.67 261.642 218.169 261.269C218.668 260.9 218.918 260.319 218.918 259.527V257.577H218.792C218.683 257.758 218.528 257.978 218.327 258.238C218.125 258.493 217.838 258.72 217.465 258.917C217.096 259.11 216.601 259.206 215.981 259.206C215.205 259.206 214.509 259.024 213.893 258.659C213.277 258.29 212.789 257.753 212.428 257.049C212.072 256.345 211.894 255.487 211.894 254.477C211.894 253.484 212.067 252.62 212.415 251.886C212.763 251.148 213.246 250.578 213.862 250.176C214.482 249.773 215.197 249.572 216.006 249.572C216.627 249.572 217.121 249.675 217.49 249.88C217.863 250.086 218.15 250.321 218.352 250.585C218.553 250.845 218.708 251.063 218.817 251.239H218.968V249.698H220.483V259.621C220.483 260.451 220.295 261.128 219.918 261.652C219.54 262.176 219.033 262.562 218.396 262.809C217.758 263.057 217.05 263.18 216.27 263.18ZM216.226 257.829C216.809 257.829 217.302 257.695 217.704 257.426C218.111 257.158 218.419 256.772 218.628 256.269C218.838 255.762 218.943 255.156 218.943 254.452C218.943 253.769 218.84 253.165 218.635 252.641C218.429 252.113 218.123 251.7 217.717 251.402C217.314 251.104 216.817 250.956 216.226 250.956C215.61 250.956 215.096 251.113 214.686 251.427C214.279 251.742 213.973 252.163 213.767 252.691C213.562 253.219 213.459 253.806 213.459 254.452C213.459 255.119 213.562 255.705 213.767 256.213C213.977 256.716 214.287 257.112 214.698 257.401C215.109 257.686 215.618 257.829 216.226 257.829Z" fill="#222222"/>
<line x1="9.22656" y1="276.652" x2="376.194" y2="276.652" stroke="#D5DFFD" stroke-width="1.10676"/>
<rect width="366.967" height="53.1244" transform="translate(9.22656 277.206)" fill="#FEFEFE"/>
<mask id="mask4_7130_36074" style="mask-type:alpha" maskUnits="userSpaceOnUse" x="26" y="290" width="28" height="28">
<rect x="26.9336" y="290.487" width="26.5622" height="26.5622" fill="#D9D9D9"/>
</mask>
<g mask="url(#mask4_7130_36074)">
<path d="M32.8054 314.282C32.2463 314.282 31.7731 314.089 31.3857 313.701C30.9984 313.314 30.8047 312.841 30.8047 312.282V297.468C30.8047 296.909 30.9984 296.436 31.3857 296.048C31.7731 295.661 32.2463 295.467 32.8054 295.467H34.3378V293.126H36.0405V295.467H44.4263V293.126H46.0864V295.467H47.6188C48.1779 295.467 48.6511 295.661 49.0385 296.048C49.4258 296.436 49.6195 296.909 49.6195 297.468V303.938H47.9594V301.895H32.4648V312.282C32.4648 312.367 32.5003 312.445 32.5712 312.516C32.6422 312.587 32.7202 312.622 32.8054 312.622H40.3718V314.282H32.8054ZM47.9594 316.879C46.698 316.879 45.5877 316.491 44.6285 315.716C43.6693 314.94 43.0464 313.966 42.7598 312.792H44.1347C44.4029 313.611 44.8807 314.277 45.5682 314.79C46.2556 315.303 47.0527 315.559 47.9594 315.559C49.079 315.559 50.0328 315.165 50.821 314.377C51.6092 313.589 52.0033 312.635 52.0033 311.515C52.0033 310.396 51.6092 309.442 50.821 308.654C50.0328 307.866 49.079 307.471 47.9594 307.471C47.3535 307.471 46.781 307.602 46.2418 307.863C45.7026 308.124 45.2329 308.476 44.8328 308.919H46.6824V310.238H42.5959V306.152H43.9155V307.963C44.4277 307.42 45.0336 306.982 45.7331 306.65C46.4326 306.318 47.1747 306.152 47.9594 306.152C49.4408 306.152 50.705 306.675 51.7522 307.723C52.7994 308.77 53.3229 310.034 53.3229 311.515C53.3229 312.997 52.7994 314.261 51.7522 315.308C50.705 316.355 49.4408 316.879 47.9594 316.879ZM32.4648 300.235H47.9594V297.468C47.9594 297.383 47.9239 297.305 47.853 297.234C47.782 297.163 47.704 297.128 47.6188 297.128H32.8054C32.7202 297.128 32.6422 297.163 32.5712 297.234C32.5003 297.305 32.4648 297.383 32.4648 297.468V300.235Z" fill="#222222"/>
</g>
<path d="M72.7312 310.268V297.389H77.1331C78.1392 297.389 78.9651 297.561 79.6107 297.905C80.2605 298.245 80.7426 298.714 81.057 299.314C81.3715 299.909 81.5287 300.59 81.5287 301.357C81.5287 302.12 81.3715 302.797 81.057 303.389C80.7426 303.975 80.2626 304.437 79.617 304.772C78.9714 305.103 78.1497 305.269 77.152 305.269H73.6367V303.81H77.0765C77.7514 303.81 78.2964 303.711 78.7115 303.514C79.1307 303.317 79.4346 303.036 79.6233 302.672C79.8119 302.303 79.9063 301.865 79.9063 301.357C79.9063 300.846 79.8099 300.402 79.617 300.024C79.4284 299.643 79.1244 299.349 78.7052 299.144C78.286 298.934 77.7347 298.829 77.0513 298.829H74.3725V310.268H72.7312ZM78.8561 304.476L82.0255 310.268H80.1327L77.0136 304.476H78.8561ZM87.858 310.469C86.9231 310.469 86.1161 310.264 85.4369 309.853C84.762 309.438 84.2421 308.859 83.8774 308.117C83.5169 307.371 83.3366 306.503 83.3366 305.514C83.3366 304.525 83.5169 303.653 83.8774 302.898C84.2421 302.139 84.7515 301.548 85.4055 301.125C86.0637 300.697 86.8308 300.483 87.707 300.483C88.2185 300.483 88.7216 300.569 89.2162 300.741C89.7109 300.909 90.1595 301.181 90.562 301.559C90.9686 301.936 91.2893 302.433 91.5241 303.049C91.7631 303.665 91.8825 304.422 91.8825 305.319V305.954H84.393V304.646H90.3104C90.3104 304.11 90.2035 303.634 89.9897 303.219C89.7759 302.8 89.4741 302.468 89.0842 302.225C88.6943 301.982 88.2374 301.86 87.7133 301.86C87.1348 301.86 86.6338 302.003 86.2104 302.288C85.787 302.573 85.4621 302.944 85.2357 303.401C85.0093 303.854 84.8961 304.34 84.8961 304.86V305.766C84.8961 306.478 85.0198 307.082 85.2671 307.577C85.5187 308.071 85.8666 308.449 86.311 308.709C86.7554 308.964 87.271 309.092 87.858 309.092C88.2436 309.092 88.5916 309.038 88.9018 308.929C89.2121 308.82 89.4804 308.654 89.7067 308.432C89.9373 308.21 90.1134 307.935 90.235 307.608L91.7379 307.992C91.5912 308.486 91.3375 308.92 90.977 309.293C90.6207 309.666 90.1763 309.956 89.6439 310.161C89.1156 310.367 88.5203 310.469 87.858 310.469ZM98.4649 300.609V301.917H93.2078V300.609H98.4649ZM94.7548 310.268V299.32C94.7548 298.754 94.8847 298.284 95.1446 297.911C95.4088 297.534 95.7504 297.253 96.1696 297.069C96.5889 296.88 97.0333 296.786 97.5028 296.786C97.8717 296.786 98.1736 296.815 98.4083 296.874C98.6473 296.932 98.8255 296.987 98.9428 297.037L98.5152 298.37C98.4356 298.345 98.3287 298.314 98.1945 298.276C98.0646 298.238 97.8927 298.219 97.6789 298.219C97.1968 298.219 96.8488 298.341 96.635 298.584C96.4254 298.827 96.3206 299.184 96.3206 299.653V310.268H94.7548ZM100.523 310.268V300.609H102.032V302.081H102.133C102.309 301.594 102.625 301.202 103.082 300.905C103.543 300.607 104.061 300.458 104.635 300.458C104.749 300.458 104.885 300.462 105.044 300.471C105.208 300.475 105.333 300.481 105.421 300.49V302.055C105.367 302.043 105.247 302.024 105.063 301.999C104.883 301.969 104.694 301.955 104.497 301.955C104.036 301.955 103.623 302.051 103.258 302.244C102.898 302.437 102.613 302.703 102.403 303.043C102.193 303.382 102.089 303.768 102.089 304.2V310.268H100.523ZM110.927 310.469C109.992 310.469 109.185 310.264 108.506 309.853C107.831 309.438 107.311 308.859 106.946 308.117C106.586 307.371 106.406 306.503 106.406 305.514C106.406 304.525 106.586 303.653 106.946 302.898C107.311 302.139 107.82 301.548 108.474 301.125C109.133 300.697 109.9 300.483 110.776 300.483C111.287 300.483 111.791 300.569 112.285 300.741C112.78 300.909 113.229 301.181 113.631 301.559C114.038 301.936 114.358 302.433 114.593 303.049C114.832 303.665 114.952 304.422 114.952 305.319V305.954H107.462V304.646H113.379C113.379 304.11 113.273 303.634 113.059 303.219C112.845 302.8 112.543 302.468 112.153 302.225C111.763 301.982 111.306 301.86 110.782 301.86C110.204 301.86 109.703 302.003 109.279 302.288C108.856 302.573 108.531 302.944 108.305 303.401C108.078 303.854 107.965 304.34 107.965 304.86V305.766C107.965 306.478 108.089 307.082 108.336 307.577C108.588 308.071 108.936 308.449 109.38 308.709C109.824 308.964 110.34 309.092 110.927 309.092C111.313 309.092 111.661 309.038 111.971 308.929C112.281 308.82 112.549 308.654 112.776 308.432C113.006 308.21 113.182 307.935 113.304 307.608L114.807 307.992C114.66 308.486 114.407 308.92 114.046 309.293C113.69 309.666 113.245 309.956 112.713 310.161C112.185 310.367 111.589 310.469 110.927 310.469ZM124.1 302.81L122.691 303.175C122.607 302.953 122.486 302.737 122.326 302.527C122.167 302.317 121.951 302.146 121.679 302.011C121.406 301.877 121.058 301.81 120.635 301.81C120.056 301.81 119.574 301.942 119.188 302.206C118.803 302.466 118.61 302.8 118.61 303.206C118.61 303.567 118.74 303.854 119 304.068C119.264 304.277 119.677 304.451 120.239 304.59L121.697 304.942C122.565 305.151 123.211 305.47 123.634 305.898C124.062 306.325 124.276 306.879 124.276 307.558C124.276 308.115 124.114 308.614 123.791 309.054C123.473 309.49 123.028 309.836 122.458 310.092C121.888 310.344 121.224 310.469 120.465 310.469C119.463 310.469 118.635 310.251 117.981 309.815C117.327 309.379 116.916 308.748 116.748 307.922L118.239 307.583C118.369 308.094 118.618 308.478 118.987 308.734C119.36 308.989 119.847 309.117 120.446 309.117C121.121 309.117 121.658 308.975 122.056 308.69C122.458 308.4 122.66 308.052 122.66 307.646C122.66 307.315 122.542 307.038 122.307 306.816C122.077 306.594 121.723 306.426 121.245 306.313L119.629 305.942C118.74 305.732 118.086 305.405 117.667 304.961C117.252 304.516 117.044 303.959 117.044 303.288C117.044 302.739 117.199 302.255 117.509 301.835C117.82 301.412 118.245 301.081 118.786 300.842C119.327 300.603 119.941 300.483 120.628 300.483C121.601 300.483 122.366 300.697 122.924 301.125C123.481 301.548 123.873 302.11 124.1 302.81ZM128.046 304.47V310.268H126.48V297.389H128.039V302.131H128.165C128.391 301.628 128.733 301.227 129.19 300.93C129.647 300.632 130.253 300.483 131.007 300.483C131.666 300.483 132.242 300.615 132.737 300.879C133.236 301.144 133.621 301.546 133.894 302.087C134.17 302.623 134.309 303.305 134.309 304.131V310.268H132.743V304.256C132.743 303.502 132.548 302.917 132.158 302.502C131.768 302.083 131.227 301.873 130.536 301.873C130.058 301.873 129.63 301.976 129.253 302.181C128.88 302.382 128.584 302.678 128.366 303.068C128.152 303.454 128.046 303.921 128.046 304.47ZM148.829 302.81L147.42 303.175C147.336 302.953 147.215 302.737 147.055 302.527C146.896 302.317 146.68 302.146 146.408 302.011C146.135 301.877 145.787 301.81 145.364 301.81C144.785 301.81 144.303 301.942 143.917 302.206C143.532 302.466 143.339 302.8 143.339 303.206C143.339 303.567 143.469 303.854 143.729 304.068C143.993 304.277 144.406 304.451 144.968 304.59L146.427 304.942C147.294 305.151 147.94 305.47 148.363 305.898C148.791 306.325 149.005 306.879 149.005 307.558C149.005 308.115 148.843 308.614 148.521 309.054C148.202 309.49 147.758 309.836 147.187 310.092C146.617 310.344 145.953 310.469 145.194 310.469C144.192 310.469 143.364 310.251 142.71 309.815C142.056 309.379 141.645 308.748 141.478 307.922L142.968 307.583C143.098 308.094 143.347 308.478 143.716 308.734C144.089 308.989 144.576 309.117 145.175 309.117C145.85 309.117 146.387 308.975 146.785 308.69C147.187 308.4 147.389 308.052 147.389 307.646C147.389 307.315 147.271 307.038 147.037 306.816C146.806 306.594 146.452 306.426 145.974 306.313L144.358 305.942C143.469 305.732 142.815 305.405 142.396 304.961C141.981 304.516 141.773 303.959 141.773 303.288C141.773 302.739 141.928 302.255 142.238 301.835C142.549 301.412 142.974 301.081 143.515 300.842C144.056 300.603 144.67 300.483 145.358 300.483C146.33 300.483 147.095 300.697 147.653 301.125C148.21 301.548 148.602 302.11 148.829 302.81ZM155.164 310.469C154.25 310.469 153.464 310.255 152.806 309.828C152.148 309.4 151.643 308.811 151.291 308.061C150.938 307.31 150.762 306.453 150.762 305.489C150.762 304.508 150.943 303.642 151.303 302.892C151.668 302.137 152.177 301.548 152.831 301.125C153.489 300.697 154.259 300.483 155.139 300.483C155.827 300.483 156.445 300.611 156.994 300.867C157.548 301.123 157.998 301.481 158.346 301.942C158.698 302.399 158.914 302.934 158.994 303.546H157.441C157.332 303.106 157.084 302.716 156.699 302.376C156.317 302.037 155.806 301.867 155.164 301.867C154.598 301.867 154.102 302.016 153.674 302.313C153.251 302.607 152.919 303.022 152.68 303.558C152.446 304.091 152.328 304.718 152.328 305.439C152.328 306.176 152.443 306.818 152.674 307.363C152.909 307.908 153.238 308.331 153.661 308.633C154.089 308.935 154.59 309.086 155.164 309.086C155.546 309.086 155.89 309.019 156.196 308.885C156.506 308.75 156.768 308.558 156.982 308.306C157.2 308.055 157.353 307.753 157.441 307.401H158.994C158.914 307.983 158.709 308.505 158.378 308.966C158.046 309.428 157.608 309.794 157.063 310.067C156.518 310.335 155.885 310.469 155.164 310.469ZM162.684 304.47V310.268H161.118V297.389H162.677V302.131H162.803C163.03 301.628 163.371 301.227 163.828 300.93C164.285 300.632 164.891 300.483 165.645 300.483C166.304 300.483 166.88 300.615 167.375 300.879C167.874 301.144 168.259 301.546 168.532 302.087C168.809 302.623 168.947 303.305 168.947 304.131V310.268H167.381V304.256C167.381 303.502 167.186 302.917 166.796 302.502C166.406 302.083 165.866 301.873 165.174 301.873C164.696 301.873 164.268 301.976 163.891 302.181C163.518 302.382 163.222 302.678 163.004 303.068C162.791 303.454 162.684 303.921 162.684 304.47ZM175.69 310.469C174.755 310.469 173.948 310.264 173.269 309.853C172.594 309.438 172.074 308.859 171.709 308.117C171.349 307.371 171.168 306.503 171.168 305.514C171.168 304.525 171.349 303.653 171.709 302.898C172.074 302.139 172.583 301.548 173.237 301.125C173.895 300.697 174.663 300.483 175.539 300.483C176.05 300.483 176.553 300.569 177.048 300.741C177.543 300.909 177.991 301.181 178.394 301.559C178.8 301.936 179.121 302.433 179.356 303.049C179.595 303.665 179.714 304.422 179.714 305.319V305.954H172.225V304.646H178.142C178.142 304.11 178.035 303.634 177.821 303.219C177.608 302.8 177.306 302.468 176.916 302.225C176.526 301.982 176.069 301.86 175.545 301.86C174.966 301.86 174.465 302.003 174.042 302.288C173.619 302.573 173.294 302.944 173.067 303.401C172.841 303.854 172.728 304.34 172.728 304.86V305.766C172.728 306.478 172.851 307.082 173.099 307.577C173.35 308.071 173.698 308.449 174.143 308.709C174.587 308.964 175.103 309.092 175.69 309.092C176.075 309.092 176.423 309.038 176.734 308.929C177.044 308.82 177.312 308.654 177.538 308.432C177.769 308.21 177.945 307.935 178.067 307.608L179.57 307.992C179.423 308.486 179.169 308.92 178.809 309.293C178.452 309.666 178.008 309.956 177.476 310.161C176.947 310.367 176.352 310.469 175.69 310.469ZM185.58 310.469C184.779 310.469 184.07 310.266 183.454 309.859C182.842 309.448 182.362 308.87 182.014 308.124C181.666 307.377 181.492 306.491 181.492 305.464C181.492 304.441 181.666 303.558 182.014 302.816C182.362 302.07 182.844 301.496 183.461 301.093C184.081 300.687 184.796 300.483 185.605 300.483C186.225 300.483 186.718 300.586 187.083 300.791C187.452 300.997 187.735 301.232 187.932 301.496C188.129 301.756 188.282 301.974 188.391 302.15H188.516V297.389H190.076V310.268H188.567V308.778H188.391C188.282 308.962 188.124 309.189 187.919 309.457C187.718 309.721 187.431 309.956 187.057 310.161C186.684 310.367 186.192 310.469 185.58 310.469ZM185.825 309.08C186.408 309.08 186.9 308.927 187.303 308.621C187.709 308.31 188.018 307.883 188.227 307.338C188.437 306.793 188.542 306.16 188.542 305.439C188.542 304.726 188.439 304.103 188.233 303.571C188.028 303.034 187.722 302.617 187.315 302.32C186.913 302.018 186.416 301.867 185.825 301.867C185.209 301.867 184.695 302.026 184.284 302.345C183.878 302.659 183.572 303.087 183.366 303.628C183.161 304.164 183.058 304.768 183.058 305.439C183.058 306.118 183.161 306.734 183.366 307.287C183.576 307.837 183.886 308.273 184.297 308.595C184.708 308.918 185.217 309.08 185.825 309.08ZM199.048 306.306V300.609H200.614V310.268H199.054V308.627H198.954C198.727 309.121 198.373 309.541 197.891 309.884C197.413 310.224 196.811 310.394 196.086 310.394C195.478 310.394 194.937 310.26 194.464 309.991C193.994 309.723 193.625 309.321 193.357 308.784C193.089 308.243 192.954 307.564 192.954 306.747V300.609H194.52V306.621C194.52 307.317 194.715 307.872 195.105 308.287C195.495 308.698 195.994 308.903 196.602 308.903C196.966 308.903 197.337 308.811 197.715 308.627C198.092 308.438 198.409 308.153 198.664 307.772C198.92 307.39 199.048 306.902 199.048 306.306ZM204.862 297.389V310.268H203.296V297.389H204.862ZM211.607 310.469C210.673 310.469 209.866 310.264 209.186 309.853C208.511 309.438 207.992 308.859 207.627 308.117C207.266 307.371 207.086 306.503 207.086 305.514C207.086 304.525 207.266 303.653 207.627 302.898C207.992 302.139 208.501 301.548 209.155 301.125C209.813 300.697 210.58 300.483 211.456 300.483C211.968 300.483 212.471 300.569 212.966 300.741C213.46 300.909 213.909 301.181 214.311 301.559C214.718 301.936 215.039 302.433 215.274 303.049C215.512 303.665 215.632 304.422 215.632 305.319V305.954H208.142V304.646H214.06C214.06 304.11 213.953 303.634 213.739 303.219C213.525 302.8 213.224 302.468 212.834 302.225C212.444 301.982 211.987 301.86 211.463 301.86C210.884 301.86 210.383 302.003 209.96 302.288C209.536 302.573 209.212 302.944 208.985 303.401C208.759 303.854 208.646 304.34 208.646 304.86V305.766C208.646 306.478 208.769 307.082 209.017 307.577C209.268 308.071 209.616 308.449 210.06 308.709C210.505 308.964 211.02 309.092 211.607 309.092C211.993 309.092 212.341 309.038 212.651 308.929C212.962 308.82 213.23 308.654 213.456 308.432C213.687 308.21 213.863 307.935 213.984 307.608L215.487 307.992C215.341 308.486 215.087 308.92 214.726 309.293C214.37 309.666 213.926 309.956 213.393 310.161C212.865 310.367 212.27 310.469 211.607 310.469ZM224.78 302.81L223.371 303.175C223.288 302.953 223.166 302.737 223.007 302.527C222.847 302.317 222.631 302.146 222.359 302.011C222.087 301.877 221.739 301.81 221.315 301.81C220.737 301.81 220.254 301.942 219.869 302.206C219.483 302.466 219.29 302.8 219.29 303.206C219.29 303.567 219.42 303.854 219.68 304.068C219.944 304.277 220.357 304.451 220.919 304.59L222.378 304.942C223.246 305.151 223.891 305.47 224.315 305.898C224.742 306.325 224.956 306.879 224.956 307.558C224.956 308.115 224.795 308.614 224.472 309.054C224.153 309.49 223.709 309.836 223.139 310.092C222.569 310.344 221.904 310.469 221.145 310.469C220.143 310.469 219.315 310.251 218.661 309.815C218.007 309.379 217.597 308.748 217.429 307.922L218.919 307.583C219.049 308.094 219.299 308.478 219.668 308.734C220.041 308.989 220.527 309.117 221.126 309.117C221.801 309.117 222.338 308.975 222.736 308.69C223.139 308.4 223.34 308.052 223.34 307.646C223.34 307.315 223.223 307.038 222.988 306.816C222.757 306.594 222.403 306.426 221.925 306.313L220.309 305.942C219.42 305.732 218.766 305.405 218.347 304.961C217.932 304.516 217.724 303.959 217.724 303.288C217.724 302.739 217.88 302.255 218.19 301.835C218.5 301.412 218.926 301.081 219.466 300.842C220.007 300.603 220.621 300.483 221.309 300.483C222.281 300.483 223.047 300.697 223.604 301.125C224.162 301.548 224.554 302.11 224.78 302.81Z" fill="#222222"/>
</g>
<path d="M0.924473 13.2811C0.924473 6.25176 6.62287 0.553379 13.6522 0.553379L371.765 0.553379C378.795 0.553379 384.493 6.25178 384.493 13.2811V325.903C384.493 332.933 378.795 338.631 371.765 338.631H13.6522C6.62288 338.631 0.924473 332.932 0.924473 325.903L0.924473 13.2811Z" stroke="#D5DFFD" stroke-width="1.10676"/>
<defs>
<clipPath id="clip0_7130_36074">
<path d="M0.371094 13.2811C0.371094 5.94614 6.31725 0 13.6522 0L371.765 0C379.1 0 385.046 5.94615 385.046 13.2811V325.903C385.046 333.238 379.1 339.184 371.765 339.184H13.6522C6.31725 339.184 0.371094 333.238 0.371094 325.903L0.371094 13.2811Z" fill="white"/>
</clipPath>
</defs>
</svg>
