<svg width="46" height="46" viewBox="0 0 46 46" fill="none" xmlns="http://www.w3.org/2000/svg">
<circle cx="23.2969" cy="23.3374" r="22.5" fill="#F2F5FF"/>
<path d="M17.3256 31.7817V29.4039L23.4194 23.5147C23.9876 22.9465 24.462 22.4408 24.8427 21.9976C25.2234 21.5545 25.5103 21.1226 25.7035 20.7022C25.8967 20.2817 25.9933 19.8329 25.9933 19.3556C25.9933 18.8158 25.8683 18.3528 25.6183 17.9664C25.3739 17.5744 25.0359 17.2732 24.604 17.063C24.1779 16.8471 23.6921 16.7391 23.1467 16.7391C22.5842 16.7391 22.0898 16.8556 21.6637 17.0886C21.2433 17.3215 20.9165 17.6511 20.6836 18.0772C20.4563 18.4976 20.3427 19.0005 20.3427 19.5857H17.2063C17.2063 18.4721 17.4592 17.5033 17.9648 16.6795C18.4762 15.8556 19.1808 15.2192 20.0785 14.7704C20.9819 14.3158 22.016 14.0886 23.1808 14.0886C24.3739 14.0886 25.4194 14.3073 26.3171 14.7448C27.2148 15.1823 27.9109 15.7846 28.4052 16.5516C28.9052 17.3187 29.1552 18.1937 29.1552 19.1766C29.1552 19.83 29.0273 20.4749 28.7717 21.1113C28.5217 21.742 28.0785 22.4437 27.4421 23.2164C26.8114 23.9891 25.9222 24.9181 24.7745 26.0033L21.8768 28.9266V29.0459H29.4109V31.7817H17.3256Z" fill="#5065D0"/>
</svg>
