<svg width="46" height="46" viewBox="0 0 46 46" fill="none" xmlns="http://www.w3.org/2000/svg">
<circle opacity="0.1" cx="23.2969" cy="23.4482" r="22.5" fill="#F2F5FF"/>
<path d="M23.2809 32.1312C22.0479 32.1312 20.9485 31.9181 19.9826 31.492C19.0224 31.0659 18.2638 30.475 17.707 29.7193C17.1502 28.9636 16.8576 28.0914 16.8292 27.1028H20.1616C20.19 27.563 20.3434 27.9636 20.6218 28.3045C20.9002 28.6454 21.2695 28.9096 21.7298 29.0971C22.19 29.2846 22.707 29.3784 23.2809 29.3784C23.8888 29.3784 24.4286 29.2733 24.9002 29.063C25.3718 28.8471 25.7383 28.5488 25.9996 28.1681C26.2667 27.7875 26.4002 27.3471 26.4002 26.8471C26.4002 26.3358 26.2638 25.8841 25.9911 25.492C25.7184 25.1 25.3235 24.7931 24.8065 24.5716C24.2951 24.3443 23.6815 24.2306 22.9656 24.2306H21.3974V21.7335H22.9656C23.5565 21.7335 24.0763 21.6312 24.5252 21.4267C24.9798 21.2164 25.3349 20.9267 25.5906 20.5574C25.8462 20.1824 25.9712 19.7449 25.9656 19.2449C25.9712 18.7676 25.8633 18.35 25.6417 17.992C25.4201 17.6341 25.1104 17.3556 24.7127 17.1568C24.315 16.9522 23.8491 16.85 23.315 16.85C22.7923 16.85 22.3065 16.9466 21.8576 17.1397C21.4144 17.3272 21.0565 17.5971 20.7837 17.9494C20.5167 18.296 20.3746 18.7079 20.3576 19.1852H17.1871C17.2099 18.2022 17.494 17.3386 18.0394 16.5943C18.5906 15.8443 19.3235 15.2591 20.2383 14.8386C21.1587 14.4125 22.1928 14.1994 23.3406 14.1994C24.511 14.1994 25.5309 14.4181 26.4002 14.8556C27.2752 15.2875 27.9514 15.8727 28.4286 16.6113C28.9116 17.3443 29.1502 18.1596 29.1445 19.0574C29.1502 20.0346 28.8576 20.8556 28.2667 21.5204C27.6815 22.1795 26.9144 22.6085 25.9656 22.8074V22.9437C27.2042 23.1142 28.1531 23.5659 28.8121 24.2988C29.4712 25.0318 29.7979 25.9437 29.7923 27.0346C29.7979 28.0119 29.5195 28.8869 28.957 29.6596C28.4002 30.4267 27.6303 31.0318 26.6474 31.475C25.6701 31.9125 24.5479 32.1312 23.2809 32.1312Z" fill="#FEFEFE"/>
</svg>
