<svg width="31" height="31" viewBox="0 0 31 31" fill="none" xmlns="http://www.w3.org/2000/svg">
<mask id="mask0_10694_157944" style="mask-type:alpha" maskUnits="userSpaceOnUse" x="0" y="0" width="31" height="31">
<rect width="31" height="31" fill="#D9D9D9"/>
</mask>
<g mask="url(#mask0_10694_157944)">
<path d="M14.1439 23.23L10.0056 19.0917L11.4065 17.6908L14.1439 20.4281L19.5937 14.9783L20.9947 16.3792L14.1439 23.23ZM6.85594 27.7707C6.20348 27.7707 5.6512 27.5447 5.19912 27.0926C4.74704 26.6405 4.521 26.0882 4.521 25.4358V8.14738C4.521 7.49492 4.74704 6.94265 5.19912 6.49056C5.6512 6.03848 6.20348 5.81244 6.85594 5.81244H8.64442V3.08008H10.6315V5.81244H20.4184V3.08008H22.3558V5.81244H24.1443C24.7968 5.81244 25.3491 6.03848 25.8011 6.49056C26.2532 6.94265 26.4793 7.49492 26.4793 8.14738V25.4358C26.4793 26.0882 26.2532 26.6405 25.8011 27.0926C25.3491 27.5447 24.7968 27.7707 24.1443 27.7707H6.85594ZM6.85594 25.8332H24.1443C24.2437 25.8332 24.3348 25.7918 24.4176 25.709C24.5004 25.6262 24.5418 25.5351 24.5418 25.4358V13.3141H6.45846V25.4358C6.45846 25.5351 6.49986 25.6262 6.58266 25.709C6.66547 25.7918 6.75657 25.8332 6.85594 25.8332ZM6.45846 11.3766H24.5418V8.14738C24.5418 8.04801 24.5004 7.95692 24.4176 7.8741C24.3348 7.7913 24.2437 7.74991 24.1443 7.74991H6.85594C6.75657 7.74991 6.66547 7.7913 6.58266 7.8741C6.49986 7.95692 6.45846 8.04801 6.45846 8.14738V11.3766Z" fill="#222222"/>
</g>
</svg>
