<svg width="30" height="30" viewBox="0 0 30 30" fill="none" xmlns="http://www.w3.org/2000/svg">
<mask id="mask0_10696_42275" style="mask-type:alpha" maskUnits="userSpaceOnUse" x="0" y="0" width="30" height="30">
<rect width="30" height="30" fill="#D9D9D9"/>
</mask>
<g mask="url(#mask0_10696_42275)">
<path d="M6.63462 26.8751C6.00321 26.8751 5.46875 26.6564 5.03125 26.2189C4.59375 25.7814 4.375 25.2469 4.375 24.6155V7.8848C4.375 7.25339 4.59375 6.71893 5.03125 6.28143C5.46875 5.84393 6.00321 5.62518 6.63462 5.62518H8.36541V2.98096H10.2884V5.62518H19.7596V2.98096H21.6345V5.62518H23.3653C23.9967 5.62518 24.5312 5.84393 24.9687 6.28143C25.4062 6.71893 25.6249 7.25339 25.6249 7.8848V12.546H23.75V11.8288H6.24997V24.6155C6.24997 24.7117 6.29003 24.7998 6.37016 24.88C6.4503 24.9601 6.53846 25.0001 6.63462 25.0001H13.2062V26.8751H6.63462ZM6.24997 9.95384H23.75V7.8848C23.75 7.78864 23.7099 7.70048 23.6298 7.62033C23.5496 7.54021 23.4615 7.50015 23.3653 7.50015H6.63462C6.53846 7.50015 6.4503 7.54021 6.37016 7.62033C6.29003 7.70048 6.24997 7.78864 6.24997 7.8848V9.95384Z" fill="#222222"/>
<path d="M25.2082 26.1904C24.1249 27.0662 22.8709 27.504 21.4462 27.504C19.7732 27.504 18.3453 26.9127 17.1626 25.73C15.9799 24.5473 15.3885 23.1194 15.3885 21.4464C15.3885 19.7733 15.9799 18.3454 17.1626 17.1627C18.3453 15.98 19.7732 15.3887 21.4462 15.3887C22.3324 15.3887 23.1706 15.5762 23.9607 15.9512C24.7507 16.3262 25.435 16.8206 26.0135 17.4344L26.0135 15.3887L27.5039 15.3887L27.5039 20.004L22.8885 20.004L22.8885 18.5137L24.9775 18.5137C24.5256 18.0137 23.9951 17.6162 23.3862 17.3214C22.7772 17.0265 22.1305 16.879 21.4462 16.879C20.1818 16.879 19.1045 17.3242 18.2142 18.2144C17.324 19.1046 16.8789 20.1819 16.8789 21.4464C16.8789 22.7108 17.324 23.7881 18.2142 24.6784C19.1045 25.5686 20.1818 26.0137 21.4462 26.0137C22.4703 26.0137 23.3705 25.724 24.1469 25.1447C24.9234 24.5654 25.4631 23.8134 25.7659 22.8887L27.3188 22.8887C26.9951 24.214 26.2916 25.3145 25.2082 26.1904Z" fill="#222222"/>
</g>
</svg>
