<svg width="64" height="65" viewBox="0 0 64 65" fill="none" xmlns="http://www.w3.org/2000/svg">
<g clip-path="url(#clip0_7526_253133)">
<path fill-rule="evenodd" clip-rule="evenodd" d="M43.4749 10.7695L41.9076 14.6083C41.6913 15.1381 41.4592 15.6595 41.2121 16.172C41.1561 16.288 41.0994 16.4036 41.0419 16.5187C38.3621 21.8823 34.0112 26.2332 28.6476 28.913C28.5325 28.9705 28.417 29.0272 28.3009 29.0832C27.7885 29.3303 27.267 29.5624 26.7372 29.7787L22.8984 31.346L26.7372 32.9132C27.267 33.1296 27.7885 33.3616 28.3009 33.6088C28.4169 33.6647 28.5325 33.7215 28.6476 33.779C34.0112 36.4587 38.3621 40.8096 41.0419 46.1732C41.0994 46.2883 41.1561 46.4039 41.2121 46.5199C41.4592 47.0324 41.6913 47.5538 41.9076 48.0837L43.4749 51.9224L45.0422 48.0837C45.2585 47.5538 45.4905 47.0324 45.7377 46.5199C45.7936 46.4039 45.8504 46.2883 45.9079 46.1732C48.5876 40.8096 52.9385 36.4587 58.3021 33.779C58.4172 33.7215 58.5328 33.6647 58.6488 33.6088C59.1613 33.3616 59.6827 33.1296 60.2126 32.9132L64.0513 31.346L60.2126 29.7787C59.6827 29.5624 59.1613 29.3303 58.6488 29.0832C58.5328 29.0272 58.4172 28.9705 58.3021 28.913C52.9385 26.2332 48.5876 21.8823 45.9079 16.5187C45.8504 16.4036 45.7936 16.288 45.7377 16.172C45.4905 15.6595 45.2585 15.1381 45.0422 14.6083L43.4749 10.7695ZM43.4749 21.2149C40.9042 25.3109 37.4398 28.7753 33.3438 31.346C37.4398 33.9167 40.9042 37.381 43.4749 41.4771C46.0456 37.381 49.5099 33.9167 53.606 31.346C49.5099 28.7753 46.0456 25.3109 43.4749 21.2149Z" fill="#FEFEFE"/>
<path d="M11.8035 8.92285V8.92285C13.3764 14.1666 17.4454 18.2902 22.6677 19.9329L22.8804 19.9998V19.9998C17.5451 21.5609 13.3684 25.7425 11.8035 31.0767V31.0767V31.0767C10.2372 25.7444 6.06034 21.561 0.726562 19.9998V19.9998L0.935644 19.934C6.15863 18.2905 10.2286 14.1669 11.8035 8.92285V8.92285Z" fill="#FEFEFE"/>
<path d="M15.5096 42.1543V42.1543C16.8789 45.5081 19.5404 48.1696 22.8942 49.5389V49.5389V49.5389C19.5404 50.9082 16.8789 53.5697 15.5096 56.9235V56.9235V56.9235C14.1403 53.5697 11.4788 50.9082 8.125 49.5389V49.5389V49.5389C11.4788 48.1696 14.1403 45.5081 15.5096 42.1543V42.1543Z" fill="#FEFEFE"/>
</g>
<defs>
<clipPath id="clip0_7526_253133">
<rect width="64" height="64" fill="white" transform="translate(0 0.922852)"/>
</clipPath>
</defs>
</svg>
