<svg width="49" height="48" viewBox="0 0 49 48" fill="none" xmlns="http://www.w3.org/2000/svg">
<g clip-path="url(#clip0_6872_275302)">
<path d="M4.12891 24.0039C4.12891 17.3765 9.50149 12.0039 16.1289 12.0039H32.1289C38.7564 12.0039 44.1289 17.3765 44.1289 24.0039C44.1289 30.6313 38.7564 36.0039 32.1289 36.0039H16.1289C9.5015 36.0039 4.12891 30.6313 4.12891 24.0039Z" fill="black"/>
<g opacity="0.4">
<path d="M10.7604 16.5033C10.9542 16.4145 11.1466 16.3428 11.3378 16.2882C11.5289 16.2336 11.7247 16.1934 11.9253 16.1674C11.2761 16.7652 10.864 17.4889 10.689 18.3384C10.5141 19.1878 10.6083 20.0092 10.9717 20.8024C11.3352 21.5957 11.8957 22.2035 12.6533 22.6257C13.4109 23.0479 14.228 23.2083 15.1048 23.107C14.9541 23.242 14.7957 23.364 14.6296 23.4731C14.4634 23.5822 14.2835 23.6811 14.0897 23.7699C13.5871 24.0002 13.0711 24.1212 12.5416 24.133C12.0122 24.1448 11.509 24.0621 11.0322 23.8849C10.5554 23.7077 10.1204 23.4418 9.72708 23.0871C9.33381 22.7325 9.02203 22.3038 8.79175 21.8012C8.56148 21.2986 8.44045 20.7826 8.42867 20.2532C8.41689 19.7237 8.49959 19.2206 8.67677 18.7438C8.85395 18.2669 9.11987 17.8319 9.47453 17.4386C9.82918 17.0453 10.2578 16.7336 10.7604 16.5033Z" fill="#FEFEFE"/>
<ellipse cx="8.62891" cy="27.5039" rx="0.5" ry="0.5" fill="#FEFEFE"/>
<ellipse cx="18.6289" cy="21.5039" rx="0.5" ry="0.5" fill="#FEFEFE"/>
<ellipse cx="24.6289" cy="33.5039" rx="0.5" ry="0.5" fill="#FEFEFE"/>
<ellipse cx="23.6289" cy="15.5039" rx="0.5" ry="0.5" fill="#FEFEFE"/>
<path d="M16.1888 28.9237C16.2425 28.7172 16.5134 28.6685 16.6357 28.8433L17.1062 29.5163C17.156 29.5876 17.2393 29.6278 17.3261 29.6226L18.1458 29.5734C18.3587 29.5606 18.4888 29.8033 18.3603 29.9735L17.8657 30.629C17.8133 30.6984 17.8007 30.79 17.8325 30.871L18.1326 31.6354C18.2106 31.8339 18.02 32.0326 17.8184 31.963L17.0421 31.6951C16.9599 31.6668 16.8689 31.6832 16.8018 31.7384L16.1675 32.26C16.0028 32.3955 15.7549 32.2757 15.7588 32.0624L15.7737 31.2413C15.7752 31.1544 15.7315 31.0729 15.6583 31.0261L14.9662 30.5841C14.7864 30.4693 14.8238 30.1965 15.0278 30.1343L15.8133 29.8948C15.8965 29.8694 15.9605 29.8026 15.9823 29.7185L16.1888 28.9237Z" fill="#FEFEFE"/>
</g>
<ellipse cx="32.4453" cy="24.0039" rx="9.00001" ry="9" fill="#FEFEFE"/>
</g>
<defs>
<clipPath id="clip0_6872_275302">
<path d="M4.12891 24.0039C4.12891 17.3765 9.50149 12.0039 16.1289 12.0039H32.1289C38.7564 12.0039 44.1289 17.3765 44.1289 24.0039C44.1289 30.6313 38.7564 36.0039 32.1289 36.0039H16.1289C9.5015 36.0039 4.12891 30.6313 4.12891 24.0039Z" fill="white"/>
</clipPath>
</defs>
</svg>
