<svg width="30" height="30" viewBox="0 0 30 30" fill="none" xmlns="http://www.w3.org/2000/svg">
<mask id="mask0_10696_43825" style="mask-type:alpha" maskUnits="userSpaceOnUse" x="1" y="1" width="28" height="28">
<rect x="1.25" y="1.25" width="27.5" height="27.5" fill="#D9D9D9"/>
</mask>
<g mask="url(#mask0_10696_43825)">
<path fill-rule="evenodd" clip-rule="evenodd" d="M5.58177 20.5013L6.90279 24.7763H12.6107V26.4582H6.29676C5.87214 26.4582 5.49827 26.192 5.37846 25.8042L3.58101 19.9875C3.40069 19.4039 3.86028 18.8193 4.49931 18.8193H25.5001C26.169 18.8193 26.6316 19.4556 26.3959 20.0514L24.0952 25.8682C23.9548 26.2232 23.5979 26.4582 23.1994 26.4582H16.9549V24.7763H22.6389L24.3298 20.5013H5.58177Z" fill="#222222"/>
<path fill-rule="evenodd" clip-rule="evenodd" d="M6.979 15.557V17.8646H8.60146V16.3076H8.58315V15.557C8.58315 15.3401 8.63902 15.1471 8.75076 14.9781C8.86252 14.8091 9.03974 14.6614 9.28241 14.5349C10.1627 14.0944 11.0689 13.7607 12.0013 13.5338C12.9336 13.3069 13.9331 13.1935 14.9999 13.1935C16.0666 13.1935 17.0661 13.3069 17.9984 13.5338C18.9308 13.7607 19.837 14.0944 20.7173 14.5349C20.96 14.6614 21.1372 14.8091 21.2489 14.9781C21.3607 15.1471 21.4166 15.3401 21.4166 15.557V15.7157H21.4349V17.8646H23.0207V15.557C23.0207 15.022 22.8784 14.5446 22.5939 14.1247C22.3094 13.7049 21.9295 13.3782 21.4541 13.1447C20.4378 12.6622 19.4158 12.2902 18.3881 12.0287C17.3605 11.7672 16.2311 11.6365 14.9999 11.6365C13.7686 11.6365 12.6392 11.7672 11.6115 12.0287C10.5839 12.2902 9.56194 12.6622 8.54559 13.1447C8.0702 13.3782 7.69026 13.7049 7.40577 14.1247C7.12126 14.5446 6.979 15.022 6.979 15.557ZM12.3563 9.16768C13.0894 9.87915 13.9705 10.2349 14.9999 10.2349C16.0292 10.2349 16.9104 9.87915 17.6434 9.16768C18.3764 8.4562 18.7429 7.60091 18.7429 6.60183C18.7429 5.60272 18.3764 4.74744 17.6434 4.03597C16.9104 3.32449 16.0292 2.96875 14.9999 2.96875C13.9705 2.96875 13.0894 3.32449 12.3563 4.03597C11.6233 4.74744 11.2568 5.60272 11.2568 6.60183C11.2568 7.60091 11.6233 8.4562 12.3563 9.16768ZM16.5105 8.06804C16.0916 8.47461 15.588 8.67789 14.9999 8.67789C14.4117 8.67789 13.9081 8.47461 13.4893 8.06804C13.0704 7.66148 12.861 7.17274 12.861 6.60183C12.861 6.03091 13.0704 5.54217 13.4893 5.13561C13.9081 4.72905 14.4117 4.52577 14.9999 4.52577C15.588 4.52577 16.0916 4.72905 16.5105 5.13561C16.9293 5.54217 17.1388 6.03091 17.1388 6.60183C17.1388 7.17274 16.9293 7.66148 16.5105 8.06804Z" fill="#222222"/>
<path d="M15.1074 15.3104L18.4375 14.4272L18.4375 17.8647L15.1074 16.8654L11.5625 17.8647L11.5625 14.4272L15.1074 15.3104Z" fill="#222222"/>
<path fill-rule="evenodd" clip-rule="evenodd" d="M12.4536 22.6387L17.5462 22.6387L17.5462 27.7313L16.0736 27.7313L16.0736 24.3129L13.9262 24.3129L13.9262 27.7313L12.4536 27.7313L12.4536 22.6387Z" fill="#222222"/>
</g>
</svg>
