<svg width="49" height="48" viewBox="0 0 49 48" fill="none" xmlns="http://www.w3.org/2000/svg">
<mask id="mask0_6872_275276" style="mask-type:alpha" maskUnits="userSpaceOnUse" x="0" y="0" width="49" height="49">
<rect x="0.519531" y="0.00390625" width="48" height="48" fill="#D9D9D9"/>
</mask>
<g mask="url(#mask0_6872_275276)">
<path d="M20.0195 32.0807L32.5963 24.0039L20.0195 15.927V32.0807ZM24.5228 43.0038C21.895 43.0038 19.4249 42.5051 17.1126 41.5078C14.8003 40.5105 12.789 39.157 11.0785 37.4473C9.36806 35.7376 8.01395 33.7271 7.01618 31.4159C6.01841 29.1046 5.51953 26.6351 5.51953 24.0072C5.51953 21.3793 6.0182 18.9093 7.01553 16.597C8.01286 14.2847 9.36636 12.2733 11.076 10.5629C12.7857 8.85244 14.7962 7.49833 17.1075 6.50056C19.4187 5.50279 21.8883 5.00391 24.5161 5.00391C27.144 5.00391 29.6141 5.50258 31.9263 6.49991C34.2386 7.49724 36.25 8.85074 37.9604 10.5604C39.6709 12.2701 41.025 14.2806 42.0228 16.5919C43.0205 18.9031 43.5194 21.3726 43.5194 24.0005C43.5194 26.6284 43.0208 29.0984 42.0234 31.4107C41.0261 33.723 39.6726 35.7344 37.9629 37.4448C36.2532 39.1553 34.2427 40.5094 31.9315 41.5072C29.6202 42.5049 27.1507 43.0038 24.5228 43.0038ZM24.5195 40.0039C28.9861 40.0039 32.7695 38.4539 35.8695 35.3539C38.9695 32.2539 40.5195 28.4705 40.5195 24.0039C40.5195 19.5372 38.9695 15.7539 35.8695 12.6539C32.7695 9.55386 28.9861 8.00386 24.5195 8.00386C20.0528 8.00386 16.2695 9.55386 13.1695 12.6539C10.0695 15.7539 8.51948 19.5372 8.51948 24.0039C8.51948 28.4705 10.0695 32.2539 13.1695 35.3539C16.2695 38.4539 20.0528 40.0039 24.5195 40.0039Z" fill="#FEFEFE"/>
</g>
</svg>
