<svg width="24" height="25" viewBox="0 0 24 25" fill="none" xmlns="http://www.w3.org/2000/svg">
<path fill-rule="evenodd" clip-rule="evenodd" d="M4.25146 16.831L7.33366 20.7351C7.52591 20.9787 7.48435 21.3319 7.24084 21.5242C6.99732 21.7164 6.64407 21.6748 6.45183 21.4313L2.73114 16.7185C2.40799 16.3091 2.69954 15.7075 3.22105 15.7075H20.6991C21.2206 15.7075 21.5121 16.3092 21.189 16.7185L17.4683 21.4313C17.2761 21.6748 16.9228 21.7164 16.6793 21.5242C16.4358 21.3319 16.3942 20.9787 16.5865 20.7351L19.6687 16.831H4.25146Z" fill="#5065D0"/>
<path fill-rule="evenodd" clip-rule="evenodd" d="M8.8206 5.25817C9.06341 4.49867 10.0212 3.02106 11.9835 3.02106C13.9388 3.02106 14.9326 4.48935 15.1963 5.24293C15.221 5.31337 15.2312 5.38309 15.2312 5.44848V7.76986C15.2312 7.91159 15.183 8.0491 15.0944 8.15978L13.9021 9.65023V9.8743L17.9619 12.1869C18.1568 12.2979 18.2771 12.5049 18.2771 12.7292V14.5482C18.2771 14.8584 18.0256 15.11 17.7154 15.11C17.4051 15.11 17.1536 14.8584 17.1536 14.5482V13.0195L13.0938 10.7069C12.8989 10.5959 12.7785 10.3888 12.7785 10.1645V9.47507C12.7785 9.33334 12.8268 9.19583 12.9153 9.08515L14.1077 7.5947V5.54023C13.8982 5.03266 13.2271 4.14458 11.9835 4.14458C10.7415 4.14458 10.1041 5.03141 9.91465 5.53202V7.61124L10.9885 9.10964C11.0645 9.21566 11.1053 9.34281 11.1053 9.47324V10.1648C11.1053 10.3878 10.9863 10.5939 10.7931 10.7054L6.78563 13.0174V14.5482C6.78563 14.8584 6.53412 15.11 6.22387 15.11C5.91362 15.11 5.66211 14.8584 5.66211 14.5482V12.729C5.66211 12.5059 5.78115 12.2998 5.97437 12.1883L9.98181 9.87636V9.63369L8.90796 8.13529C8.83199 8.02927 8.79113 7.90212 8.79113 7.7717V5.44762C8.79113 5.38759 8.79972 5.32351 8.8206 5.25817ZM11.9835 11.4666C12.2937 11.4666 12.5452 11.7181 12.5452 12.0284V14.5482C12.5452 14.8584 12.2937 15.11 11.9835 15.11C11.6732 15.11 11.4217 14.8584 11.4217 14.5482V12.0284C11.4217 11.7181 11.6732 11.4666 11.9835 11.4666Z" fill="#5065D0"/>
</svg>
