<svg width="24" height="25" viewBox="0 0 24 25" fill="none" xmlns="http://www.w3.org/2000/svg">
<path fill-rule="evenodd" clip-rule="evenodd" d="M3.52585 5.47978C3.90667 5.02721 4.55129 4.55076 5.45369 4.58357C6.30588 4.61456 6.91516 5.04945 7.28257 5.48155C7.6891 5.95965 7.73893 6.56785 7.73893 7.0048V7.43723C7.73893 7.96282 7.58606 8.47706 7.29895 8.9173L7.04188 9.31149C7.04173 9.31171 7.04165 9.31196 7.04165 9.31223C7.04165 9.3128 7.04201 9.3133 7.04254 9.3135L8.63796 9.91413C8.77625 9.96619 8.8907 10.0671 8.95969 10.1978L10.06 12.2817L11.5992 10.12C11.7794 9.8669 12.1306 9.80781 12.3836 9.98799C12.6367 10.1682 12.6958 10.5194 12.5156 10.7724L10.447 13.6778C10.3338 13.8368 10.1462 13.9257 9.95145 13.9128C9.75667 13.8998 9.58254 13.7868 9.4914 13.6142L8.05698 10.8975L6.64618 10.3663C6.20727 10.2011 5.91668 9.7812 5.91668 9.31223C5.91668 9.09374 5.98023 8.87996 6.09959 8.69695L6.35667 8.30277C6.52457 8.04532 6.61396 7.74459 6.61396 7.43723V7.0048C6.61396 6.61321 6.55572 6.36338 6.42553 6.21028C6.20846 5.95499 5.87464 5.7246 5.41281 5.7078C4.96697 5.69159 4.62692 5.91852 4.38663 6.20409C4.24776 6.36913 4.18281 6.63225 4.18281 7.01428V7.40373C4.18281 7.71645 4.28535 8.02056 4.47471 8.26944L4.75361 8.63599C4.91105 8.84291 4.9963 9.09574 4.9963 9.35575C4.9963 9.76521 4.78557 10.1458 4.43855 10.3632L2.69528 11.4549V15.7437L3.46684 17.1826C3.5176 17.2772 3.54833 17.3813 3.55712 17.4883L3.9485 22.2539C3.97392 22.5635 3.74355 22.8351 3.43394 22.8606C3.12433 22.886 2.85273 22.6556 2.8273 22.346L2.44176 17.6514L1.66322 16.1996C1.60223 16.0858 1.57031 15.9588 1.57031 15.8297V11.3406C1.57031 11.0242 1.73314 10.7301 2.00126 10.5622L3.84144 9.40974C3.86004 9.39809 3.87133 9.37769 3.87133 9.35575C3.87133 9.34182 3.86676 9.32827 3.85833 9.31718L3.57943 8.95063C3.24106 8.50592 3.05784 7.96253 3.05784 7.40373V7.01428C3.05784 6.55739 3.12459 5.95665 3.52585 5.47978Z" fill="#5065D0"/>
<path fill-rule="evenodd" clip-rule="evenodd" d="M8.31438 16.8717C8.62313 16.906 8.84561 17.1841 8.81131 17.4929L8.27079 22.358C8.23649 22.6668 7.95839 22.8893 7.64964 22.855C7.34089 22.8207 7.1184 22.5426 7.1527 22.2338L7.69322 17.3686C7.72752 17.0599 8.00562 16.8374 8.31438 16.8717Z" fill="#5065D0"/>
<path fill-rule="evenodd" clip-rule="evenodd" d="M13.8066 2.9191V5.16897C13.8066 5.47962 13.5548 5.73146 13.2441 5.73146C12.9335 5.73146 12.6816 5.47962 12.6816 5.16897V2.57673C12.6816 2.14451 13.032 1.79413 13.4642 1.79413H21.647C22.0792 1.79413 22.4296 2.14451 22.4296 2.57673V22.2988C22.4296 22.6094 22.1778 22.8613 21.8671 22.8613C21.5565 22.8613 21.3047 22.6094 21.3047 22.2988V11.314L19.3948 10.4193C18.9859 10.2278 18.7247 9.817 18.7247 9.36548C18.7247 9.14361 18.7881 8.92637 18.9075 8.73935L19.1617 8.34111C19.3317 8.07481 19.422 7.76548 19.422 7.44956V6.70158C19.3973 6.58043 19.3031 6.34685 19.1037 6.13559C18.9021 5.92212 18.6061 5.74459 18.1772 5.73118C17.5781 5.71246 17.2359 6.08084 17.0289 6.49263C16.9531 6.64354 16.9211 6.84181 16.9211 7.10624V7.41653C16.9211 7.73766 17.0247 8.05023 17.2165 8.30779L17.5034 8.693C17.6535 8.89462 17.7346 9.1393 17.7346 9.39068C17.7346 9.81566 17.5038 10.2071 17.1319 10.4128L15.5498 11.288V15.6438L16.3427 17.3582C16.3783 17.4352 16.4011 17.5174 16.4104 17.6016L16.9178 22.2376C16.9516 22.5464 16.7286 22.8241 16.4198 22.8579C16.111 22.8917 15.8333 22.6688 15.7995 22.36L15.2982 17.7797L14.4971 16.0477C14.4495 15.9447 14.4248 15.8326 14.4248 15.7192V11.0114C14.4248 10.7728 14.5544 10.5531 14.7632 10.4376L16.5874 9.42843C16.6011 9.42083 16.6096 9.40637 16.6096 9.39068C16.6096 9.38139 16.6067 9.37235 16.6011 9.36491L16.3142 8.9797C15.9778 8.52796 15.7962 7.97976 15.7962 7.41653V7.10624C15.7962 6.77437 15.8318 6.36925 16.0238 5.98738C16.3251 5.388 16.9862 4.56844 18.2124 4.60676C18.9735 4.63055 19.5414 4.96047 19.9217 5.36332C20.2873 5.75064 20.4946 6.22058 20.5422 6.58336C20.5454 6.60761 20.547 6.63204 20.547 6.6565V7.44956C20.547 7.97996 20.3954 8.4993 20.11 8.94638L19.8558 9.34462C19.8518 9.35085 19.8497 9.35809 19.8497 9.36548C19.8497 9.38052 19.8584 9.3942 19.872 9.40059L21.3047 10.0717V2.9191H13.8066Z" fill="#5065D0"/>
</svg>
