<svg width="24" height="25" viewBox="0 0 24 25" fill="none" xmlns="http://www.w3.org/2000/svg">
<g clip-path="url(#clip0_5821_225902)">
<circle cx="16.7393" cy="4.32541" r="2.73667" transform="rotate(-8.51909 16.7393 4.32541)" stroke="#5065D0" stroke-width="0.787417"/>
<path d="M17.4745 1.70564C16.4404 1.61892 15.8817 3.0482 16.5629 4.7264C17.0448 5.91369 18.7258 6.5372 19.1903 5.52049" stroke="#5065D0" stroke-width="0.757132"/>
<path d="M14.0016 3.78254L5.49506 8.31911C5.49506 8.31911 4.92007 8.72646 5.23103 9.65436C5.54199 10.5823 6.37611 10.4373 6.37611 10.4373L15.4106 6.83387" stroke="#5065D0" stroke-width="0.757132"/>
<path d="M12.1106 7.88514L12.1106 23.3758C12.1106 23.3758 12.1106 23.9 11.4026 23.9003C10.6947 23.9005 10.7149 23.3758 10.7149 23.3758L10.7149 8.78138" stroke="#5065D0" stroke-width="0.666276"/>
<path d="M12.8496 6.05011L11.8522 6.54295" stroke="#5065D0" stroke-width="0.881441" stroke-linecap="round"/>
<path fill-rule="evenodd" clip-rule="evenodd" d="M5.18973 9.30927C4.14795 9.68435 3.27711 10.5837 3.11172 11.6113C3.0267 12.1396 3.13297 12.6897 3.48838 13.1795C3.83846 13.6621 4.40622 14.0543 5.19234 14.3311C6.5152 14.7971 7.2006 15.4918 7.55635 16.2597C7.9218 17.0486 7.96786 17.9748 7.88881 18.948C7.84952 19.4318 7.78079 19.9134 7.71154 20.3859L7.69849 20.4748C7.63442 20.9111 7.57088 21.3439 7.53775 21.7412C7.5026 22.163 7.49795 22.5811 7.57707 22.9523C7.65803 23.3322 7.83362 23.692 8.1775 23.9449C8.38177 24.0951 8.66912 24.0513 8.81932 23.847C8.96952 23.6427 8.9257 23.3554 8.72143 23.2052C8.60968 23.123 8.52426 22.9918 8.47507 22.761C8.42403 22.5215 8.42009 22.2093 8.45275 21.8175C8.48338 21.45 8.5429 21.0444 8.60833 20.5986L8.62 20.519C8.68905 20.048 8.76198 19.5393 8.80397 19.0224C8.88747 17.9943 8.85454 16.8777 8.38947 15.8738C7.91471 14.8489 7.01807 14.0007 5.49737 13.4651C4.83031 13.2302 4.44146 12.9297 4.23156 12.6404C4.02699 12.3584 3.96991 12.0574 4.01822 11.7572C4.11949 11.128 4.70204 10.4607 5.50076 10.1731L5.18973 9.30927Z" fill="#5065D0"/>
</g>
<defs>
<clipPath id="clip0_5821_225902">
<rect width="24" height="24" fill="white" transform="translate(0 0.333008)"/>
</clipPath>
</defs>
</svg>
